<?xml version="1.0" encoding="UTF-8"?>
<svg width="400px" height="75px" viewBox="0 0 400 75" version="1.1" xmlns="http://www.w3.org/2000/svg" xmlns:xlink="http://www.w3.org/1999/xlink">
    <!-- Generator: Sketch 53.2 (72643) - https://sketchapp.com -->
    <title>Pareza Invoce Logo</title>
    <desc>Created with Sketch.</desc>
    <g id="Pareza-Invoce-Logo" stroke="none" stroke-width="1" fill="none" fill-rule="evenodd">
        <g id="Pareza-Group-Logo" fill="#0F68B2">
            <path d="M67.0496028,24.3627204 C65.9028079,17.0403023 59.8821344,11.0100756 52.5713167,9.86146096 C45.2604989,8.71284635 33.6492001,8.71284635 26.3383824,9.86146096 C19.0275646,11.0100756 13.0068911,17.0403023 11.8600962,24.3627204 C10.7133013,31.6851385 10.7133013,43.4584383 11.8600962,50.6372796 C13.0068911,57.6725441 19.0275646,63.9899244 26.3383824,65.138539 C33.6492001,66.2871537 45.4038483,66.2871537 52.4279673,65.138539 C59.4520863,63.9899244 65.7594585,57.9596977 66.9062534,50.6372796 C68.3397471,43.3148615 68.3397471,31.6851385 67.0496028,24.3627204 Z M32.5024052,56.9546599 L27.0551292,56.9546599 L29.2053697,48.3400504 L34.6526457,48.3400504 L32.5024052,56.9546599 Z M43.5403065,46.186398 L43.5403065,46.186398 L29.3487191,46.186398 C29.3487191,46.186398 29.3487191,46.0428212 29.3487191,45.8992443 L29.7787672,43.8891688 C30.3521646,41.8790932 30.6388634,41.0176322 32.6457545,41.0176322 L43.3969571,41.0176322 C43.5403065,41.0176322 43.5403065,41.0176322 43.5403065,41.0176322 C47.4107394,40.0125945 50.1343774,36.7103275 50.1343774,32.6901763 C50.1343774,28.6700252 47.26739,25.3677582 43.5403065,24.3627204 C43.5403065,24.3627204 43.5403065,24.3627204 43.3969571,24.3627204 L28.4886229,24.3627204 C28.3452735,24.3627204 28.3452735,24.2191436 28.3452735,24.2191436 L29.0620203,21.3476071 C29.3487191,20.0554156 30.495514,19.1939547 31.7856583,19.1939547 C39.6698736,19.1939547 43.5403065,19.1939547 43.5403065,19.1939547 C50.2777268,20.1989924 55.438304,25.7984887 55.438304,32.5465995 C55.2949546,39.581864 50.1343774,45.1813602 43.5403065,46.186398 Z" id="Shape"></path>
        </g>
        <text id="Pareza-Invoice" font-family="DINPro-Regular, DIN Pro" font-size="48" font-weight="normal" fill="#0F68B2">
            <tspan x="79" y="51">Pareza </tspan>
            <tspan x="237.448" y="51" font-family="DINPro-Bold, DIN Pro" font-weight="bold">Invoice</tspan>
        </text>
    </g>
</svg>