<?xml version="1.0" encoding="UTF-8"?>
<svg width="423px" height="343px" viewBox="0 0 423 343" version="1.1" xmlns="http://www.w3.org/2000/svg" xmlns:xlink="http://www.w3.org/1999/xlink">
    <!-- Generator: Sketch 53.2 (72643) - https://sketchapp.com -->
    <title>S01 E01</title>
    <desc>Created with Sketch.</desc>
    <defs>
        <linearGradient x1="99.9994603%" y1="49.9979012%" x2="0.00116031918%" y2="49.9979012%" id="linearGradient-1">
            <stop stop-color="#C0D6FF" offset="0%"></stop>
            <stop stop-color="#C5DBFF" offset="29.78%"></stop>
            <stop stop-color="#D3E9FF" offset="64.88%"></stop>
            <stop stop-color="#E9FFFF" offset="100%"></stop>
        </linearGradient>
        <linearGradient x1="99.9789415%" y1="49.993811%" x2="-0.0126567553%" y2="49.993811%" id="linearGradient-2">
            <stop stop-color="#5778FF" offset="0%"></stop>
            <stop stop-color="#5C7DFF" offset="17.79%"></stop>
            <stop stop-color="#6A8AFF" offset="38.76%"></stop>
            <stop stop-color="#82A0FF" offset="61.34%"></stop>
            <stop stop-color="#A3BEFF" offset="84.9%"></stop>
            <stop stop-color="#BCD5FF" offset="100%"></stop>
        </linearGradient>
        <linearGradient x1="99.9955144%" y1="50.0034854%" x2="-0.000556610569%" y2="50.0034854%" id="linearGradient-3">
            <stop stop-color="#00A3FF" offset="0%"></stop>
            <stop stop-color="#14A8FF" offset="9.49%"></stop>
            <stop stop-color="#6EC0FF" offset="53.87%"></stop>
            <stop stop-color="#A6CFFF" offset="85.03%"></stop>
            <stop stop-color="#BCD5FF" offset="100%"></stop>
        </linearGradient>
        <linearGradient x1="66.3945695%" y1="49.9986396%" x2="-33.6031711%" y2="49.9986396%" id="linearGradient-4">
            <stop stop-color="#C0D6FF" offset="0%"></stop>
            <stop stop-color="#C5DBFF" offset="29.78%"></stop>
            <stop stop-color="#D3E9FF" offset="64.88%"></stop>
            <stop stop-color="#E9FFFF" offset="100%"></stop>
        </linearGradient>
        <linearGradient x1="99.9937356%" y1="49.99845%" x2="-0.00294042444%" y2="49.99845%" id="linearGradient-5">
            <stop stop-color="#C0D6FF" offset="0%"></stop>
            <stop stop-color="#C5DBFF" offset="29.78%"></stop>
            <stop stop-color="#D3E9FF" offset="64.88%"></stop>
            <stop stop-color="#E9FFFF" offset="100%"></stop>
        </linearGradient>
        <linearGradient x1="66.3959992%" y1="49.9993765%" x2="-33.6028431%" y2="49.9993765%" id="linearGradient-6">
            <stop stop-color="#C0D6FF" offset="0%"></stop>
            <stop stop-color="#C5DBFF" offset="29.78%"></stop>
            <stop stop-color="#D3E9FF" offset="64.88%"></stop>
            <stop stop-color="#E9FFFF" offset="100%"></stop>
        </linearGradient>
        <linearGradient x1="100.000384%" y1="50.0062002%" x2="0.00357964715%" y2="50.0062002%" id="linearGradient-7">
            <stop stop-color="#C0D6FF" offset="0%"></stop>
            <stop stop-color="#C5DBFF" offset="29.78%"></stop>
            <stop stop-color="#D3E9FF" offset="64.88%"></stop>
            <stop stop-color="#E9FFFF" offset="100%"></stop>
        </linearGradient>
        <radialGradient cx="79.0830431%" cy="50.0024876%" fx="79.0830431%" fy="50.0024876%" r="114.690626%" gradientTransform="translate(0.790830,0.500025),scale(0.578198,1.000000),rotate(180.000000),translate(-0.790830,-0.500025)" id="radialGradient-8">
            <stop stop-color="#2B3AA5" offset="0%"></stop>
            <stop stop-color="#182484" offset="100%"></stop>
        </radialGradient>
        <radialGradient cx="79.0881026%" cy="49.9990572%" fx="79.0881026%" fy="49.9990572%" r="79.6165994%" gradientTransform="translate(0.790881,0.499991),scale(1.000000,0.794004),rotate(180.000000),translate(-0.790881,-0.499991)" id="radialGradient-9">
            <stop stop-color="#2B3AA5" offset="0%"></stop>
            <stop stop-color="#182484" offset="100%"></stop>
        </radialGradient>
        <linearGradient x1="81.8407727%" y1="87.1221455%" x2="33.2864776%" y2="20.587246%" id="linearGradient-10">
            <stop stop-color="#5778FF" offset="0%"></stop>
            <stop stop-color="#5C7DFF" offset="3.98%"></stop>
            <stop stop-color="#6A8AFF" offset="8.67%"></stop>
            <stop stop-color="#82A0FF" offset="13.72%"></stop>
            <stop stop-color="#A3BEFF" offset="18.99%"></stop>
            <stop stop-color="#BCD5FF" offset="22.37%"></stop>
        </linearGradient>
        <linearGradient x1="24.1296919%" y1="89.157006%" x2="58.9335163%" y2="36.4790684%" id="linearGradient-11">
            <stop stop-color="#C0D6FF" offset="0%"></stop>
            <stop stop-color="#C5DBFF" offset="29.78%"></stop>
            <stop stop-color="#D3E9FF" offset="64.88%"></stop>
            <stop stop-color="#E9FFFF" offset="100%"></stop>
        </linearGradient>
        <linearGradient x1="26.2032577%" y1="92.0065023%" x2="77.4690846%" y2="6.62453365%" id="linearGradient-12">
            <stop stop-color="#C0D6FF" offset="0%"></stop>
            <stop stop-color="#C3D9FF" offset="7.82%"></stop>
            <stop stop-color="#CCE2FF" offset="13.41%"></stop>
            <stop stop-color="#DCF2FF" offset="18.29%"></stop>
            <stop stop-color="#E9FFFF" offset="21.17%"></stop>
            <stop stop-color="#D8EEFF" offset="25.6%"></stop>
            <stop stop-color="#CBE1FF" offset="31.45%"></stop>
            <stop stop-color="#C2D8FF" offset="38.69%"></stop>
            <stop stop-color="#C0D6FF" offset="51.43%"></stop>
            <stop stop-color="#D0E6FF" offset="62.39%"></stop>
            <stop stop-color="#E9FFFF" offset="75.5%"></stop>
            <stop stop-color="#C0D6FF" offset="100%"></stop>
        </linearGradient>
    </defs>
    <g id="Page-1" stroke="none" stroke-width="1" fill="none" fill-rule="evenodd">
        <g id="S01-E01" transform="translate(-99.000000, -36.000000)">
            <g id="Group"></g>
            <g id="Group" transform="translate(420.000000, 212.000000)"></g>
            <g id="Group" transform="translate(83.000000, 36.000000)" fill-rule="nonzero">
                <g id="Path">
                    <g>
                        <g transform="translate(131.000000, 0.000000)">
                            <path d="M3.46,142.54 L26.88,3.58 L25,2.79 L27.83,1.17 L27.83,1.19 C28.38,0.82 29.16,0.85 30.01,1.34 L217.2,109.41 C218.74,110.3 219.9,112.57 219.63,114.16 L196.02,254.23 C195.9,254.96 195.54,255.44 195.03,255.66 L195.03,255.66 L192.26,257.26 L191.78,254.67 L191.94,254.72 L5.89,147.3 C4.36,146.41 3.19,144.13 3.46,142.54 Z" fill="url(#linearGradient-1)"></path>
                            <path d="M216.16,113.21 L219.24,111.85 C219.59,112.64 219.75,113.47 219.64,114.17 L196.03,254.24 C195.91,254.97 195.55,255.45 195.04,255.67 L195.04,255.67 L192.27,257.27 L191.79,254.68 L191.95,254.73 L182.54,249.29 L216.16,113.21 Z" fill="url(#linearGradient-2)"></path>
                            <path d="M2.96,148.98 L190.15,257.05 C191.6,257.88 192.83,257.4 193.09,255.91 L216.7,115.84 C216.97,114.25 215.81,111.97 214.27,111.09 L27.07,3.02 C25.62,2.19 24.39,2.67 24.13,4.16 L0.52,144.22 C0.26,145.82 1.42,148.09 2.96,148.98 Z" fill="#242993"></path>
                            <g opacity="0.51" transform="translate(7.000000, 11.000000)" fill="#4553C7">
                                <polygon points="22.52 0.96 202.95 105.13 180.58 237.05 0.26 132.94"></polygon>
                            </g>
                        </g>
                        <g transform="translate(0.000000, 148.000000)">
                            <path d="M16.29,67.29 L26.51,72.62 L128.95,13.48 C130.66,12.49 133.66,12.61 135.64,13.76 L312.31,115.76 C314,114.81 321.71,111.11 321.71,111.11 L317.97,120.85 C317.97,120.85 317.96,120.84 317.96,120.84 C317.81,121.27 317.47,121.68 316.91,122 L209.03,184.29 C207.32,185.28 204.32,185.16 202.34,184.01 L21.53,79.64 C20.72,79.17 20.22,78.6 20.01,78.03 L20,78.04 L16.29,67.29 Z" fill="url(#linearGradient-3)"></path>
                            <path d="M17.87,68.97 L203.16,175.95 C205.19,177.12 208.26,177.25 210.01,176.23 L320.58,112.39 C322.34,111.38 322.12,109.6 320.09,108.43 L134.8,1.47 C132.77,0.3 129.7,0.17 127.95,1.19 L17.38,65.03 C15.62,66.03 15.84,67.8 17.87,68.97 Z" fill="url(#linearGradient-4)"></path>
                            <path d="M259.04,152.81 L259.04,150.78 C259.04,150.59 258.92,150.5 258.78,150.58 L251.61,154.72 C251.47,154.8 251.35,155.03 251.35,155.22 L251.35,157.25 C251.35,157.44 251.47,157.53 251.61,157.45 L258.78,153.31 C258.93,153.23 259.04,153 259.04,152.81 Z" fill="#2859CB"></path>
                            <path d="M248.33,159 L248.33,156.97 C248.33,156.78 248.21,156.69 248.07,156.77 L240.9,160.91 C240.76,160.99 240.64,161.22 240.64,161.41 L240.64,163.44 C240.64,163.63 240.76,163.72 240.9,163.64 L248.07,159.5 C248.21,159.41 248.33,159.19 248.33,159 Z" fill="#2859CB"></path>
                            <path d="M291.75,106.42 L137.78,17.52 C136.75,16.93 135.49,16.93 134.46,17.52 L79.63,49.24 C78.84,49.7 78.84,50.83 79.63,51.29 L233.53,140.15 C234.56,140.74 235.82,140.74 236.84,140.15 L291.74,108.47 C292.54,108.01 292.54,106.87 291.75,106.42 Z" fill="#ADC8FF"></path>
                            <path d="M291.75,108.47 L291.2,108.79 L137.78,20.21 C136.75,19.62 135.49,19.62 134.46,20.21 L80.18,51.61 L79.63,51.29 C78.84,50.84 78.84,49.7 79.63,49.24 L134.46,17.52 C135.49,16.93 136.75,16.93 137.78,17.52 L291.75,106.42 C292.54,106.87 292.54,108.01 291.75,108.47 Z" fill="#91AFFF"></path>
                            <g transform="translate(87.000000, 22.000000)" fill="#242993">
                                <polygon points="43.32 3.56 177.07 80.78 183.01 77.34 49.27 0.12"></polygon>
                                <polygon points="28.74 11.98 154.19 84.4 160.14 80.97 34.69 8.54"></polygon>
                                <polygon points="19.24 17.46 166.95 102.73 172.9 99.3 25.19 14.02"></polygon>
                                <polygon points="9.75 22.94 157.45 108.22 163.4 104.78 15.7 19.51"></polygon>
                                <polygon points="0.25 28.42 147.96 113.7 153.9 110.27 6.2 24.99"></polygon>
                                <polygon points="185.15 85.44 191.1 88.88 197.04 85.44 191.1 82.01"></polygon>
                                <polygon points="164.17 90.17 176.52 97.29 182.46 93.86 170.12 86.73"></polygon>
                            </g>
                            <path d="M131.85,127.93 L90.33,103.96 C88.71,103.02 88.71,101.5 90.33,100.57 L118.72,84.18 C120.34,83.24 122.97,83.24 124.6,84.18 L166.12,108.15 C167.74,109.09 167.74,110.61 166.12,111.54 L137.73,127.93 C136.1,128.87 133.47,128.87 131.85,127.93 Z" fill="url(#linearGradient-5)"></path>
                            <path d="M166.11,109.54 L124.59,85.57 C122.97,84.63 120.34,84.63 118.71,85.57 L90.32,101.96 C89.82,102.25 89.49,102.6 89.3,102.96 C88.87,102.14 89.2,101.22 90.32,100.57 L118.71,84.18 C120.33,83.24 122.96,83.24 124.59,84.18 L166.11,108.15 C167.23,108.8 167.56,109.72 167.13,110.54 C166.94,110.17 166.61,109.82 166.11,109.54 Z" fill="#91AFFF"></path>
                        </g>
                    </g>
                    <g opacity="0.11" transform="translate(132.000000, 80.000000)">
                        <g>
                            <path d="M2.61,69.25 L187.9,176.22 C189.93,177.39 193,177.52 194.75,176.5 L305.32,112.66 C307.08,111.65 306.86,109.87 304.83,108.7 L119.54,1.74 C117.51,0.57 114.44,0.44 112.69,1.46 L2.12,65.3 C0.36,66.3 0.59,68.07 2.61,69.25 Z" fill="url(#linearGradient-6)"></path>
                            <path d="M188.45,88.42 L146.93,64.45 C145.31,63.51 145.31,61.99 146.93,61.06 L175.32,44.67 C176.94,43.73 179.57,43.73 181.2,44.67 L222.72,68.64 C224.34,69.58 224.34,71.1 222.72,72.03 L194.33,88.42 C192.71,89.36 190.07,89.36 188.45,88.42 Z" fill="url(#linearGradient-7)"></path>
                            <path d="M222.72,70.03 L181.2,46.06 C179.58,45.12 176.95,45.12 175.32,46.06 L146.93,62.45 C146.43,62.74 146.1,63.09 145.91,63.45 C145.48,62.63 145.81,61.71 146.93,61.06 L175.32,44.67 C176.94,43.73 179.57,43.73 181.2,44.67 L222.72,68.64 C223.84,69.29 224.17,70.21 223.74,71.03 C223.55,70.67 223.22,70.32 222.72,70.03 Z" fill="#91AFFF"></path>
                            <g transform="translate(28.000000, 36.000000)">
                                <path d="M212.97,89.88 L59,0.99 C57.97,0.4 56.71,0.4 55.68,0.99 L0.85,32.71 C0.06,33.17 0.06,34.3 0.85,34.76 L154.75,123.62 C155.78,124.21 157.04,124.21 158.06,123.62 L212.96,91.94 C213.76,91.48 213.76,90.34 212.97,89.88 Z" fill="#ADC8FF"></path>
                                <path d="M212.97,91.93 L212.42,92.25 L59,3.67 C57.97,3.08 56.71,3.08 55.68,3.67 L1.4,35.07 L0.85,34.75 C0.06,34.3 0.06,33.16 0.85,32.7 L55.68,0.98 C56.71,0.39 57.97,0.39 59,0.98 L212.97,89.88 C213.76,90.34 213.76,91.48 212.97,91.93 Z" fill="#91AFFF"></path>
                                <g transform="translate(9.000000, 7.000000)" fill="#242993">
                                    <polygon points="6.2 23.55 140.34 100.99 135.02 104.06 0.88 26.62"></polygon>
                                    <polygon points="20.33 15.39 147.83 89 142.51 92.07 15.02 18.46"></polygon>
                                    <polygon points="157.35 94.49 169.25 101.37 163.94 104.44 152.03 97.56"></polygon>
                                    <polygon points="146.83 104.74 155.12 109.53 149.81 112.6 141.52 107.81"></polygon>
                                    <polygon points="29.19 10.27 178.11 96.26 172.8 99.32 23.87 13.34"></polygon>
                                    <polygon points="38.04 5.16 186.97 91.14 181.65 94.21 32.73 8.23"></polygon>
                                    <polygon points="46.9 0.05 195.82 86.03 190.51 89.1 41.58 3.12"></polygon>
                                </g>
                            </g>
                        </g>
                    </g>
                </g>
                <polygon id="Path" fill="url(#radialGradient-8)" opacity="0.42" points="220.4 246.5 260.32 221.94 170.57 170.12 128.22 198.59"></polygon>
                <polygon id="Path" fill="url(#radialGradient-9)" opacity="0.42" points="260.32 221.94 269.46 164.18 185.24 115.87 185.24 178.48"></polygon>
                <g transform="translate(244.000000, 85.000000)" fill="#00A3FF" id="Path">
                    <polygon opacity="0.5" points="22.88 7.76 13.34 2.34 13.66 0.27 23.2 5.7"></polygon>
                    <polygon opacity="0.5" points="27.77 10.54 24.33 8.59 24.66 6.53 28.09 8.48"></polygon>
                    <polygon opacity="0.5" points="31.56 12.7 29.22 11.37 29.55 9.31 31.88 10.64"></polygon>
                    <polygon opacity="0.5" points="17.79 10.01 12.6 7.05 12.92 4.99 18.12 7.94"></polygon>
                    <polygon opacity="0.5" points="25.62 14.46 19.25 10.83 19.57 8.77 25.94 12.39"></polygon>
                    <polygon opacity="0.5" points="29.41 16.61 27.08 15.29 27.4 13.22 29.74 14.55"></polygon>
                    <polygon opacity="0.5" points="33.02 18.67 30.69 17.34 31.01 15.27 33.34 16.6"></polygon>
                    <polygon points="15.62 13.9 11.86 11.76 12.18 9.7 15.94 11.84"></polygon>
                    <polygon points="18.36 15.46 17.07 14.73 17.4 12.67 18.68 13.4"></polygon>
                    <polygon opacity="0.5" points="22.15 17.62 19.82 16.29 20.14 14.23 22.47 15.55"></polygon>
                    <polygon opacity="0.5" points="25 24.37 11.11 16.48 11.44 14.41 25.32 22.31"></polygon>
                    <polygon opacity="0.5" points="29.89 27.15 26.45 25.2 26.78 23.14 30.21 25.09"></polygon>
                    <polygon opacity="0.5" points="14.13 23.33 10.37 21.19 10.7 19.13 14.46 21.27"></polygon>
                    <polygon opacity="0.5" points="22.96 28.35 15.59 24.16 15.92 22.1 23.28 26.29"></polygon>
                    <polygon opacity="0.5" points="26.75 30.51 24.42 29.18 24.74 27.11 27.08 28.44"></polygon>
                    <polygon opacity="0.5" points="17.33 30.28 9.63 25.91 9.96 23.84 17.65 28.22"></polygon>
                    <polygon points="24.35 34.27 18.79 31.11 19.11 29.05 24.67 32.21"></polygon>
                    <polygon opacity="0.5" points="29.57 37.24 25.81 35.1 26.13 33.04 29.89 35.18"></polygon>
                    <polygon opacity="0.5" points="11.49 32.1 8.89 30.62 9.22 28.56 11.82 30.03"></polygon>
                    <polygon opacity="0.5" points="16.38 34.88 12.95 32.93 13.27 30.86 16.71 32.82"></polygon>
                    <polygon opacity="0.5" points="23.38 38.85 17.84 35.71 18.17 33.64 23.7 36.79"></polygon>
                    <polygon opacity="0.5" points="16.11 39.86 8.15 35.33 8.48 33.27 16.44 37.8"></polygon>
                    <polygon opacity="0.5" points="25.03 44.93 17.57 40.69 17.9 38.62 25.35 42.87"></polygon>
                    <polygon points="28.82 47.09 26.49 45.76 26.81 43.7 29.15 45.02"></polygon>
                    <polygon opacity="0.5" points="32.46 49.16 30.13 47.83 30.45 45.76 32.78 47.09"></polygon>
                    <polygon opacity="0.5" points="12.18 42.76 7.41 40.05 7.74 37.98 12.51 40.7"></polygon>
                    <polygon points="38.05 16.39 44.67 20.15 44.99 18.09 38.38 14.33"></polygon>
                    <polygon opacity="0.5" points="38.73 21.91 43.93 24.87 44.25 22.8 39.05 19.85"></polygon>
                    <polygon opacity="0.5" points="39.43 27.44 43.19 29.58 43.51 27.52 39.75 25.38"></polygon>
                    <polygon opacity="0.5" points="36.98 31.18 42.45 34.3 42.77 32.23 37.3 29.12"></polygon>
                    <polygon opacity="0.5" points="37.94 36.87 41.71 39.01 42.03 36.95 38.27 34.81"></polygon>
                    <polygon opacity="0.5" points="36.2 41.01 40.96 43.72 41.29 41.66 36.52 38.95"></polygon>
                    <polygon opacity="0.5" points="37.63 46.96 40.22 48.44 40.55 46.37 37.95 44.9"></polygon>
                    <polygon opacity="0.5" points="34.45 50.29 39.48 53.15 39.81 51.09 34.77 48.22"></polygon>
                    <polygon opacity="0.5" points="33.97 55.15 38.74 57.86 39.07 55.8 34.3 53.09"></polygon>
                    <polygon opacity="0.5" points="15.67 44.74 13.64 43.59 13.96 41.52 15.99 42.68"></polygon>
                    <polygon opacity="0.5" points="21.69 48.17 17.12 45.57 17.45 43.51 22.01 46.1"></polygon>
                    <polygon opacity="0.5" points="59.88 28.72 50.34 23.29 50.66 21.23 60.2 26.65"></polygon>
                    <polygon opacity="0.5" points="64.77 31.5 61.34 29.55 61.66 27.48 65.1 29.44"></polygon>
                    <polygon points="68.56 33.66 66.23 32.33 66.55 30.26 68.89 31.59"></polygon>
                    <polygon opacity="0.5" points="54.8 30.96 49.6 28.01 49.92 25.94 55.12 28.9"></polygon>
                    <polygon opacity="0.5" points="62.62 35.41 56.25 31.79 56.58 29.73 62.95 33.35"></polygon>
                    <polygon points="66.42 37.57 64.08 36.24 64.41 34.18 66.74 35.51"></polygon>
                    <polygon opacity="0.5" points="70.02 39.62 67.69 38.29 68.01 36.23 70.35 37.56"></polygon>
                    <polygon opacity="0.5" points="52.62 34.86 48.86 32.72 49.18 30.66 52.94 32.79"></polygon>
                    <polygon opacity="0.5" points="55.36 36.42 54.08 35.69 54.4 33.62 55.69 34.35"></polygon>
                    <polygon opacity="0.5" points="59.15 38.57 56.82 37.25 57.14 35.18 59.48 36.51"></polygon>
                    <polygon opacity="0.5" points="62 45.33 48.12 37.43 48.44 35.37 62.32 43.26"></polygon>
                    <polygon opacity="0.5" points="66.89 48.11 63.46 46.16 63.78 44.09 67.22 46.05"></polygon>
                    <polygon opacity="0.5" points="51.14 44.29 47.38 42.15 47.7 40.08 51.46 42.22"></polygon>
                    <polygon opacity="0.5" points="59.96 49.3 52.6 45.11 52.92 43.05 60.29 47.24"></polygon>
                    <polygon opacity="0.5" points="63.76 51.46 61.42 50.13 61.75 48.07 64.08 49.4"></polygon>
                    <polygon points="54.33 51.24 46.64 46.86 46.96 44.8 54.66 49.17"></polygon>
                    <polygon opacity="0.5" points="61.35 55.23 55.79 52.07 56.11 50 61.68 53.17"></polygon>
                    <polygon opacity="0.5" points="66.57 58.2 62.81 56.06 63.14 54 66.9 56.13"></polygon>
                    <polygon opacity="0.5" points="48.5 53.05 45.9 51.57 46.22 49.51 48.82 50.99"></polygon>
                    <polygon opacity="0.5" points="53.39 55.83 49.95 53.88 50.28 51.82 53.71 53.77"></polygon>
                    <polygon points="60.38 59.81 54.84 56.66 55.17 54.6 60.7 57.75"></polygon>
                    <polygon opacity="0.5" points="53.12 60.82 45.16 56.29 45.48 54.22 53.44 58.75"></polygon>
                    <polygon opacity="0.5" points="62.03 65.89 54.57 61.64 54.9 59.58 62.36 63.82"></polygon>
                    <polygon opacity="0.5" points="65.82 68.04 63.49 66.71 63.81 64.65 66.15 65.98"></polygon>
                    <polygon opacity="0.5" points="69.46 70.11 67.13 68.78 67.45 66.72 69.79 68.05"></polygon>
                    <polygon opacity="0.5" points="49.19 63.71 44.42 61 44.74 58.94 49.51 61.65"></polygon>
                    <polygon points="75.06 37.35 81.67 41.11 82 39.05 75.38 35.29"></polygon>
                    <polygon opacity="0.5" points="75.73 42.87 80.93 45.82 81.25 43.76 76.06 40.8"></polygon>
                    <polygon opacity="0.5" points="76.43 48.4 80.19 50.54 80.51 48.47 76.75 46.34"></polygon>
                    <polygon opacity="0.5" points="73.98 52.14 79.45 55.25 79.77 53.19 74.3 50.08"></polygon>
                    <polygon opacity="0.5" points="74.95 57.83 78.71 59.97 79.03 57.9 75.27 55.76"></polygon>
                    <polygon opacity="0.5" points="73.2 61.97 77.97 64.68 78.29 62.62 73.52 59.9"></polygon>
                    <polygon opacity="0.5" points="74.63 67.91 77.23 69.39 77.55 67.33 74.95 65.85"></polygon>
                    <polygon opacity="0.5" points="71.45 71.24 76.49 74.11 76.81 72.04 71.78 69.18"></polygon>
                    <polygon opacity="0.5" points="70.98 76.11 75.75 78.82 76.07 76.76 71.3 74.04"></polygon>
                    <polygon points="52.67 65.7 50.64 64.54 50.97 62.48 53 63.63"></polygon>
                    <polygon opacity="0.5" points="58.69 69.12 54.13 66.53 54.45 64.46 59.02 67.06"></polygon>
                    <polygon opacity="0.5" points="16.21 50.21 6.67 44.79 6.99 42.72 16.53 48.15"></polygon>
                    <polygon opacity="0.5" points="21.1 52.99 17.66 51.04 17.99 48.98 21.42 50.93"></polygon>
                    <polygon opacity="0.5" points="24.89 55.15 22.56 53.82 22.88 51.76 25.21 53.09"></polygon>
                    <polygon opacity="0.5" points="11.12 52.46 5.93 49.5 6.25 47.44 11.45 50.39"></polygon>
                    <polygon opacity="0.5" points="18.95 56.91 12.58 53.29 12.91 51.22 19.28 54.84"></polygon>
                    <polygon opacity="0.5" points="22.74 59.06 20.41 57.74 20.73 55.67 23.07 57"></polygon>
                    <polygon opacity="0.5" points="26.35 61.12 24.02 59.79 24.34 57.72 26.67 59.05"></polygon>
                    <polygon opacity="0.5" points="8.95 56.35 5.19 54.21 5.51 52.15 9.27 54.29"></polygon>
                    <polygon opacity="0.5" points="11.69 57.91 10.4 57.18 10.73 55.12 12.01 55.85"></polygon>
                    <polygon opacity="0.5" points="15.48 60.07 13.15 58.74 13.47 56.68 15.81 58.01"></polygon>
                    <polygon opacity="0.5" points="18.33 66.82 4.45 58.93 4.77 56.86 18.65 64.76"></polygon>
                    <polygon opacity="0.5" points="23.22 69.6 19.78 67.65 20.11 65.59 23.54 67.54"></polygon>
                    <polygon opacity="0.5" points="7.47 65.78 3.71 63.64 4.03 61.58 7.79 63.72"></polygon>
                    <polygon opacity="0.5" points="16.29 70.8 8.92 66.61 9.25 64.55 16.62 68.74"></polygon>
                    <polygon opacity="0.5" points="20.08 72.96 17.75 71.63 18.07 69.57 20.41 70.89"></polygon>
                    <polygon opacity="0.5" points="10.66 72.73 2.97 68.36 3.29 66.29 10.98 70.67"></polygon>
                    <polygon opacity="0.5" points="17.68 76.72 12.12 73.56 12.44 71.5 18.01 74.66"></polygon>
                    <polygon opacity="0.5" points="22.9 79.69 19.14 77.55 19.46 75.49 23.22 77.63"></polygon>
                    <polygon opacity="0.5" points="4.82 74.55 2.22 73.07 2.55 71.01 5.15 72.48"></polygon>
                    <polygon opacity="0.5" points="9.72 77.33 6.28 75.38 6.6 73.31 10.04 75.27"></polygon>
                    <polygon opacity="0.5" points="16.71 81.31 11.17 78.16 11.5 76.09 17.03 79.24"></polygon>
                    <polygon opacity="0.5" points="9.44 82.31 1.48 77.78 1.81 75.72 9.77 80.25"></polygon>
                    <polygon opacity="0.5" points="18.36 87.38 10.9 83.14 11.23 81.08 18.69 85.32"></polygon>
                    <polygon opacity="0.5" points="22.15 89.54 19.82 88.21 20.14 86.15 22.48 87.47"></polygon>
                    <polygon opacity="0.5" points="25.79 91.61 23.46 90.28 23.78 88.22 26.11 89.54"></polygon>
                    <polygon opacity="0.5" points="5.51 85.21 0.74 82.5 1.07 80.43 5.84 83.15"></polygon>
                    <polygon opacity="0.5" points="31.38 58.84 38 62.61 38.32 60.54 31.71 56.78"></polygon>
                    <polygon opacity="0.5" points="32.06 64.36 37.26 67.32 37.58 65.26 32.38 62.3"></polygon>
                    <polygon opacity="0.5" points="32.76 69.89 36.52 72.03 36.84 69.97 33.08 67.83"></polygon>
                    <polygon opacity="0.5" points="30.31 73.64 35.78 76.75 36.1 74.68 30.63 71.57"></polygon>
                    <polygon opacity="0.5" points="31.28 79.32 35.04 81.46 35.36 79.4 31.6 77.26"></polygon>
                    <polygon opacity="0.5" points="29.53 83.46 34.3 86.17 34.62 84.11 29.85 81.4"></polygon>
                    <polygon opacity="0.5" points="30.96 89.41 33.56 90.89 33.88 88.82 31.28 87.35"></polygon>
                    <polygon opacity="0.5" points="27.78 92.74 32.82 95.6 33.14 93.54 28.1 90.67"></polygon>
                    <polygon opacity="0.5" points="27.31 97.6 32.07 100.31 32.4 98.25 27.63 95.54"></polygon>
                    <polygon opacity="0.5" points="9 87.19 6.97 86.04 7.29 83.97 9.32 85.13"></polygon>
                    <polygon opacity="0.5" points="15.02 90.62 10.46 88.02 10.78 85.96 15.35 88.55"></polygon>
                    <polygon opacity="0.5" points="16.65 106.47 8.94 102.09 9.26 100.03 16.97 104.41"></polygon>
                    <polygon opacity="0.5" points="21.92 109.47 18.89 107.75 19.21 105.68 22.25 107.41"></polygon>
                    <polygon opacity="0.5" points="53.21 71.17 43.67 65.74 44 63.68 53.53 69.1"></polygon>
                    <polygon opacity="0.5" points="58.1 73.95 54.67 72 54.99 69.93 58.43 71.89"></polygon>
                    <polygon opacity="0.5" points="61.89 76.11 59.56 74.78 59.88 72.72 62.22 74.04"></polygon>
                    <polygon opacity="0.5" points="48.13 73.41 42.93 70.46 43.25 68.39 48.45 71.35"></polygon>
                    <polygon opacity="0.5" points="55.96 77.86 49.59 74.24 49.91 72.18 56.28 75.8"></polygon>
                    <polygon opacity="0.5" points="59.75 80.02 57.41 78.69 57.74 76.63 60.07 77.96"></polygon>
                    <polygon opacity="0.5" points="63.35 82.07 61.02 80.74 61.34 78.68 63.68 80.01"></polygon>
                    <polygon opacity="0.5" points="45.95 77.31 42.19 75.17 42.51 73.11 46.27 75.25"></polygon>
                    <polygon opacity="0.5" points="48.69 78.87 47.41 78.14 47.73 76.07 49.02 76.81"></polygon>
                    <polygon opacity="0.5" points="52.48 81.02 50.15 79.7 50.48 77.63 52.81 78.96"></polygon>
                    <polygon opacity="0.5" points="55.33 87.78 41.45 79.88 41.77 77.82 55.65 85.71"></polygon>
                    <polygon opacity="0.5" points="60.22 90.56 56.79 88.61 57.11 86.54 60.55 88.5"></polygon>
                    <polygon opacity="0.5" points="44.47 86.74 40.71 84.6 41.03 82.53 44.79 84.67"></polygon>
                    <polygon opacity="0.5" points="53.3 91.76 45.93 87.57 46.25 85.5 53.62 89.69"></polygon>
                    <polygon opacity="0.5" points="57.09 93.91 54.75 92.58 55.08 90.52 57.41 91.85"></polygon>
                    <polygon opacity="0.5" points="47.66 93.69 39.97 89.31 40.29 87.25 47.99 91.62"></polygon>
                    <polygon opacity="0.5" points="54.69 97.68 49.12 94.52 49.44 92.45 55.01 95.62"></polygon>
                    <polygon opacity="0.5" points="59.9 100.65 56.14 98.51 56.47 96.45 60.23 98.58"></polygon>
                    <polygon opacity="0.5" points="41.83 95.5 39.23 94.03 39.55 91.96 42.15 93.44"></polygon>
                    <polygon opacity="0.5" points="46.72 98.29 43.28 96.33 43.61 94.27 47.04 96.22"></polygon>
                    <polygon opacity="0.5" points="53.71 102.26 48.18 99.11 48.5 97.05 54.03 100.2"></polygon>
                    <polygon opacity="0.5" points="46.45 103.27 38.49 98.74 38.81 96.68 46.77 101.2"></polygon>
                    <polygon opacity="0.5" points="55.36 108.34 47.91 104.09 48.23 102.03 55.69 106.27"></polygon>
                    <polygon opacity="0.5" points="59.16 110.49 56.82 109.17 57.15 107.1 59.48 108.43"></polygon>
                    <polygon opacity="0.5" points="62.79 112.56 60.46 111.23 60.78 109.17 63.12 110.5"></polygon>
                    <polygon opacity="0.5" points="42.52 106.16 37.75 103.45 38.07 101.39 42.84 104.1"></polygon>
                    <polygon opacity="0.5" points="68.39 79.8 75 83.56 75.33 81.5 68.71 77.74"></polygon>
                    <polygon opacity="0.5" points="69.06 85.32 74.26 88.27 74.59 86.21 69.39 83.26"></polygon>
                    <polygon opacity="0.5" points="69.76 90.85 73.52 92.99 73.85 90.92 70.08 88.79"></polygon>
                    <polygon opacity="0.5" points="67.31 94.59 72.78 97.7 73.1 95.64 67.63 92.53"></polygon>
                    <polygon opacity="0.5" points="68.28 100.28 72.04 102.42 72.36 100.35 68.6 98.21"></polygon>
                    <polygon opacity="0.5" points="66.53 104.42 71.3 107.13 71.62 105.07 66.85 102.35"></polygon>
                    <polygon opacity="0.5" points="67.96 110.37 70.56 111.84 70.88 109.78 68.28 108.3"></polygon>
                    <polygon opacity="0.5" points="64.78 113.69 69.82 116.56 70.14 114.49 65.11 111.63"></polygon>
                    <polygon opacity="0.5" points="64.31 118.56 69.08 121.27 69.4 119.21 64.63 116.49"></polygon>
                    <polygon opacity="0.5" points="46 108.15 43.97 106.99 44.3 104.93 46.33 106.08"></polygon>
                    <polygon opacity="0.5" points="52.03 111.57 47.46 108.98 47.78 106.91 52.35 109.51"></polygon>
                    <polygon opacity="0.5" points="53.65 127.43 45.94 123.05 46.27 120.98 53.97 125.36"></polygon>
                    <polygon opacity="0.5" points="58.93 130.43 55.89 128.7 56.22 126.64 59.25 128.37"></polygon>
                </g>
                <g transform="translate(155.000000, 34.000000)" fill="#00A3FF" id="Path">
                    <polygon opacity="0.5" points="22.94 7.74 13.41 2.31 13.73 0.25 23.27 5.68"></polygon>
                    <polygon opacity="0.5" points="27.84 10.52 24.4 8.57 24.73 6.51 28.16 8.46"></polygon>
                    <polygon opacity="0.5" points="31.63 12.68 29.29 11.35 29.62 9.29 31.95 10.61"></polygon>
                    <polygon opacity="0.5" points="17.86 9.98 12.66 7.03 12.99 4.97 18.19 7.92"></polygon>
                    <polygon opacity="0.5" points="25.69 14.44 19.32 10.81 19.64 8.75 26.01 12.37"></polygon>
                    <polygon opacity="0.5" points="29.48 16.59 27.15 15.26 27.47 13.2 29.8 14.53"></polygon>
                    <polygon opacity="0.5" points="33.09 18.64 30.75 17.32 31.08 15.25 33.41 16.58"></polygon>
                    <polygon points="15.68 13.88 11.92 11.74 12.25 9.68 16.01 11.82"></polygon>
                    <polygon points="18.43 15.44 17.14 14.71 17.47 12.65 18.75 13.38"></polygon>
                    <polygon opacity="0.5" points="22.22 17.6 19.88 16.27 20.21 14.21 22.54 15.53"></polygon>
                    <polygon opacity="0.5" points="25.06 24.35 11.18 16.46 11.51 14.39 25.39 22.29"></polygon>
                    <polygon opacity="0.5" points="29.96 27.13 26.52 25.18 26.85 23.12 30.28 25.07"></polygon>
                    <polygon opacity="0.5" points="14.2 23.31 10.44 21.17 10.77 19.11 14.53 21.24"></polygon>
                    <polygon opacity="0.5" points="23.03 28.33 15.66 24.14 15.99 22.07 23.35 26.26"></polygon>
                    <polygon opacity="0.5" points="26.82 30.48 24.49 29.16 24.81 27.09 27.15 28.42"></polygon>
                    <polygon opacity="0.5" points="17.4 30.26 9.7 25.88 10.03 23.82 17.72 28.2"></polygon>
                    <polygon points="24.42 34.25 18.85 31.09 19.18 29.02 24.74 32.19"></polygon>
                    <polygon opacity="0.5" points="29.64 37.22 25.88 35.08 26.2 33.02 29.96 35.16"></polygon>
                    <polygon opacity="0.5" points="11.56 32.07 8.96 30.6 9.29 28.53 11.89 30.01"></polygon>
                    <polygon opacity="0.5" points="16.45 34.86 13.02 32.9 13.34 30.84 16.78 32.79"></polygon>
                    <polygon opacity="0.5" points="23.44 38.83 17.91 35.69 18.23 33.62 23.77 36.77"></polygon>
                    <polygon opacity="0.5" points="16.18 39.84 8.22 35.31 8.55 33.25 16.51 37.77"></polygon>
                    <polygon opacity="0.5" points="25.1 44.91 17.64 40.67 17.96 38.6 25.42 42.85"></polygon>
                    <polygon points="28.89 47.06 26.56 45.74 26.88 43.67 29.21 45"></polygon>
                    <polygon opacity="0.5" points="32.53 49.13 30.19 47.81 30.52 45.74 32.85 47.07"></polygon>
                    <polygon opacity="0.5" points="12.25 42.74 7.48 40.02 7.81 37.96 12.58 40.67"></polygon>
                    <polygon points="38.12 16.37 44.74 20.13 45.06 18.07 38.45 14.31"></polygon>
                    <polygon opacity="0.5" points="38.8 21.89 44 24.85 44.32 22.78 39.12 19.83"></polygon>
                    <polygon opacity="0.5" points="39.49 27.42 43.26 29.56 43.58 27.5 39.82 25.36"></polygon>
                    <polygon opacity="0.5" points="37.04 31.16 42.51 34.27 42.84 32.21 37.37 29.1"></polygon>
                    <polygon opacity="0.5" points="38.01 36.85 41.77 38.99 42.1 36.92 38.34 34.79"></polygon>
                    <polygon opacity="0.5" points="36.26 40.99 41.03 43.7 41.36 41.64 36.59 38.93"></polygon>
                    <polygon opacity="0.5" points="37.69 46.94 40.29 48.41 40.62 46.35 38.02 44.87"></polygon>
                    <polygon opacity="0.5" points="34.52 50.26 39.55 53.13 39.88 51.07 34.84 48.2"></polygon>
                    <polygon opacity="0.5" points="34.04 55.13 38.81 57.84 39.14 55.78 34.37 53.07"></polygon>
                    <polygon opacity="0.5" points="15.74 44.72 13.71 43.57 14.03 41.5 16.06 42.66"></polygon>
                    <polygon opacity="0.5" points="21.76 48.14 17.19 45.55 17.52 43.48 22.08 46.08"></polygon>
                    <polygon opacity="0.5" points="59.95 28.7 50.41 23.27 50.73 21.21 60.27 26.63"></polygon>
                    <polygon opacity="0.5" points="64.84 31.48 61.41 29.52 61.73 27.46 65.16 29.41"></polygon>
                    <polygon points="68.63 33.63 66.3 32.31 66.62 30.24 68.96 31.57"></polygon>
                    <polygon opacity="0.5" points="54.87 30.94 49.67 27.98 49.99 25.92 55.19 28.88"></polygon>
                    <polygon opacity="0.5" points="62.69 35.39 56.32 31.77 56.65 29.71 63.02 33.33"></polygon>
                    <polygon points="66.48 37.55 64.15 36.22 64.47 34.16 66.81 35.48"></polygon>
                    <polygon opacity="0.5" points="70.09 39.6 67.76 38.27 68.08 36.21 70.42 37.54"></polygon>
                    <polygon opacity="0.5" points="52.69 34.84 48.93 32.7 49.25 30.63 53.01 32.77"></polygon>
                    <polygon opacity="0.5" points="55.43 36.4 54.15 35.67 54.47 33.6 55.76 34.33"></polygon>
                    <polygon opacity="0.5" points="59.22 38.55 56.89 37.23 57.21 35.16 59.55 36.49"></polygon>
                    <polygon opacity="0.5" points="62.07 45.31 48.19 37.41 48.51 35.35 62.39 43.24"></polygon>
                    <polygon opacity="0.5" points="66.96 48.09 63.53 46.13 63.85 44.07 67.28 46.02"></polygon>
                    <polygon opacity="0.5" points="51.21 44.26 47.45 42.13 47.77 40.06 51.53 42.2"></polygon>
                    <polygon opacity="0.5" points="60.03 49.28 52.66 45.09 52.99 43.03 60.36 47.22"></polygon>
                    <polygon opacity="0.5" points="63.82 51.44 61.49 50.11 61.81 48.05 64.15 49.38"></polygon>
                    <polygon points="54.4 51.22 46.71 46.84 47.03 44.78 54.73 49.15"></polygon>
                    <polygon opacity="0.5" points="61.42 55.21 55.86 52.04 56.18 49.98 61.75 53.14"></polygon>
                    <polygon opacity="0.5" points="66.64 58.18 62.88 56.04 63.2 53.97 66.96 56.11"></polygon>
                    <polygon opacity="0.5" points="48.56 53.03 45.97 51.55 46.29 49.49 48.89 50.97"></polygon>
                    <polygon opacity="0.5" points="53.46 55.81 50.02 53.86 50.35 51.8 53.78 53.75"></polygon>
                    <polygon points="60.45 59.79 54.91 56.64 55.24 54.58 60.77 57.73"></polygon>
                    <polygon opacity="0.5" points="53.19 60.79 45.23 56.27 45.55 54.2 53.51 58.73"></polygon>
                    <polygon opacity="0.5" points="62.1 65.86 54.64 61.62 54.97 59.56 62.43 63.8"></polygon>
                    <polygon opacity="0.5" points="65.89 68.02 63.56 66.69 63.88 64.63 66.22 65.96"></polygon>
                    <polygon opacity="0.5" points="69.53 70.09 67.2 68.76 67.52 66.7 69.86 68.03"></polygon>
                    <polygon opacity="0.5" points="49.25 63.69 44.48 60.98 44.81 58.92 49.58 61.63"></polygon>
                    <polygon points="75.13 37.33 81.74 41.09 82.06 39.03 75.45 35.26"></polygon>
                    <polygon opacity="0.5" points="75.8 42.85 81 45.8 81.32 43.74 76.13 40.78"></polygon>
                    <polygon opacity="0.5" points="76.5 48.38 80.26 50.52 80.58 48.45 76.82 46.31"></polygon>
                    <polygon opacity="0.5" points="74.05 52.12 79.52 55.23 79.84 53.17 74.37 50.06"></polygon>
                    <polygon opacity="0.5" points="75.02 57.8 78.78 59.94 79.1 57.88 75.34 55.74"></polygon>
                    <polygon opacity="0.5" points="73.27 61.94 78.04 64.66 78.36 62.59 73.59 59.88"></polygon>
                    <polygon opacity="0.5" points="74.7 67.89 77.3 69.37 77.62 67.31 75.02 65.83"></polygon>
                    <polygon opacity="0.5" points="71.52 71.22 76.56 74.08 76.88 72.02 71.84 69.16"></polygon>
                    <polygon opacity="0.5" points="71.05 76.09 75.82 78.8 76.14 76.73 71.37 74.02"></polygon>
                    <polygon points="52.74 65.67 50.71 64.52 51.04 62.46 53.06 63.61"></polygon>
                    <polygon opacity="0.5" points="58.76 69.1 54.2 66.5 54.52 64.44 59.09 67.04"></polygon>
                    <polygon opacity="0.5" points="16.28 50.19 6.74 44.77 7.06 42.7 16.6 48.13"></polygon>
                    <polygon opacity="0.5" points="21.17 52.97 17.73 51.02 18.06 48.96 21.49 50.91"></polygon>
                    <polygon opacity="0.5" points="24.96 55.13 22.62 53.8 22.95 51.74 25.28 53.06"></polygon>
                    <polygon opacity="0.5" points="11.19 52.44 6 49.48 6.32 47.42 11.52 50.37"></polygon>
                    <polygon opacity="0.5" points="19.02 56.89 12.65 53.26 12.98 51.2 19.34 54.82"></polygon>
                    <polygon opacity="0.5" points="22.81 59.04 20.48 57.72 20.8 55.65 23.14 56.98"></polygon>
                    <polygon opacity="0.5" points="26.42 61.09 24.09 59.77 24.41 57.7 26.74 59.03"></polygon>
                    <polygon opacity="0.5" points="9.02 56.33 5.26 54.19 5.58 52.13 9.34 54.27"></polygon>
                    <polygon opacity="0.5" points="11.76 57.89 10.47 57.16 10.8 55.1 12.08 55.83"></polygon>
                    <polygon opacity="0.5" points="15.55 60.05 13.22 58.72 13.54 56.66 15.87 57.98"></polygon>
                    <polygon opacity="0.5" points="18.4 66.8 4.52 58.91 4.84 56.84 18.72 64.74"></polygon>
                    <polygon opacity="0.5" points="23.29 69.58 19.85 67.63 20.18 65.57 23.61 67.52"></polygon>
                    <polygon opacity="0.5" points="7.54 65.76 3.77 63.62 4.1 61.56 7.86 63.7"></polygon>
                    <polygon opacity="0.5" points="16.36 70.78 8.99 66.59 9.32 64.52 16.69 68.71"></polygon>
                    <polygon opacity="0.5" points="20.15 72.93 17.82 71.61 18.14 69.54 20.48 70.87"></polygon>
                    <polygon opacity="0.5" points="10.73 72.71 3.03 68.33 3.36 66.27 11.05 70.65"></polygon>
                    <polygon opacity="0.5" points="17.75 76.7 12.19 73.54 12.51 71.48 18.07 74.64"></polygon>
                    <polygon opacity="0.5" points="22.97 79.67 19.21 77.53 19.53 75.47 23.29 77.61"></polygon>
                    <polygon opacity="0.5" points="4.89 74.53 2.29 73.05 2.62 70.98 5.22 72.46"></polygon>
                    <polygon opacity="0.5" points="9.78 77.31 6.35 75.35 6.67 73.29 10.11 75.24"></polygon>
                    <polygon opacity="0.5" points="16.78 81.28 11.24 78.14 11.57 76.07 17.1 79.22"></polygon>
                    <polygon opacity="0.5" points="9.51 82.29 1.55 77.76 1.88 75.7 9.84 80.23"></polygon>
                    <polygon opacity="0.5" points="18.43 87.36 10.97 83.12 11.3 81.05 18.75 85.3"></polygon>
                    <polygon opacity="0.5" points="22.22 89.52 19.89 88.19 20.21 86.12 22.55 87.45"></polygon>
                    <polygon opacity="0.5" points="25.86 91.58 23.53 90.26 23.85 88.19 26.18 89.52"></polygon>
                    <polygon opacity="0.5" points="5.58 85.19 0.81 82.48 1.14 80.41 5.91 83.12"></polygon>
                    <polygon opacity="0.5" points="31.45 58.82 38.07 62.58 38.39 60.52 31.78 56.76"></polygon>
                    <polygon opacity="0.5" points="32.13 64.34 37.33 67.3 37.65 65.23 32.45 62.28"></polygon>
                    <polygon opacity="0.5" points="32.83 69.87 36.59 72.01 36.91 69.95 33.15 67.81"></polygon>
                    <polygon opacity="0.5" points="30.38 73.61 35.85 76.72 36.17 74.66 30.7 71.55"></polygon>
                    <polygon opacity="0.5" points="31.35 79.3 35.11 81.44 35.43 79.37 31.67 77.24"></polygon>
                    <polygon opacity="0.5" points="29.6 83.44 34.37 86.15 34.69 84.09 29.92 81.38"></polygon>
                    <polygon opacity="0.5" points="31.03 89.39 33.62 90.87 33.95 88.8 31.35 87.32"></polygon>
                    <polygon opacity="0.5" points="27.85 92.72 32.88 95.58 33.21 93.52 28.17 90.65"></polygon>
                    <polygon opacity="0.5" points="27.37 97.58 32.14 100.29 32.47 98.23 27.7 95.52"></polygon>
                    <polygon opacity="0.5" points="9.07 87.17 7.04 86.02 7.36 83.95 9.39 85.11"></polygon>
                    <polygon opacity="0.5" points="15.09 90.59 10.52 88 10.85 85.93 15.41 88.53"></polygon>
                    <polygon opacity="0.5" points="16.71 106.45 9.01 102.07 9.33 100.01 17.04 104.39"></polygon>
                    <polygon opacity="0.5" points="21.99 109.45 18.96 107.73 19.28 105.66 22.32 107.39"></polygon>
                    <polygon opacity="0.5" points="53.28 71.15 43.74 65.72 44.06 63.66 53.6 69.08"></polygon>
                    <polygon opacity="0.5" points="58.17 73.93 54.74 71.98 55.06 69.91 58.5 71.86"></polygon>
                    <polygon opacity="0.5" points="61.96 76.08 59.63 74.76 59.95 72.69 62.29 74.02"></polygon>
                    <polygon opacity="0.5" points="48.2 73.39 43 70.44 43.32 68.37 48.52 71.33"></polygon>
                    <polygon opacity="0.5" points="56.02 77.84 49.65 74.22 49.98 72.16 56.35 75.78"></polygon>
                    <polygon opacity="0.5" points="59.82 80 57.48 78.67 57.81 76.61 60.14 77.93"></polygon>
                    <polygon opacity="0.5" points="63.42 82.05 61.09 80.72 61.41 78.66 63.75 79.99"></polygon>
                    <polygon opacity="0.5" points="46.02 77.29 42.26 75.15 42.58 73.09 46.34 75.22"></polygon>
                    <polygon opacity="0.5" points="48.76 78.85 47.48 78.12 47.8 76.05 49.09 76.78"></polygon>
                    <polygon opacity="0.5" points="52.55 81 50.22 79.68 50.54 77.61 52.88 78.94"></polygon>
                    <polygon opacity="0.5" points="55.4 87.76 41.52 79.86 41.84 77.8 55.72 85.69"></polygon>
                    <polygon opacity="0.5" points="60.29 90.54 56.86 88.59 57.18 86.52 60.62 88.47"></polygon>
                    <polygon opacity="0.5" points="44.54 86.71 40.78 84.58 41.1 82.51 44.86 84.65"></polygon>
                    <polygon opacity="0.5" points="53.36 91.73 46 87.54 46.32 85.48 53.69 89.67"></polygon>
                    <polygon opacity="0.5" points="57.16 93.89 54.82 92.56 55.15 90.5 57.48 91.83"></polygon>
                    <polygon opacity="0.5" points="47.73 93.67 40.04 89.29 40.36 87.23 48.06 91.6"></polygon>
                    <polygon opacity="0.5" points="54.75 97.66 49.19 94.49 49.51 92.43 55.08 95.6"></polygon>
                    <polygon opacity="0.5" points="59.97 100.63 56.21 98.49 56.54 96.42 60.3 98.56"></polygon>
                    <polygon opacity="0.5" points="41.9 95.48 39.3 94 39.62 91.94 42.22 93.42"></polygon>
                    <polygon opacity="0.5" points="46.79 98.26 43.35 96.31 43.68 94.25 47.11 96.2"></polygon>
                    <polygon opacity="0.5" points="53.78 102.24 48.25 99.09 48.57 97.03 54.1 100.18"></polygon>
                    <polygon opacity="0.5" points="46.52 103.24 38.56 98.72 38.88 96.65 46.84 101.18"></polygon>
                    <polygon opacity="0.5" points="55.43 108.32 47.97 104.07 48.3 102.01 55.76 106.25"></polygon>
                    <polygon opacity="0.5" points="59.22 110.47 56.89 109.14 57.22 107.08 59.55 108.41"></polygon>
                    <polygon opacity="0.5" points="62.86 112.54 60.53 111.21 60.85 109.15 63.19 110.48"></polygon>
                    <polygon opacity="0.5" points="42.59 106.14 37.82 103.43 38.14 101.37 42.91 104.08"></polygon>
                    <polygon opacity="0.5" points="68.46 79.78 75.07 83.54 75.4 81.48 68.78 77.71"></polygon>
                    <polygon opacity="0.5" points="69.13 85.3 74.33 88.25 74.65 86.19 69.46 83.23"></polygon>
                    <polygon opacity="0.5" points="69.83 90.83 73.59 92.97 73.91 90.9 70.15 88.76"></polygon>
                    <polygon opacity="0.5" points="67.38 94.57 72.85 97.68 73.17 95.62 67.7 92.51"></polygon>
                    <polygon opacity="0.5" points="68.35 100.26 72.11 102.39 72.43 100.33 68.67 98.19"></polygon>
                    <polygon opacity="0.5" points="66.6 104.4 71.37 107.11 71.69 105.04 66.92 102.33"></polygon>
                    <polygon opacity="0.5" points="68.03 110.34 70.63 111.82 70.95 109.76 68.35 108.28"></polygon>
                    <polygon opacity="0.5" points="64.85 113.67 69.89 116.54 70.21 114.47 65.18 111.61"></polygon>
                    <polygon opacity="0.5" points="64.38 118.54 69.15 121.25 69.47 119.19 64.7 116.47"></polygon>
                    <polygon opacity="0.5" points="46.07 108.13 44.04 106.97 44.37 104.91 46.4 106.06"></polygon>
                    <polygon opacity="0.5" points="52.09 111.55 47.53 108.95 47.85 106.89 52.42 109.49"></polygon>
                    <polygon opacity="0.5" points="53.72 127.41 46.01 123.03 46.34 120.96 54.04 125.34"></polygon>
                    <polygon opacity="0.5" points="58.99 130.41 55.96 128.68 56.28 126.62 59.32 128.34"></polygon>
                </g>
                <g transform="translate(33.000000, 82.000000)" id="Path">
                    <g transform="translate(143.000000, 0.000000)">
                        <path d="M0.43,5.81 L9.34,0.68 L9.34,0.69 C9.46,0.61 9.61,0.61 9.78,0.71 L121.42,65.17 C121.78,65.38 122.08,65.94 122.08,66.43 L122.08,87.51 C122.08,87.74 122.01,87.91 121.9,88.01 L121.9,88.01 L121.89,88.01 C121.88,88.02 121.87,88.02 121.86,88.03 L112.86,93.21 L112.79,83.03 L9.77,23.55 C9.41,23.34 9.11,22.78 9.11,22.29 L9.11,15.06 L0.43,5.81 Z" fill="url(#linearGradient-10)"></path>
                        <path d="M0.83,28.7 L112.47,93.16 C112.83,93.37 113.13,93.15 113.13,92.66 L113.13,71.58 C113.13,71.09 112.83,70.53 112.47,70.32 L0.83,5.86 C0.47,5.65 0.17,5.87 0.17,6.36 L0.17,27.44 C0.17,27.92 0.47,28.49 0.83,28.7 Z" fill="url(#linearGradient-11)"></path>
                        <path d="M16.23,24.43 L103.16,75.54 C100.47,77.85 97.93,80.5 95.59,83.41 L8.02,32.85 C10.54,29.71 13.3,26.87 16.23,24.43 Z" fill="#242993" opacity="0.6"></path>
                        <path d="M4.01,22.37 L109.28,83.15 C109.53,83.29 109.73,83.14 109.73,82.81 L109.73,77.52 C109.73,77.19 109.53,76.8 109.28,76.66 L4.01,15.88 C3.76,15.74 3.56,15.89 3.56,16.22 L3.56,21.51 C3.56,21.84 3.77,22.22 4.01,22.37 Z" fill="#242993"></path>
                        <path d="M4.01,15.87 L6.15,17.11 L6.15,19.97 C6.15,20.3 6.35,20.69 6.6,20.83 L109.73,80.37 L109.73,82.81 C109.73,83.14 109.53,83.29 109.28,83.15 L4.01,22.37 C3.76,22.23 3.56,21.84 3.56,21.51 L3.56,16.22 C3.56,15.88 3.77,15.73 4.01,15.87 Z" fill="#4553C7"></path>
                    </g>
                    <path d="M87.88,260.41 L0.3,209.85 L0.3,209.85 C11.6,203.33 21.12,189.05 24.03,175.4 C25.21,169.87 28.6,165.06 33.49,162.23 L99.67,124.03 C118.1,113.39 130.05,94.23 131.3,72.98 C132.36,55.04 145.92,37.4 156.45,31.32 L156.45,31.32 L244.03,81.88 L244.03,81.88 C233.66,87.87 222.24,104.6 220.94,122.24 C219.37,143.49 207.82,162.71 189.37,173.37 L121.07,212.8 C116.17,215.63 112.78,220.43 111.61,225.97 C108.7,239.61 99.17,253.89 87.88,260.41 L87.88,260.41 Z" fill="url(#linearGradient-12)" opacity="0.96"></path>
                    <path d="M156.45,21.32 L244.03,71.88 C243.33,72.29 242.63,72.73 241.94,73.18 L241.93,73.17 L154.36,22.61 C155.06,22.16 155.75,21.72 156.45,21.32 Z" fill="#4553C7" opacity="0.8"></path>
                </g>
                <g opacity="0.32" transform="translate(178.000000, 138.000000)" fill="#4553C7" id="Path">
                    <polygon points="44.38 25.12 59.74 34.03 59.87 32.25 44.54 23.39"></polygon>
                    <polygon points="36.64 20.64 42.07 23.78 42.22 22.05 36.81 18.92"></polygon>
                    <polygon points="30.7 17.19 34.35 19.31 34.52 17.6 30.88 15.49"></polygon>
                    <polygon points="51.01 33.18 59.46 38.1 59.58 36.31 51.15 31.41"></polygon>
                    <polygon points="38.49 25.88 48.66 31.81 48.81 30.05 38.65 24.14"></polygon>
                    <polygon points="32.51 22.39 36.18 24.54 36.35 22.8 32.68 20.67"></polygon>
                    <polygon points="26.86 19.1 30.51 21.23 30.68 19.51 27.05 17.4"></polygon>
                    <polygon points="53.02 38.6 59.17 42.2 59.3 40.4 53.16 36.81"></polygon>
                    <polygon points="48.58 36 50.66 37.21 50.8 35.43 48.72 34.22"></polygon>
                    <polygon points="42.48 32.42 46.23 34.62 46.37 32.85 42.63 30.66"></polygon>
                    <polygon points="36.38 33.09 58.88 46.34 59.01 44.52 36.55 31.33"></polygon>
                    <polygon points="28.62 28.52 34.06 31.72 34.23 29.97 28.8 26.78"></polygon>
                    <polygon points="52.39 46.85 58.59 50.52 58.71 48.68 52.53 45.03"></polygon>
                    <polygon points="38.07 38.37 50.01 45.44 50.15 43.62 38.23 36.59"></polygon>
                    <polygon points="32.01 34.78 35.73 36.99 35.9 35.21 32.19 33.01"></polygon>
                    <polygon points="45.62 47.19 58.29 54.73 58.42 52.88 45.78 45.37"></polygon>
                    <polygon points="34.27 40.43 43.25 45.77 43.41 43.96 34.44 38.64"></polygon>
                    <polygon points="25.95 35.48 31.93 39.04 32.11 37.25 26.14 33.71"></polygon>
                    <polygon points="53.67 56.39 57.99 58.98 58.12 57.11 53.81 54.54"></polygon>
                    <polygon points="45.61 51.56 51.26 54.94 51.4 53.1 45.76 49.73"></polygon>
                    <polygon points="34.25 44.76 43.22 50.14 43.38 48.31 34.42 42.96"></polygon>
                    <polygon points="44.48 55.31 57.69 63.26 57.82 61.38 44.64 53.46"></polygon>
                    <polygon points="29.99 46.59 42.09 53.87 42.25 52.03 30.17 44.78"></polygon>
                    <polygon points="23.92 42.94 27.65 45.18 27.84 43.38 24.11 41.14"></polygon>
                    <polygon points="18.15 39.46 21.85 41.69 22.04 39.9 18.35 37.68"></polygon>
                    <polygon points="49.41 62.76 57.39 67.58 57.52 65.69 49.56 60.88"></polygon>
                    <polygon points="14.27 7.67 4.28 1.88 4.5 0.24 14.47 6"></polygon>
                    <polygon points="11.65 10.24 3.78 5.65 4 4 11.85 8.56"></polygon>
                    <polygon points="8.98 12.8 3.28 9.46 3.5 7.79 9.19 11.12"></polygon>
                    <polygon points="11.11 18.21 2.77 13.3 2.99 11.61 11.32 16.51"></polygon>
                    <polygon points="8 20.57 2.26 17.16 2.48 15.47 8.22 18.85"></polygon>
                    <polygon points="9.07 25.42 1.74 21.06 1.97 19.35 9.28 23.69"></polygon>
                    <polygon points="5.22 27.39 1.22 24.99 1.45 23.27 5.44 25.65"></polygon>
                    <polygon points="8.49 33.65 0.7 28.96 0.93 27.22 8.71 31.89"></polygon>
                    <polygon points="7.58 37.44 0.17 32.96 0.4 31.2 7.8 35.67"></polygon>
                    <polygon points="43.64 59.26 46.99 61.29 47.14 59.42 43.8 57.4"></polygon>
                    <polygon points="33.78 53.3 41.24 57.81 41.4 55.96 33.96 51.46"></polygon>
                </g>
                <g opacity="0.32" transform="translate(105.000000, 206.000000)" fill="#4553C7" id="Path">
                    <g transform="translate(27.000000, 0.000000)">
                        <g transform="translate(11.000000, 0.000000)">
                            <polygon points="22.83 15.11 0 1.93 1.63 0.99 24.46 14.17"></polygon>
                            <polygon points="36.11 22.78 27.87 18.02 29.5 17.08 37.74 21.84"></polygon>
                            <polygon points="42.72 26.6 40.31 25.2 41.94 24.26 44.35 25.65"></polygon>
                            <polygon points="55.16 33.78 46.92 29.02 48.55 28.08 56.79 32.84"></polygon>
                        </g>
                        <g transform="translate(0.000000, 2.000000)">
                            <polygon points="14.29 5.73 7.62 1.88 9.25 0.94 15.93 4.79"></polygon>
                            <polygon points="43.74 22.73 19.33 8.64 20.96 7.7 45.37 21.79"></polygon>
                            <polygon points="50.35 26.54 47.93 25.15 49.56 24.21 51.98 25.6"></polygon>
                            <polygon points="62.79 33.72 54.54 28.97 56.18 28.03 64.42 32.78"></polygon>
                            <polygon points="7.58 5.75 4.25 3.83 5.88 2.88 9.22 4.81"></polygon>
                            <polygon points="16.58 10.94 12.62 8.66 14.25 7.72 18.21 10"></polygon>
                            <polygon points="23.19 14.76 20.77 13.37 22.4 12.42 24.82 13.82"></polygon>
                            <polygon points="35.63 21.94 27.39 17.18 29.02 16.24 37.26 21"></polygon>
                            <polygon points="7.55 9.63 0.87 5.77 2.5 4.83 9.18 8.68"></polygon>
                            <polygon points="20.82 17.29 12.58 12.53 14.21 11.59 22.45 16.35"></polygon>
                            <polygon points="27.44 21.11 25.02 19.71 26.65 18.77 29.07 20.17"></polygon>
                            <polygon points="39.87 28.29 31.63 23.53 33.26 22.59 41.5 27.35"></polygon>
                        </g>
                    </g>
                    <g transform="translate(14.000000, 8.000000)">
                        <g transform="translate(10.000000, 0.000000)">
                            <polygon points="23.08 15.05 0.25 1.87 1.88 0.93 24.71 14.11"></polygon>
                            <polygon points="36.36 22.72 28.12 17.96 29.75 17.02 37.99 21.78"></polygon>
                            <polygon points="42.97 26.53 40.56 25.14 42.19 24.2 44.6 25.59"></polygon>
                            <polygon points="55.41 33.72 47.17 28.96 48.8 28.02 57.04 32.77"></polygon>
                        </g>
                        <g transform="translate(0.000000, 2.000000)">
                            <polygon points="13.54 5.67 6.87 1.82 8.5 0.87 15.18 4.73"></polygon>
                            <polygon points="42.98 22.67 18.58 8.58 20.21 7.63 44.62 21.72"></polygon>
                            <polygon points="49.6 26.48 47.18 25.09 48.81 24.15 51.23 25.54"></polygon>
                            <polygon points="62.03 33.66 53.79 28.91 55.42 27.96 63.67 32.72"></polygon>
                            <polygon points="6.83 5.69 3.5 3.76 5.13 2.82 8.46 4.75"></polygon>
                            <polygon points="15.83 10.88 11.87 8.6 13.5 7.66 17.46 9.94"></polygon>
                            <polygon points="22.44 14.7 20.02 13.3 21.65 12.36 24.07 13.76"></polygon>
                            <polygon points="34.88 21.88 26.64 17.12 28.27 16.18 36.51 20.94"></polygon>
                            <polygon points="6.8 9.56 0.12 5.71 1.75 4.77 8.43 8.62"></polygon>
                            <polygon points="20.07 17.23 11.83 12.47 13.46 11.53 21.7 16.29"></polygon>
                            <polygon points="26.69 21.05 24.27 19.65 25.9 18.71 28.32 20.11"></polygon>
                            <polygon points="39.12 28.23 30.88 23.47 32.51 22.53 40.75 27.29"></polygon>
                        </g>
                    </g>
                    <g transform="translate(0.000000, 16.000000)">
                        <g transform="translate(10.000000, 0.000000)">
                            <polygon points="23.33 14.99 0.5 1.81 2.13 0.86 24.96 14.05"></polygon>
                            <polygon points="36.61 22.66 28.37 17.9 30 16.96 38.24 21.71"></polygon>
                            <polygon points="43.22 26.47 40.81 25.08 42.44 24.14 44.85 25.53"></polygon>
                            <polygon points="55.66 33.65 47.42 28.9 49.05 27.96 57.29 32.71"></polygon>
                        </g>
                        <g transform="translate(0.000000, 2.000000)">
                            <polygon points="13.79 5.61 7.12 1.75 8.75 0.81 15.42 4.67"></polygon>
                            <polygon points="43.23 22.6 18.83 8.51 20.46 7.57 44.87 21.66"></polygon>
                            <polygon points="49.85 26.42 47.43 25.03 49.06 24.09 51.48 25.48"></polygon>
                            <polygon points="62.28 33.6 54.04 28.84 55.67 27.9 63.91 32.66"></polygon>
                            <polygon points="7.08 5.63 3.75 3.7 5.38 2.76 8.71 4.69"></polygon>
                            <polygon points="16.08 10.82 12.12 8.54 13.75 7.6 17.71 9.88"></polygon>
                            <polygon points="22.69 14.64 20.27 13.24 21.9 12.3 24.32 13.7"></polygon>
                            <polygon points="35.13 21.82 26.89 17.06 28.52 16.12 36.76 20.88"></polygon>
                            <polygon points="7.05 9.5 0.37 5.65 2 4.71 8.68 8.56"></polygon>
                            <polygon points="20.32 17.17 12.08 12.41 13.71 11.47 21.95 16.23"></polygon>
                            <polygon points="26.93 20.99 24.52 19.59 26.15 18.65 28.57 20.04"></polygon>
                            <polygon points="39.37 28.17 31.13 23.41 32.76 22.47 41 27.23"></polygon>
                        </g>
                    </g>
                </g>
            </g>
        </g>
    </g>
</svg>