<?xml version="1.0" encoding="UTF-8"?>
<svg width="551px" height="399px" viewBox="0 0 551 399" version="1.1" xmlns="http://www.w3.org/2000/svg" xmlns:xlink="http://www.w3.org/1999/xlink">
    <!-- Generator: Sketch 53.2 (72643) - https://sketchapp.com -->
    <title>S01 E04</title>
    <desc>Created with Sketch.</desc>
    <g id="Page-1" stroke="none" stroke-width="1" fill="none" fill-rule="evenodd">
        <g id="S01-E04" transform="translate(0.290000, 0.043804)" fill-rule="nonzero">
            <path d="M88.21,226.316196 L45.01,201.376196 C44.27,200.946196 44.36,200.206196 45.22,199.716196 L88,175.016196 C88.85,174.526196 90.14,174.466196 90.88,174.896196 L134.08,199.836196 C134.82,200.266196 134.73,201.006196 133.87,201.496196 L91.09,226.196196 C90.24,226.696196 88.95,226.746196 88.21,226.316196 Z" id="Path" fill="#242993" opacity="0.3"></path>
            <path d="M483.47,285.836196 C482.73,285.836196 482.02,285.686196 481.47,285.366196 L420.93,250.406196 C420.33,250.056196 420,249.556196 420,248.986196 C420,248.336196 420.45,247.706196 421.22,247.256196 L481.18,212.636196 C482.53,211.856196 484.51,211.786196 485.69,212.466196 L546.23,247.426196 C546.83,247.776196 547.16,248.276196 547.16,248.846196 C547.16,249.496196 546.71,250.126196 545.94,250.576196 L485.98,285.196196 C485.26,285.626196 484.35,285.836196 483.47,285.836196 Z M483.71,212.956196 C483,212.956196 482.23,213.126196 481.65,213.466196 L421.69,248.086196 C421.22,248.356196 420.94,248.696196 420.94,248.996196 C420.94,249.276196 421.19,249.476196 421.4,249.596196 L481.94,284.556196 C482.83,285.066196 484.46,284.996196 485.51,284.386196 L545.47,249.766196 C545.94,249.496196 546.22,249.156196 546.22,248.856196 C546.22,248.576196 545.97,248.376196 545.76,248.246196 L485.22,213.296196 C484.83,213.066196 484.29,212.956196 483.71,212.956196 Z" id="Shape" fill="#00A3FF"></path>
            <path d="M482.25,274.636196 L439.05,249.696196 C438.31,249.266196 438.4,248.526196 439.26,248.036196 L482.04,223.336196 C482.89,222.846196 484.18,222.786196 484.92,223.216196 L528.12,248.156196 C528.86,248.586196 528.77,249.326196 527.91,249.816196 L485.13,274.516196 C484.28,275.006196 482.99,275.066196 482.25,274.636196 Z" id="Path" fill="#242993" opacity="0.29750279"></path>
            <path d="M389.34,384.276196 C388.65,384.276196 387.97,384.096196 387.36,383.746196 L351.9,363.276196 L352.37,362.456196 L387.83,382.926196 C388.76,383.466196 389.92,383.466196 390.85,382.926196 L549.25,291.476196 C549.47,291.346196 549.6,291.116196 549.6,290.866196 C549.6,290.616196 549.47,290.386196 549.25,290.256196 L513.01,269.326196 L513.48,268.506196 L549.72,289.436196 C550.24,289.736196 550.54,290.266196 550.54,290.866196 C550.54,291.466196 550.23,291.996196 549.72,292.296196 L391.32,383.746196 C390.71,384.096196 390.02,384.276196 389.34,384.276196 Z" id="Path" fill="#00A3FF"></path>
            <path d="M89.55,306.436196 C88.67,306.436196 87.8,306.216196 87.02,305.766196 L0.78,256.026196 C0.31,255.756196 0.04,255.276196 0.03,254.736196 C0.03,254.196196 0.31,253.716196 0.77,253.446196 L57.6,220.636196 L58.07,221.456196 L1.24,254.266196 C0.99,254.406196 0.97,254.646196 0.97,254.736196 C0.97,254.826196 1,255.066196 1.24,255.206196 L87.48,304.946196 C88.75,305.686196 90.33,305.676196 91.6,304.946196 L109,294.906196 L109.47,295.726196 L92.07,305.766196 C91.3,306.216196 90.42,306.436196 89.55,306.436196 Z" id="Path" fill="#00A3FF"></path>
            <path d="M289.2,398.586196 C287.59,398.586196 285.91,398.186196 284.57,397.416196 L85.37,282.356196 C84.01,281.566196 83.23,280.496196 83.23,279.406196 C83.23,278.476196 83.79,277.636196 84.81,277.046196 L210.54,204.456196 C212.7,203.206196 216.33,203.346196 218.8,204.776196 L418,319.826196 C419.36,320.616196 420.14,321.686196 420.14,322.776196 C420.14,323.706196 419.58,324.546196 418.56,325.136196 L292.83,397.726196 C291.84,398.306196 290.55,398.586196 289.2,398.586196 Z M214.16,204.546196 C212.98,204.546196 211.85,204.786196 211.01,205.266196 L85.28,277.856196 C84.55,278.276196 84.17,278.806196 84.17,279.406196 C84.17,280.146196 84.78,280.926196 85.84,281.546196 L285.04,396.596196 C287.21,397.846196 290.5,397.996196 292.36,396.916196 L418.09,324.326196 C418.82,323.906196 419.2,323.376196 419.2,322.786196 C419.2,322.036196 418.59,321.266196 417.53,320.646196 L218.33,205.596196 C217.14,204.896196 215.6,204.546196 214.16,204.546196 Z" id="Shape" fill="#00A3FF"></path>
            <path d="M100.58,280.776196 L285.86,387.756196 C287.89,388.926196 290.96,389.056196 292.71,388.036196 L403.28,324.196196 C405.04,323.186196 404.82,321.406196 402.79,320.236196 L217.51,213.266196 C215.48,212.096196 212.41,211.966196 210.66,212.986196 L100.09,276.826196 C98.33,277.836196 98.55,279.606196 100.58,280.776196 Z" id="Path" fill="#242993" opacity="0.3"></path>
            <path d="M161.13,163.896196 L129.36,145.556196 L161.13,127.216196 L192.9,145.556196 L161.13,163.896196 Z M131.09,145.546196 L161.13,162.886196 L191.17,145.546196 L161.13,128.206196 L131.09,145.546196 Z" id="Shape" fill="#00A3FF"></path>
            <path d="M98.32,381.206196 L66.55,362.866196 L98.32,344.526196 L130.09,362.866196 L98.32,381.206196 Z M68.28,362.856196 L98.32,380.196196 L128.36,362.856196 L98.32,345.516196 L68.28,362.856196 Z" id="Shape" fill="#00A3FF"></path>
            <path d="M317.67,37.2561959 L285.9,18.9161959 L317.67,0.576195859 L349.44,18.9161959 L317.67,37.2561959 Z M287.63,18.9061959 L317.67,36.2461959 L347.71,18.9061959 L317.67,1.56619586 L287.63,18.9061959 Z" id="Shape" fill="#00A3FF"></path>
            <path d="M443.67,326.806196 L411.9,308.466196 L443.67,290.126196 L475.44,308.466196 L443.67,326.806196 Z M413.63,308.456196 L443.67,325.796196 L473.71,308.456196 L443.67,291.116196 L413.63,308.456196 Z" id="Shape" fill="#00A3FF"></path>
            <path d="M89.43,239.116196 C88.66,239.116196 87.92,238.956196 87.36,238.626196 L24.17,202.146196 C23.55,201.786196 23.21,201.266196 23.2,200.676196 C23.2,200.006196 23.66,199.356196 24.47,198.886196 L87.05,162.756196 C88.45,161.946196 90.51,161.876196 91.74,162.586196 L154.93,199.066196 C155.55,199.426196 155.89,199.946196 155.89,200.536196 C155.89,201.206196 155.43,201.856196 154.62,202.326196 L92.04,238.456196 C91.29,238.886196 90.34,239.116196 89.43,239.116196 Z M87.83,237.806196 C88.76,238.346196 90.48,238.266196 91.58,237.636196 L154.16,201.506196 C154.66,201.216196 154.96,200.856196 154.96,200.536196 C154.96,200.236196 154.69,200.016196 154.47,199.886196 L91.28,163.406196 C90.35,162.866196 88.63,162.946196 87.53,163.576196 L24.95,199.706196 C24.45,199.996196 24.15,200.356196 24.15,200.676196 C24.15,200.976196 24.42,201.196196 24.64,201.326196 L87.83,237.806196 Z" id="Shape" fill="#00A3FF"></path>
        </g>
    </g>
</svg>