<?xml version="1.0" encoding="UTF-8"?>
<svg width="91px" height="80px" viewBox="0 0 91 80" version="1.1" xmlns="http://www.w3.org/2000/svg" xmlns:xlink="http://www.w3.org/1999/xlink">
    <!-- Generator: Sketch 53.2 (72643) - https://sketchapp.com -->
    <title>S01 E02</title>
    <desc>Created with Sketch.</desc>
    <defs>
        <linearGradient x1="78.6374237%" y1="34.2045581%" x2="0.705496946%" y2="70.2890513%" id="linearGradient-1">
            <stop stop-color="#BCD5FF" offset="0%"></stop>
            <stop stop-color="#A3BEFF" offset="15.1%"></stop>
            <stop stop-color="#82A0FF" offset="38.66%"></stop>
            <stop stop-color="#6A8AFF" offset="61.24%"></stop>
            <stop stop-color="#5C7DFF" offset="82.21%"></stop>
            <stop stop-color="#5778FF" offset="100%"></stop>
        </linearGradient>
        <linearGradient x1="93.3561561%" y1="50.5538941%" x2="-24.7733873%" y2="49.0414939%" id="linearGradient-2">
            <stop stop-color="#C0D6FF" offset="0%"></stop>
            <stop stop-color="#C5DBFF" offset="29.78%"></stop>
            <stop stop-color="#D3E9FF" offset="64.88%"></stop>
            <stop stop-color="#E9FFFF" offset="100%"></stop>
        </linearGradient>
        <linearGradient x1="78.6374237%" y1="34.2023779%" x2="0.705607996%" y2="70.2868712%" id="linearGradient-3">
            <stop stop-color="#BCD5FF" offset="0%"></stop>
            <stop stop-color="#A3BEFF" offset="15.1%"></stop>
            <stop stop-color="#82A0FF" offset="38.66%"></stop>
            <stop stop-color="#6A8AFF" offset="61.24%"></stop>
            <stop stop-color="#5C7DFF" offset="82.21%"></stop>
            <stop stop-color="#5778FF" offset="100%"></stop>
        </linearGradient>
        <linearGradient x1="93.356173%" y1="50.5530189%" x2="-24.7734665%" y2="49.0407051%" id="linearGradient-4">
            <stop stop-color="#C0D6FF" offset="0%"></stop>
            <stop stop-color="#C5DBFF" offset="29.78%"></stop>
            <stop stop-color="#D3E9FF" offset="64.88%"></stop>
            <stop stop-color="#E9FFFF" offset="100%"></stop>
        </linearGradient>
    </defs>
    <g id="Page-1" stroke="none" stroke-width="1" fill="none" fill-rule="evenodd">
        <g id="S01-E02" fill-rule="nonzero">
            <g id="Group" transform="translate(0.000000, 19.000000)">
                <path d="M90.9,34.42 L90.9,26.09 L77.33,26.1 L47.22,8.71 C46.48,8.28 45.19,8.34 44.34,8.83 L14.36,26.14 L0.85,26.15 L0.85,34.5 L0.86,34.5 C0.87,34.76 1.03,35.01 1.35,35.19 L44.55,60.13 C45.29,60.56 46.58,60.5 47.43,60.01 L90.21,35.31 C90.65,35.06 90.88,34.73 90.9,34.42 Z" id="Path" fill="url(#linearGradient-1)"></path>
                <path d="M44.54,51.8 L1.34,26.86 C0.6,26.43 0.69,25.69 1.55,25.2 L44.33,0.5 C45.18,0.01 46.47,-0.05 47.21,0.38 L90.41,25.32 C91.15,25.75 91.06,26.49 90.2,26.98 L47.42,51.68 C46.57,52.17 45.28,52.23 44.54,51.8 Z" id="Path" fill="url(#linearGradient-2)"></path>
                <path d="M44.54,51.8 L1.34,26.86 C0.6,26.43 0.69,25.69 1.55,25.2 L44.33,0.5 C45.18,0.01 46.47,-0.05 47.21,0.38 L90.41,25.32 C91.15,25.75 91.06,26.49 90.2,26.98 L47.42,51.68 C46.57,52.17 45.28,52.23 44.54,51.8 Z" id="Path" fill="url(#linearGradient-2)"></path>
                <path d="M44.69,48.88 L6.4,26.77 C5.75,26.39 5.83,25.73 6.58,25.29 L44.5,3.4 C45.26,2.96 46.4,2.92 47.06,3.29 L85.35,25.4 C86,25.78 85.92,26.44 85.17,26.88 L47.25,48.77 C46.49,49.21 45.35,49.26 44.69,48.88 Z" id="Path" fill="#242993"></path>
                <path d="M44.79,47.03 L9.61,26.72 C9.01,26.37 9.08,25.77 9.78,25.36 L44.62,5.25 C45.31,4.85 46.37,4.81 46.97,5.15 L82.15,25.46 C82.75,25.81 82.68,26.41 81.98,26.82 L47.14,46.93 C46.44,47.33 45.39,47.37 44.79,47.03 Z" id="Path" fill="#4553C7"></path>
                <g transform="translate(39.000000, 21.000000)" fill="#42FFFF" id="Path">
                    <polygon points="6.07 3.77 1.95 1.39 4.2 0.09 8.31 2.47"></polygon>
                    <polygon points="13.71 3.43 9.6 5.8 7.35 4.51 11.47 2.13"></polygon>
                    <polygon points="5.13 4.3 2.89 5.6 0.64 4.3 2.89 3.01"></polygon>
                    <polygon points="12.9 8.79 10.65 10.08 4.17 6.34 6.42 5.05"></polygon>
                </g>
            </g>
            <path d="M90.91,33.89 L72.53,34 L47.21,19.38 C46.47,18.95 45.18,19.01 44.33,19.5 L18.66,34.32 L0.84,34.43 L0.84,45.25 L0.85,45.26 C0.89,45.49 1.05,45.7 1.34,45.87 L44.54,70.81 C45.28,71.24 46.57,71.18 47.42,70.69 L90.2,45.99 C90.59,45.77 90.81,45.49 90.88,45.21 L90.91,45.19 L90.91,33.89 L90.91,33.89 Z" id="Path" fill="#00A3FF" opacity="0.4"></path>
            <g id="Group">
                <path d="M90.9,34.96 L90.9,26.63 L77.33,26.64 L47.22,9.25 C46.48,8.82 45.19,8.88 44.34,9.37 L14.36,26.68 L0.85,26.69 L0.85,35.04 L0.86,35.04 C0.87,35.3 1.03,35.55 1.35,35.73 L44.55,60.67 C45.29,61.1 46.58,61.04 47.43,60.55 L90.21,35.85 C90.65,35.59 90.88,35.27 90.9,34.96 Z" id="Path" fill="url(#linearGradient-3)"></path>
                <path d="M44.54,52.34 L1.34,27.4 C0.6,26.97 0.69,26.23 1.55,25.74 L44.33,1.04 C45.18,0.55 46.47,0.49 47.21,0.92 L90.41,25.86 C91.15,26.29 91.06,27.03 90.2,27.52 L47.42,52.22 C46.57,52.71 45.28,52.76 44.54,52.34 Z" id="Path" fill="url(#linearGradient-4)"></path>
                <path d="M44.69,49.42 L6.4,27.31 C5.75,26.93 5.83,26.27 6.58,25.83 L44.5,3.94 C45.26,3.5 46.4,3.46 47.06,3.83 L85.35,25.94 C86,26.32 85.92,26.98 85.17,27.42 L47.25,49.31 C46.49,49.75 45.35,49.79 44.69,49.42 Z" id="Path" fill="#242993"></path>
                <path d="M44.79,47.56 L9.61,27.25 C9.01,26.9 9.08,26.3 9.78,25.89 L44.62,5.78 C45.31,5.38 46.37,5.34 46.97,5.68 L82.14,26 C82.74,26.35 82.67,26.95 81.97,27.36 L47.13,47.47 C46.44,47.87 45.39,47.91 44.79,47.56 Z" id="Path" fill="#4553C7"></path>
                <g transform="translate(39.000000, 21.000000)" fill="#00A3FF" id="Path">
                    <polygon points="6.07 4.3 1.95 1.93 4.2 0.63 8.31 3.01"></polygon>
                    <polygon points="13.71 3.97 9.6 6.34 7.35 5.04 11.47 2.67"></polygon>
                    <polygon points="5.13 4.84 2.89 6.14 0.64 4.84 2.89 3.54"></polygon>
                    <polygon points="12.9 9.32 10.65 10.62 4.17 6.88 6.42 5.58"></polygon>
                </g>
            </g>
        </g>
    </g>
</svg>