<?xml version="1.0" encoding="UTF-8"?>
<svg width="403px" height="312px" viewBox="0 0 403 312" version="1.1" xmlns="http://www.w3.org/2000/svg" xmlns:xlink="http://www.w3.org/1999/xlink">
    <!-- Generator: Sketch 53.2 (72643) - https://sketchapp.com -->
    <title>S02 E01</title>
    <desc>Created with Sketch.</desc>
    <defs>
        <linearGradient x1="96.9121367%" y1="46.8980452%" x2="-55.4261302%" y2="56.3047611%" id="linearGradient-1">
            <stop stop-color="#5761D7" offset="0%"></stop>
            <stop stop-color="#5C66D9" offset="17.79%"></stop>
            <stop stop-color="#6A73DF" offset="38.76%"></stop>
            <stop stop-color="#8289E8" offset="61.34%"></stop>
            <stop stop-color="#A3A7F5" offset="84.9%"></stop>
            <stop stop-color="#BCBEFF" offset="100%"></stop>
        </linearGradient>
        <linearGradient x1="0.000522011484%" y1="50.0021818%" x2="218.09518%" y2="50.0021818%" id="linearGradient-2">
            <stop stop-color="#5761D7" offset="0%"></stop>
            <stop stop-color="#5C66D9" offset="17.79%"></stop>
            <stop stop-color="#6A73DF" offset="38.76%"></stop>
            <stop stop-color="#8289E8" offset="61.34%"></stop>
            <stop stop-color="#A3A7F5" offset="84.9%"></stop>
            <stop stop-color="#BCBEFF" offset="100%"></stop>
        </linearGradient>
        <linearGradient x1="50.9577811%" y1="52.7891117%" x2="-20.9521355%" y2="-5.05283743%" id="linearGradient-3">
            <stop stop-color="#5761D7" offset="0%"></stop>
            <stop stop-color="#5C66D9" offset="17.79%"></stop>
            <stop stop-color="#6A73DF" offset="38.76%"></stop>
            <stop stop-color="#8289E8" offset="61.34%"></stop>
            <stop stop-color="#A3A7F5" offset="84.9%"></stop>
            <stop stop-color="#BCBEFF" offset="100%"></stop>
        </linearGradient>
        <linearGradient x1="0.00767670915%" y1="50.0019765%" x2="157.644264%" y2="50.0019765%" id="linearGradient-4">
            <stop stop-color="#5761D7" offset="0%"></stop>
            <stop stop-color="#5C66D9" offset="17.79%"></stop>
            <stop stop-color="#6A73DF" offset="38.76%"></stop>
            <stop stop-color="#8289E8" offset="61.34%"></stop>
            <stop stop-color="#A3A7F5" offset="84.9%"></stop>
            <stop stop-color="#BCBEFF" offset="100%"></stop>
        </linearGradient>
        <linearGradient x1="-0.0151145783%" y1="50.0111926%" x2="99.9917114%" y2="50.0111926%" id="linearGradient-5">
            <stop stop-color="#5761D7" offset="0%"></stop>
            <stop stop-color="#5C66D9" offset="17.79%"></stop>
            <stop stop-color="#6A73DF" offset="38.76%"></stop>
            <stop stop-color="#8289E8" offset="61.34%"></stop>
            <stop stop-color="#A3A7F5" offset="84.9%"></stop>
            <stop stop-color="#BCBEFF" offset="100%"></stop>
        </linearGradient>
        <linearGradient x1="45.9026816%" y1="50.0150964%" x2="145.890215%" y2="50.0150964%" id="linearGradient-6">
            <stop stop-color="#C0BFF6" offset="0%"></stop>
            <stop stop-color="#C5C4F7" offset="29.38%"></stop>
            <stop stop-color="#D3D2F9" offset="63.99%"></stop>
            <stop stop-color="#E9E9FD" offset="100%"></stop>
        </linearGradient>
        <linearGradient x1="-0.00683897827%" y1="50.0021804%" x2="99.9944935%" y2="50.0021804%" id="linearGradient-7">
            <stop stop-color="#E9E9FD" offset="0%"></stop>
            <stop stop-color="#D3D2F9" offset="36.01%"></stop>
            <stop stop-color="#C5C4F7" offset="70.62%"></stop>
            <stop stop-color="#C0BFF6" offset="100%"></stop>
        </linearGradient>
        <linearGradient x1="61.4784137%" y1="14.7235788%" x2="48.8629857%" y2="69.7406274%" id="linearGradient-8">
            <stop stop-color="#BCBEFF" offset="35.48%"></stop>
            <stop stop-color="#B5B8FC" offset="44.38%"></stop>
            <stop stop-color="#A3A7F5" offset="56.98%"></stop>
            <stop stop-color="#898FEB" offset="69.75%"></stop>
            <stop stop-color="#6069DB" offset="85.93%"></stop>
            <stop stop-color="#5761D7" offset="89.25%"></stop>
        </linearGradient>
        <linearGradient x1="-0.011445509%" y1="50.0028718%" x2="99.9900712%" y2="50.0028718%" id="linearGradient-9">
            <stop stop-color="#E9E9FD" offset="0%"></stop>
            <stop stop-color="#D3D2F9" offset="36.01%"></stop>
            <stop stop-color="#C5C4F7" offset="70.62%"></stop>
            <stop stop-color="#C0BFF6" offset="100%"></stop>
        </linearGradient>
        <linearGradient x1="0%" y1="49.99836%" x2="100.000081%" y2="49.99836%" id="linearGradient-10">
            <stop stop-color="#42E8E0" offset="0%"></stop>
            <stop stop-color="#43E3E0" offset="15.07%"></stop>
            <stop stop-color="#45D5DF" offset="32.85%"></stop>
            <stop stop-color="#49BDDD" offset="51.99%"></stop>
            <stop stop-color="#4E9CDB" offset="72.09%"></stop>
            <stop stop-color="#5472D8" offset="92.74%"></stop>
            <stop stop-color="#5761D7" offset="100%"></stop>
        </linearGradient>
        <linearGradient x1="-14.8087201%" y1="49.9992004%" x2="85.191361%" y2="49.9992004%" id="linearGradient-11">
            <stop stop-color="#BCBEFF" offset="35.48%"></stop>
            <stop stop-color="#B5B8FC" offset="44.38%"></stop>
            <stop stop-color="#A3A7F5" offset="56.98%"></stop>
            <stop stop-color="#898FEB" offset="69.75%"></stop>
            <stop stop-color="#6069DB" offset="85.93%"></stop>
            <stop stop-color="#5761D7" offset="89.25%"></stop>
        </linearGradient>
        <linearGradient x1="0%" y1="50.0012183%" x2="100.000081%" y2="50.0012183%" id="linearGradient-12">
            <stop stop-color="#E9E9FD" offset="0%"></stop>
            <stop stop-color="#D3D2F9" offset="36.01%"></stop>
            <stop stop-color="#C5C4F7" offset="70.62%"></stop>
            <stop stop-color="#C0BFF6" offset="100%"></stop>
        </linearGradient>
        <linearGradient x1="100.003047%" y1="49.9891901%" x2="-7.36934191e-14%" y2="49.9891901%" id="linearGradient-13">
            <stop stop-color="#5761D7" offset="0%"></stop>
            <stop stop-color="#5C66D9" offset="17.79%"></stop>
            <stop stop-color="#6A73DF" offset="38.76%"></stop>
            <stop stop-color="#8289E8" offset="61.34%"></stop>
            <stop stop-color="#A3A7F5" offset="84.9%"></stop>
            <stop stop-color="#BCBEFF" offset="100%"></stop>
        </linearGradient>
        <linearGradient x1="66.3950293%" y1="50.0016829%" x2="-33.6012523%" y2="50.0016829%" id="linearGradient-14">
            <stop stop-color="#C0BFF6" offset="0%"></stop>
            <stop stop-color="#C5C4F7" offset="29.38%"></stop>
            <stop stop-color="#D3D2F9" offset="63.99%"></stop>
            <stop stop-color="#E9E9FD" offset="100%"></stop>
        </linearGradient>
        <linearGradient x1="99.9946849%" y1="49.995615%" x2="-0.00784611491%" y2="49.995615%" id="linearGradient-15">
            <stop stop-color="#C0BFF6" offset="0%"></stop>
            <stop stop-color="#C5C4F7" offset="29.38%"></stop>
            <stop stop-color="#D3D2F9" offset="63.99%"></stop>
            <stop stop-color="#E9E9FD" offset="100%"></stop>
        </linearGradient>
        <linearGradient x1="99.9956388%" y1="49.9963016%" x2="-0.000228601915%" y2="49.9963016%" id="linearGradient-16">
            <stop stop-color="#C0BFF6" offset="0%"></stop>
            <stop stop-color="#C5C4F7" offset="29.38%"></stop>
            <stop stop-color="#D3D2F9" offset="63.99%"></stop>
            <stop stop-color="#E9E9FD" offset="100%"></stop>
        </linearGradient>
        <linearGradient x1="100.022372%" y1="50.0032671%" x2="0.0325184125%" y2="50.0032671%" id="linearGradient-17">
            <stop stop-color="#5761D7" offset="0%"></stop>
            <stop stop-color="#5C66D9" offset="17.79%"></stop>
            <stop stop-color="#6A73DF" offset="38.76%"></stop>
            <stop stop-color="#8289E8" offset="61.34%"></stop>
            <stop stop-color="#A3A7F5" offset="84.9%"></stop>
            <stop stop-color="#BCBEFF" offset="100%"></stop>
        </linearGradient>
    </defs>
    <g id="Page-1" stroke="none" stroke-width="1" fill="none" fill-rule="evenodd">
        <g id="Section_02" transform="translate(-127.000000, -98.000000)" fill-rule="nonzero">
            <g id="S02-E01" transform="translate(328.500000, 254.500000) scale(-1, 1) translate(-328.500000, -254.500000) translate(127.000000, 98.000000)">
                <path d="M294.373649,274 C291.739279,274 289.104909,273.321036 286.756557,271.963108 L114.882753,172.532618 C113.076328,171.49154 112,169.620617 112,167.530917 C112,165.441218 113.068801,163.570295 114.875226,162.521673 L220.596244,101 L220.739253,101.082984 L400.10972,204.851299 C401.916145,205.892377 402.992473,207.7633 403,209.853 C403,211.9427 401.931199,213.813623 400.124774,214.862245 L302.028374,271.94802 C299.664968,273.313492 297.015545,274 294.373649,274 Z M287.042574,271.465201 C291.57369,274.090529 297.211241,274.082984 301.73483,271.442569 L399.83123,214.356794 C401.457012,213.413789 402.420439,211.723923 402.420439,209.837912 C402.420439,207.951901 401.449485,206.26958 399.816176,205.326574 L220.596244,101.656332 L115.161244,163.012036 C113.535461,163.955041 112.572035,165.644907 112.572035,167.530917 C112.572035,169.416928 113.550515,171.09925 115.176297,172.042255 L287.042574,271.465201 Z" id="Shape" fill="#00A3FF"></path>
                <g id="Group" transform="translate(106.000000, 0.000000)">
                    <g>
                        <g transform="translate(145.892183, 138.395019)">
                            <path d="M55.0554987,85.9102125 C55.0554987,88.5051191 52.9498383,90.6111303 50.3553639,90.6111303 C47.7608895,90.6111303 45.6552291,88.5051191 45.6552291,85.9102125 C45.6552291,83.3153059 47.7608895,81.2092948 50.3553639,81.2092948 C52.9498383,81.2092948 55.0554987,83.3153059 55.0554987,85.9102125 Z" id="Path" fill="#24126A"></path>
                            <path d="M101.349946,33.3953199 C101.349946,35.9902265 99.2442857,38.0962377 96.6498113,38.0962377 C94.0553369,38.0962377 91.9496765,35.9902265 91.9496765,33.3953199 C91.9496765,30.8004133 94.0553369,28.6944021 96.6498113,28.6944021 C99.2442857,28.6944021 101.349946,30.7928918 101.349946,33.3953199 Z" id="Path" fill="#24126A"></path>
                            <path d="M111.457116,69.2877673 C111.457116,71.8826739 109.351456,73.9886851 106.756981,73.9886851 C104.162507,73.9886851 102.056846,71.8826739 102.056846,69.2877673 C102.056846,66.6928607 104.162507,64.5868495 106.756981,64.5868495 C109.358976,64.579328 111.457116,66.6853392 111.457116,69.2877673 Z" id="Path" fill="#24126A"></path>
                            <g>
                                <path d="M9.90412399,60.419956 C9.90412399,63.0148626 7.79846361,65.1208738 5.20398922,65.1208738 C2.60951482,65.1208738 0.503854447,63.0148626 0.503854447,60.419956 C0.503854447,57.8250494 2.60951482,55.7190382 5.20398922,55.7190382 C7.79846361,55.7190382 9.90412399,57.8250494 9.90412399,60.419956 Z" id="Path" fill="#24126A"></path>
                                <path d="M38.9622372,28.6643162 C38.9622372,31.2592228 36.8565768,33.365234 34.2621024,33.365234 C31.667628,33.365234 29.5619677,31.2592228 29.5619677,28.6643162 C29.5619677,26.0694096 31.667628,23.9633985 34.2621024,23.9633985 C36.8565768,23.9633985 38.9622372,26.0694096 38.9622372,28.6643162 Z" id="Path" fill="#24126A"></path>
                                <g transform="translate(2.256065, 20.307965)">
                                    <path d="M54.7772507,25.7685509 L3.10584906,35.7194536 C2.8877628,35.742018 2.67719677,35.7721039 2.47415094,35.8172327 L2.51927224,35.4787666 L0.0376010782,34.8544848 L0.0376010782,37.7878574 L0.0526415094,37.7878574 C0.0526415094,37.9006795 0.0526415094,38.0135015 0.0902425876,38.133845 C0.406091644,39.2846297 2.27110512,40.0668624 4.25644205,39.8788257 L55.9278437,29.9279229 L54.7772507,25.7685509 Z" id="Path" fill="url(#linearGradient-1)"></path>
                                    <path d="M98.0560916,8.04044976 L96.4843666,9.36422821 C95.1307278,8.77755367 93.0551482,8.9129401 91.6413477,9.72525869 L54.8374124,25.7459865 L59.9887601,28.724488 L96.7926954,12.7037602 C97.6575202,12.2073433 98.0711321,11.560497 98.0410512,10.9587795 L98.0560916,10.966301 L98.0560916,8.04044976 L98.0560916,8.04044976 Z" id="Path" fill="url(#linearGradient-2)"></path>
                                    <path d="M35.4878976,4.46775225 C34.5779515,3.42978961 32.3820485,3.02363031 30.584717,3.5501331 L30.584717,3.5501331 C30.3741509,3.61030485 30.1786253,3.68551954 29.9981402,3.76825569 C29.9078976,3.62534779 29.8101348,3.47491842 29.6822911,3.35457492 C29.3589218,3.03115178 28.5993801,2.57986368 28.5993801,2.57986368 L28.5993801,5.49819343 C28.5993801,5.49819343 28.6144205,5.49067196 28.6144205,5.49067196 C28.6294609,5.7915307 28.7497844,6.09238944 28.9979515,6.37820524 L52.7467925,28.0701202 L59.2367385,26.1596672 L35.4878976,4.46775225 Z" id="Path" fill="url(#linearGradient-3)"></path>
                                    <path d="M107.900054,44.0081119 L107.027709,44.3164921 L106.523854,45.3544547 C106.335849,45.2641971 106.132803,45.1889824 105.907197,45.1288106 L59.2893801,26.1822316 L55.9804852,29.9279229 L102.598302,48.8745019 C104.388113,49.4010047 106.584016,48.987324 107.501482,47.9568828 L107.501482,47.9568828 C107.77973,47.6409811 107.892534,47.3100365 107.885013,46.9790919 L107.900054,46.9941348 L107.900054,44.0081119 Z" id="Path" fill="url(#linearGradient-4)"></path>
                                    <path d="M52.7618329,28.1002061 L45.1062534,60.90133 L44.534717,60.6079927 L44.534717,63.6391445 L44.5497574,63.6241015 C44.6550404,64.5868495 45.895876,65.414211 47.6104852,65.5721619 C49.5958221,65.7526771 51.4608356,64.9704444 51.7766846,63.8271812 L59.9586792,28.7620953 L52.7618329,28.1002061 Z" id="Path" fill="url(#linearGradient-5)"></path>
                                    <path d="M105.907197,42.2029594 L62.6734771,24.6328091 L96.7926954,9.77790897 C98.3192992,8.89789717 98.4847439,7.55907578 97.161186,6.791886 L96.8002156,6.58880635 C95.4766577,5.82161657 93.1604313,5.91939566 91.6338275,6.79940747 L57.5146092,21.6543076 L35.4803774,1.53437956 C34.5704313,0.496416917 32.3745283,0.0902576213 30.5771968,0.616760412 L30.5771968,0.616760412 C28.7873854,1.1432632 28.072965,2.41439137 28.9829111,3.44483255 L51.0096226,23.5647606 L3.08328841,32.8011239 C1.09795148,32.9816391 -0.263207547,34.0572091 0.0526415094,35.2079938 C0.368490566,36.3587784 2.23350404,37.1410112 4.21884097,36.9529745 L52.1451752,27.7166112 L44.5572776,60.2394407 C44.2414286,61.3902254 45.5950674,62.4657954 47.5879245,62.6463106 C49.5732615,62.8268259 51.4382749,62.0445932 51.754124,60.90133 L59.3420216,28.3785004 L102.575741,45.9486507 C104.365553,46.4751535 106.561456,46.0614727 107.478922,45.0310316 C108.411429,44.0005904 107.697008,42.7369837 105.907197,42.2029594 Z M58.0410243,24.677938 L57.2363612,25.5880356 L55.4841509,25.4300848 L55.205903,24.4146866 L56.7851482,23.9483555 L58.0410243,24.677938 Z" id="Shape" fill="url(#linearGradient-6)"></path>
                                </g>
                                <path d="M58.8080863,47.6785884 L58.8080863,47.6785884 C56.7249865,47.6785884 55.0404582,45.9937795 55.0404582,43.9103328 L55.0404582,0.255729927 L62.5832345,0.255729927 L62.5832345,43.9103328 C62.5757143,45.9937795 60.891186,47.6785884 58.8080863,47.6785884 Z" id="Path" fill="#24126A"></path>
                            </g>
                        </g>
                        <path d="M184.643854,86.7902243 L184.628814,86.7977458 C184.538571,85.8124334 183.899353,84.8797714 182.673558,84.1727533 L181.883935,83.7139438 C178.958571,82.0216134 173.844825,82.2322145 170.460728,84.1877963 L146.629164,97.944562 C144.831833,98.9825247 143.899326,100.298782 143.846685,101.554867 L143.831644,101.562388 L143.831644,105.714239 L143.839164,105.714239 C143.839164,106.789809 144.478383,107.82025 145.809461,108.58744 L146.599084,109.046249 C149.524447,110.73858 154.638194,110.527979 158.022291,108.572397 L181.853854,94.8156312 C183.591024,93.8152759 184.523531,92.5441477 184.636334,91.3181483 L184.651375,91.3106269 L184.651375,86.7902243 L184.643854,86.7902243 Z" id="Path" fill="#5351AF"></path>
                        <path d="M146.599084,104.999699 L145.809461,104.54089 C142.884097,102.848559 143.252588,99.9001438 146.629164,97.944562 L170.460728,84.1877963 C173.837305,82.2322145 178.951051,82.0216134 181.883935,83.7139438 L182.673558,84.1727533 C185.598922,85.8650837 185.230431,88.8134994 181.853854,90.7690812 L158.022291,104.525847 C154.638194,106.473907 149.524447,106.69203 146.599084,104.999699 Z" id="Path" fill="url(#linearGradient-7)"></path>
                        <g transform="translate(142.132075, 0.000000)" id="Path">
                            <path d="M54.9201348,124.202008 L5.00846361,152.99419 C2.53431267,154.423269 0.53393531,152.903932 0.53393531,149.609529 L0.53393531,149.609529 C0.53393531,146.315126 2.54183288,142.479177 5.00846361,141.050098 L62.1846631,108.060937 L62.1846631,110.317378 C62.1846631,115.672663 58.9284097,121.885396 54.9201348,124.202008 Z" fill="#515151"></path>
                            <path d="M58.5975202,1.18087055 L58.5975202,1.18087055 C56.8603504,0.248208459 54.6268464,0.376073422 52.1902965,1.78258802 L50.7012938,2.64003542 C45.1814555,5.82913804 40.7069272,14.3735262 40.7069272,21.7370438 L40.7069272,120.463839 L53.9650674,112.806984 L53.9650674,115.943436 L38.0598113,128.902926 L1.9251752,153.129576 L52.7091914,181.846543 L81.9101887,159.372395 L98.5373854,145.171862 L108.900243,29.6345857 L58.5975202,1.18087055 Z" fill="url(#linearGradient-8)"></path>
                        </g>
                        <path d="M163.527089,164.141006 C163.527089,164.141006 162.17345,160.568308 164.843127,157.898187 C167.512803,155.228066 181.553046,149.323713 182.568275,148.684388 C183.583504,148.052585 188.629569,144.329458 188.629569,144.329458 L190.171213,140.884625 C190.171213,140.884625 161.669596,143.660047 161.286065,144.103814 C160.902534,144.547581 147.945202,156.175771 148.328733,156.687231 C148.712264,157.19869 157.262749,159.267094 157.262749,159.267094 L158.917197,161.531056 L163.527089,164.141006 Z" id="Path" fill="#2D2D2D"></path>
                        <path d="M244.880782,30.3566466 L243.391779,31.214094 C237.871941,34.4031967 233.397412,42.9475848 233.397412,50.3111024 L233.397412,149.030376 L197.698949,169.624156 C195.224798,171.053235 193.22442,174.881663 193.22442,178.183587 L193.22442,178.183587 C193.22442,181.477991 195.232318,182.997327 197.698949,181.568248 L247.61062,152.776067 C251.618895,150.459455 254.875148,144.246722 254.875148,138.898958 L254.875148,136.642517 L254.875148,37.9157224 C254.867628,30.5522048 250.40062,27.1750655 244.880782,30.3566466 Z" id="Path" fill="#5351AF"></path>
                        <g transform="translate(95.506739, 5.265028)" id="Path">
                            <path d="M54.5140431,180.259513 C54.5140431,180.259513 47.1592722,184.975473 44.6776011,187.758417 C42.1884097,190.54136 37.2626685,196.235112 39.2931267,198.94284 C41.3235849,201.65809 48.1594609,203.169906 55.5142318,196.393062 C62.8690027,189.616219 60.7783827,189.217582 67.0427224,185.855485 C73.307062,182.50091 75.0291914,178.845477 74.2771698,176.754508 C73.5251482,174.66354 70.4268194,170.970499 68.7422911,171.767775 C67.0502426,172.572572 54.5140431,180.259513 54.5140431,180.259513 Z" fill="#160A5B"></path>
                            <path d="M90.2726685,200.078582 C90.2726685,200.078582 87.6330728,205.892677 86.2719137,207.818173 C84.9107547,209.743669 78.3155256,220.860399 81.7597844,223.417699 C85.2040431,225.974998 91.7315903,225.26798 96.8979784,219.656964 C102.064367,214.045949 103.207439,207.231498 104.478356,204.990101 C105.749272,202.748703 108.922803,196.769136 107.41876,193.324303 C105.914717,189.879471 105.583827,189.277753 105.583827,189.277753 L90.2726685,200.078582 Z" fill="#160A5B"></path>
                            <path d="M63.575903,117.342429 C63.575903,117.342429 41.7221563,138.906479 38.1425337,149.729872 C38.1425337,149.729872 36.6309704,155.581575 40.8573315,160.16967 C45.0836927,164.757766 54.0477898,179.755574 54.0477898,179.755574 C54.0477898,179.755574 60.7407817,187.856196 69.3815094,181.380211 C69.3815094,181.380211 73.2920216,175.137393 70.8855526,170.985542 C68.4866038,166.833691 62.0944205,153.565821 62.0944205,153.565821 C62.0944205,153.565821 76.1045822,143.923299 83.0231806,141.486343 C89.941779,139.049387 93.6266846,137.16902 93.6266846,137.16902 C93.6266846,137.16902 92.3708086,143.697655 87.3097035,150.060817 C82.2485984,156.423979 73.7808356,166.660698 76.6009164,173.776007 C79.4209973,180.898837 81.0528841,183.102628 83.7075202,187.194307 C86.3621563,191.293507 88.8663881,199.837895 91.1224528,200.73295 C93.3860377,201.620483 103.831617,202.643403 105.523666,195.843995 C107.215714,189.037066 101.959084,175.814325 99.5902156,171.339051 C99.5902156,171.339051 127.851186,138.733485 130.535903,135.145745 C133.23566,131.565526 72.3219137,111.81415 63.575903,117.342429 Z" fill="#24126A"></path>
                            <path d="M70.8855526,170.985542 C68.4866038,166.833691 62.0944205,153.565821 62.0944205,153.565821 C62.0944205,153.565821 76.1045822,143.923299 83.0231806,141.486343 C89.941779,139.049387 93.6266846,137.16902 93.6266846,137.16902 C94.9502426,135.341303 99.2442857,128.323773 101.161941,122.772929 C85.2266038,118.102097 67.9225876,114.58205 63.5683827,117.334908 C65.110027,121.155814 73.2393801,121.118206 73.2393801,121.118206 C73.2393801,121.118206 76.2775472,128.504288 78.2854447,129.451993 C80.2933423,130.392177 85.1138005,129.361736 85.1138005,129.361736 C85.1138005,129.361736 84.3316981,130.580214 80.9024798,133.054777 C77.4657412,135.536861 55.9654447,153.15214 55.9654447,153.15214 C55.9654447,153.15214 57.1912399,153.851637 62.914124,164.201178 C68.6370081,174.550718 69.3815094,181.37269 69.3815094,181.37269 C69.3815094,181.37269 73.2920216,175.137393 70.8855526,170.985542 Z" fill="#160A5B"></path>
                            <path d="M119.195418,128.782583 C106.561456,127.579148 91.8519137,127.466326 95.1608086,134.107782 C100.77841,145.359899 112.073774,145.863837 112.073774,145.863837 C111.998571,150.000645 94.6644744,169.970144 94.6644744,169.970144 C94.6644744,169.970144 94.6644744,169.970144 98.7028302,177.830078 C102.741186,185.690013 102.237332,199.995846 102.237332,199.995846 C103.794016,199.14592 105.034852,197.829663 105.523666,195.851517 C107.215714,189.044588 101.959084,175.821846 99.5902156,171.346573 C99.5902156,171.346573 127.851186,138.741007 130.535903,135.153266 C131.340566,134.092739 126.550189,131.610655 119.195418,128.782583 Z" fill="#160A5B"></path>
                            <path d="M41.4815094,59.8633673 L44.8430458,57.2534178 C44.8430458,57.2534178 62.9592453,47.189693 68.9904582,43.9328972 C72.2542318,42.1653521 75.6383288,39.0138568 78.0598383,36.4866434 C80.421186,34.0271232 83.6924798,32.6506945 87.0991375,32.6356516 L118.841968,32.4777007 C118.841968,32.4777007 122.541914,38.4046179 123.782749,39.5704455 C124.700216,40.4278929 133.310863,47.6485026 139.49248,53.5904626 C142.914178,56.8773444 145.395849,61.0066305 146.689326,65.5721619 C150.223827,78.0352351 150.171186,103.164461 150.705121,121.125728 C150.705121,121.125728 148.516739,121.983175 143.079623,123.141481 C137.680108,124.292266 138.349407,123.555162 138.349407,123.555162 C138.349407,123.555162 130.250135,141.77968 119.2631,143.539704 C108.276065,145.299727 93.4762803,140.162564 90.8366846,122.908316 C90.8366846,122.908316 69.4191105,119.696649 63.6059838,117.312343 C63.0720485,117.094221 62.8840431,116.432331 63.229973,115.966 C65.8169272,112.528689 75.4804043,99.2006473 76.3978706,90.5133512 C77.458221,80.4721909 77.1348518,65.9031065 76.3377089,61.9242497 C76.3377089,61.9242497 60.1842857,68.0091176 55.032938,69.0922091 C55.032938,69.0922091 35.3675741,90.7013879 27.1554987,96.5831763 C27.1554987,96.5831763 29.9680593,92.1605528 24.3203774,89.1594869 L41.4815094,59.8633673 Z" fill="#453C9E"></path>
                            <path d="M143.079623,123.141481 C143.906846,122.968488 144.643827,122.795494 145.320647,122.637543 L144.177574,120.396145 L114.38248,117.24465 L96.9807008,118.139705 L90.9946092,123.825935 C91.3330189,125.676216 91.8067925,127.38359 92.4084097,128.940533 C92.4384906,128.948055 99.8083019,130.008582 103.23,129.271478 C106.651698,128.541896 133.167978,132.438016 133.22814,132.445538 C136.228706,128.135736 138.09372,124.111751 138.319326,123.607812 C138.296765,123.758242 138.620135,124.096708 143.079623,123.141481 Z" fill="#24126A"></path>
                            <path d="M102.86903,112.731769 C102.838949,112.618947 102.741186,112.543732 102.628383,112.543732 C101.192022,112.506125 91.8819946,112.235352 88.3625337,111.016874 C84.5422642,109.700617 80.4963881,109.941304 80.2933423,110.159427 C80.0902965,110.377549 73.7357143,113.077757 73.3521833,114.175891 C73.0137736,115.14616 72.4046361,118.5233 73.2469003,119.771863 C74.0891644,121.020427 74.4877358,121.85531 74.4877358,121.85531 L75.1495148,121.923003 C75.1495148,121.923003 76.0068194,123.607812 76.4881132,124.202008 C76.6986792,124.46526 76.864124,124.751076 77.0070081,125.059456 C77.4055795,125.924425 78.1124798,127.361025 78.4057682,127.391111 C78.8269003,127.43624 80.7971968,127.827356 81.293531,127.699491 C81.6996226,127.594191 82.0681132,126.345627 81.9026685,125.79656 C81.8575472,125.64613 81.9327493,125.510744 82.0906739,125.480658 C83.0006199,125.330229 85.4522102,125.021848 88.8588679,125.330229 C93.0025067,125.713824 98.8532345,122.998573 99.3871698,122.750365 C99.4172507,122.735322 99.4398113,122.727801 99.4698922,122.727801 L105.3131,122.201298 C105.478544,122.186255 105.591348,122.020783 105.546226,121.862832 L102.86903,112.731769 Z" fill="#FCD1C5"></path>
                            <path d="M95.8301078,51.1760713 C95.8301078,51.1760713 90.8592453,69.4983684 96.115876,88.3246039 C96.115876,88.3246039 115.239784,52.6502791 117.307844,46.8587484 C119.383423,41.0672177 120.135445,36.9604959 118.195229,34.8770492 C116.255013,32.8011239 98.9810782,43.5342593 98.9810782,43.5342593 L95.8301078,51.1760713 Z" fill="#F0F6FF"></path>
                            <path d="M100.755849,79.9080807 C100.755849,79.9080807 104.395633,68.7612645 103.763935,65.1584811 C103.132237,61.5556977 102.222291,58.9833555 102.222291,58.9833555 L105.508625,55.9522037 L106.960027,58.9532696 C106.960027,58.9532696 114.194474,53.6506344 114.668248,52.6578006 C114.668248,52.6578006 108.847601,56.6517003 107.012668,57.2534178 C107.012668,57.2534178 106.147844,55.8243388 105.004771,55.3354433 C103.861698,54.8465479 101.011536,58.75019 101.011536,58.75019 L100.477601,65.5119901 L97.6199191,81.2920309 L98.6125876,83.6387291 L100.755849,79.9080807 Z" fill="#C4CCD6"></path>
                            <path d="M97.5597574,51.3791509 C97.5597574,51.3791509 96.8678976,58.5771962 97.4619946,59.0886561 C98.0560916,59.6001159 100.289596,59.6302018 101.319865,59.0510487 C102.357655,58.4718957 104.997251,55.3429648 104.997251,55.3429648 C104.997251,55.3429648 101.771078,49.6341702 97.5597574,51.3791509 Z" fill="#24126A"></path>
                            <path d="M101.462749,57.7648776 C101.462749,57.7648776 103.410485,62.7591327 101.545472,69.6713622 C99.6804582,76.5835917 98.9585175,82.9994043 98.9585175,82.9994043 L96.115876,88.3246039 C96.115876,88.3246039 92.5738544,77.8998486 93.7394879,67.4299646 C94.265903,62.7290468 97.8455256,58.5621533 97.8455256,58.5621533 L101.462749,57.7648776 Z" fill="#24126A"></path>
                            <path d="M86.9036119,21.9551664 C86.9036119,21.9551664 86.0237466,26.4078757 86.3395957,27.2578016 C86.6554447,28.1002061 87.7834771,28.6718377 87.5052291,30.4092969 C87.2269811,32.1467561 88.23469,37.3365693 88.7535849,39.0665071 C88.7535849,39.0665071 88.3775741,40.9167883 88.896469,41.4884199 C89.4153639,42.0600515 90.0846631,42.0374871 90.5734771,42.9174989 C91.0622911,43.7899893 91.2202156,48.2878274 93.0401078,49.7845996 C94.86,51.2888933 97.2363881,51.5972735 98.4546631,51.2738504 C99.6804582,50.9429058 100.928814,50.0102437 100.928814,50.0102437 L103.673693,51.1535069 C103.673693,51.1535069 117.89442,47.1295213 117.450728,37.1334897 L117.443208,36.0729626 C117.443208,36.0729626 118.450916,34.6589266 118.744205,33.733786 C119.037493,32.8086453 121.391321,28.6567948 120.203127,26.8666853 C120.203127,26.8666853 125.715445,5.11459854 108.719757,3.80586303 C91.7240701,2.48960605 89.1596765,14.3960906 86.9036119,21.9551664 Z" fill="#FCD1C5"></path>
                            <path d="M117.450728,37.1259682 L117.450728,37.0056247 C116.743827,36.5844225 116.051968,36.3136496 115.495472,36.4114287 C113.547736,36.7574163 113.998949,32.7183877 113.998949,32.7183877 C113.998949,32.7183877 113.637978,33.4479702 112.64531,38.6076975 C111.652642,43.7599034 100.936334,50.0027222 100.936334,50.0027222 L103.681213,51.1459854 C103.673693,51.1459854 117.89442,47.1219998 117.450728,37.1259682 Z" fill="#E2B1A6"></path>
                            <path d="M86.978814,12.5157235 C85.3168464,16.0432922 84.5197035,20.2854004 87.9940431,23.1285155 C87.9940431,23.1285155 90.9118868,23.9257911 96.4618059,21.3459274 C100.199353,19.6084682 103.94442,20.375658 105.982399,21.0601116 C106.922426,21.3760133 107.546604,22.2710681 107.516523,23.2714234 L107.433801,26.3702684 C107.41124,27.1750655 107.885013,27.9121694 108.621995,28.2280711 L111.201429,29.3262055 L111.712803,32.3347928 C111.863208,33.2223261 112.780674,33.7563504 113.630458,33.4554916 L114.284717,33.2223261 C114.284717,33.2223261 114.668248,26.5206977 120.195606,26.8666853 C120.195606,26.8666853 124.670135,17.1865554 120.082803,8.3413085 C115.495472,-0.511459854 102.929191,0.120343495 100.251995,1.12822027 C96.7250135,2.45199871 97.2138275,2.25644053 95.1984097,3.50500429 C91.6714286,5.67870867 88.7460647,8.75498927 86.978814,12.5157235 Z" fill="#AA8383"></path>
                            <path d="M132.197871,80.7580067 C132.197871,80.7580067 129.625957,99.7271501 128.565606,105.097479 L120.248248,109.482495 L135.017951,108.579918 L132.197871,80.7580067 Z" fill="#24126A"></path>
                            <path d="M120.203127,26.8591638 C120.203127,26.8591638 121.71469,23.5798036 122.083181,19.0970084 C115.217224,24.5425515 107.531563,23.2639019 107.531563,23.2639019 L107.448841,26.3627469 C107.42628,27.167544 107.900054,27.9046479 108.637035,28.2205496 L111.216469,29.318684 L111.727844,32.3272714 C111.878248,33.2148046 112.795714,33.7488289 113.645499,33.4479702 L114.299757,33.2148046 C114.292237,33.2223261 114.675768,26.5206977 120.203127,26.8591638 Z" fill="#936D6D"></path>
                            <path d="M123.880512,43.5267379 C123.880512,43.5267379 119.481186,58.6448894 118.56372,61.5632192 L115.021698,61.1871458 L115.660916,65.9707997 L96.5896496,91.1150687 L117.766577,66.7981612 L116.924313,62.5334886 L120.142965,62.8719547 L123.880512,43.5267379 Z" fill="#24126A"></path>
                            <path d="M105.155175,125.706302 C105.155175,125.706302 149.885418,124.247137 151.028491,123.434819 C152.171563,122.6225 152.374609,111.114653 152.269326,104.443111 C152.194124,99.7647574 152.246765,81.4575032 148.253531,68.6108351 C151.389461,79.4868785 149.742534,117.944147 148.313693,119.899728 C146.884852,121.862832 104.335472,122.98353 104.335472,122.98353 L104.335472,122.98353 C104.801725,124.585603 105.155175,125.706302 105.155175,125.706302 Z" fill="#263649"></path>
                            <path d="M17.2588949,89.9191552 C17.2588949,89.9191552 17.0934501,91.0473755 15.1457143,92.1530313 C13.2054987,93.2586872 8.21959569,95.7106859 7.41493261,96.417704 C6.61026954,97.124722 3.01560647,100.276217 2.91032345,100.689898 C2.80504043,101.103579 1.7296496,104.676276 1.73716981,104.886877 C1.74469003,105.097479 2.09061995,106.752202 2.09061995,106.752202 L0.985148248,112.024751 C0.985148248,112.024751 -0.421132075,114.07059 1.1054717,114.627179 C2.63207547,115.183768 3.49690027,113.604259 3.51946092,113.363572 C3.51946092,113.363572 5.82816712,112.265438 7.52021563,110.956702 C9.21226415,109.647967 16.0030189,104.179859 17.1536119,104.518325 C18.3042049,104.856792 17.2438544,106.812373 16.6948787,107.150839 C16.1383827,107.489305 12.5437197,111.001831 14.0477628,113.446309 C15.5518059,115.890786 16.5369542,112.062358 17.5371429,111.287647 C18.5298113,110.512936 20.680593,107.451698 22.0041509,107.068103 C23.3201887,106.69203 25.7191375,101.765468 26.0349865,99.5691992 C26.3508356,97.3729304 27.9225606,95.9513729 28.4790566,95.2368334 C29.0430728,94.5222939 27.2683019,89.0617078 27.2683019,89.0617078 L20.5452291,86.9707396 L18.1914016,88.5051191 L17.2588949,89.9191552 Z" fill="#FCD1C5"></path>
                        </g>
                        <g transform="translate(197.029650, 64.684629)" id="Path">
                            <path d="M43.4292453,1.64720159 C42.022965,-0.571631602 41.3762264,1.06804852 39.4886523,2.89576535 C36.9392992,5.37032847 33.7432075,9.20627737 32.0962803,14.050103 C29.0957143,22.8652641 30.1711051,44.9106881 31.178814,48.0621833 C31.178814,48.0621833 3.16601078,52.6502791 1.22579515,52.5675429 C-0.714420485,52.4848068 3.63226415,66.2791799 3.63226415,66.2791799 C3.63226415,66.2791799 48.3625067,64.820015 49.5055795,64.0076964 C50.6486523,63.1953778 50.8516981,51.6875311 50.7464151,45.0159886 C50.6486523,39.2996726 50.7539353,13.230263 43.4292453,1.64720159 Z" fill="#334659"></path>
                            <path d="M3.63226415,66.2867014 C3.63226415,66.2867014 48.3625067,64.8275365 49.5055795,64.0152179 C50.6486523,63.2028993 50.8516981,51.6950526 50.7464151,45.0235101 C50.6712129,40.3451567 50.7238544,22.0379025 46.7306199,9.19123444 C49.8665499,20.0672778 48.2196226,58.5245459 46.7907817,60.4801277 C45.3619407,62.443231 2.81256065,63.5639298 2.81256065,63.5639298 L2.81256065,63.5639298 C3.27881402,65.1660026 3.63226415,66.2867014 3.63226415,66.2867014 Z" fill="#263649"></path>
                        </g>
                        <path d="M253.017655,126.05229 L253.002615,126.059811 C252.912372,125.074499 252.273154,124.141837 251.047358,123.434819 L250.257736,122.976009 C247.332372,121.283679 242.218625,121.49428 238.834528,123.449862 L215.002965,137.206627 C213.213154,138.24459 212.273127,139.560847 212.220485,140.816932 L212.205445,140.824454 L212.205445,144.976304 L212.212965,144.976304 C212.212965,146.051874 212.852183,147.082315 214.183261,147.841984 L214.972884,148.300793 C217.898248,149.993124 223.011995,149.782523 226.396092,147.826941 L250.227655,134.070175 C251.964825,133.06982 252.897332,131.798691 253.010135,130.572692 L253.025175,130.565171 L253.025175,126.05229 L253.017655,126.05229 Z" id="Path" fill="#5351AF"></path>
                        <path d="M214.972884,144.261765 L214.183261,143.802955 C211.257898,142.110625 211.626388,139.162209 215.002965,137.206627 L238.834528,123.449862 C242.211105,121.49428 247.324852,121.283679 250.257736,122.976009 L251.047358,123.434819 C253.972722,125.127149 253.604232,128.075565 250.227655,130.031146 L226.396092,143.787912 C223.011995,145.743494 217.898248,145.954095 214.972884,144.261765 Z" id="Path" fill="url(#linearGradient-9)"></path>
                        <g transform="translate(0.000000, 55.658866)" id="Path">
                            <polygon fill="url(#linearGradient-10)" opacity="0.5" points="200.391186 167.706182 0.661778976 52.4020706 78.9697844 7.19052383 278.699191 122.487114"></polygon>
                            <polygon fill="url(#linearGradient-11)" points="0.661778976 45.4221479 0.661778976 52.4020706 200.391186 167.706182 278.699191 122.487114 278.699191 115.499669 200.391186 160.718738"></polygon>
                            <polygon fill="url(#linearGradient-12)" points="200.391186 160.718738 0.661778976 45.4221479 78.9697844 0.203079648 278.699191 115.499669"></polygon>
                            <polygon fill="#FFFFFF" points="200.391186 160.004198 1.27843666 45.0686389 0.661778976 45.4221479 200.391186 160.718738 278.699191 115.499669 278.082534 115.14616"></polygon>
                        </g>
                        <path d="M176.619784,132.129636 C176.619784,132.129636 182.222345,134.130347 186.501348,133.415807 C190.78035,132.701268 211.393261,132.30263 211.393261,132.30263 L208.152049,130.429784 L200.925121,125.397922 L183.019488,126.608878 L176.10841,129.083441 L176.619784,132.129636 Z" id="Path" fill="#180D5B" opacity="0.3"></path>
                        <path d="M198.375768,117.996797 C198.345687,117.883975 198.247925,117.80876 198.135121,117.80876 C196.69876,117.771153 187.388733,117.50038 183.869272,116.281902 C180.049003,114.965645 176.003127,115.206332 175.800081,115.424455 C175.597035,115.642577 169.242453,118.342784 168.858922,119.440919 C168.520512,120.411188 167.911375,123.788328 168.753639,125.036891 C169.595903,126.285455 169.994474,127.120338 169.994474,127.120338 L170.656253,127.188031 C170.656253,127.188031 171.513558,128.87284 171.994852,129.467036 C172.205418,129.730288 172.370863,130.016103 172.513747,130.324484 C172.912318,131.189453 173.619218,132.626053 173.912507,132.656139 C174.333639,132.701268 176.303935,133.092384 176.80027,132.964519 C177.206361,132.859219 177.574852,131.610655 177.409407,131.061588 C177.364286,130.911158 177.439488,130.775772 177.597412,130.745686 C178.507358,130.595257 180.958949,130.286876 184.365606,130.595257 C188.509245,130.978851 194.359973,128.263601 194.893908,128.015393 C194.923989,128.00035 194.94655,127.992828 194.976631,127.992828 L200.819838,127.466326 C200.985283,127.451283 201.098086,127.28581 201.052965,127.12786 L198.375768,117.996797 Z" id="Path" fill="#FCD1C5"></path>
                        <path d="M240.458895,66.3318302 C239.052615,64.112997 238.405876,65.7526771 236.518302,67.5803939 C233.968949,70.0549571 230.772857,73.890906 229.12593,78.7347316 C226.125364,87.5498927 227.200755,109.595317 228.208464,112.746812 C228.208464,112.746812 200.19566,117.334908 198.255445,117.252172 C196.315229,117.169435 200.661914,130.963809 200.661914,130.963809 C200.661914,130.963809 245.392156,129.504644 246.535229,128.692325 C247.678302,127.880006 247.881348,116.37216 247.776065,109.700617 C247.678302,103.984301 247.783585,77.9148916 240.458895,66.3318302 Z" id="Path" fill="#4846A5"></path>
                        <path d="M200.661914,130.97133 C200.661914,130.97133 245.392156,129.512165 246.535229,128.699847 C247.678302,127.887528 247.881348,116.379681 247.776065,109.708139 C247.700863,105.029785 247.753504,86.7225311 243.76027,73.875863 C246.896199,84.7519064 245.249272,123.209175 243.820431,125.164756 C242.39159,127.12786 199.84221,128.248558 199.84221,128.248558 L199.84221,128.248558 C200.308464,129.850631 200.661914,130.97133 200.661914,130.97133 Z" id="Path" fill="#24126A"></path>
                        <path d="M120.473854,108.060937 C120.473854,108.060937 136.469353,95.5602565 138.755499,94.3493001 C141.041644,93.1383437 142.004232,92.2207246 142.004232,92.2207246 L136.649838,89.129401 L127.595499,92.8525279 L116.187332,104.157295 L98.627628,116.605325 L98.627628,119.493569 C98.627628,119.493569 113.111563,113.273315 114.73593,112.212788 C116.360296,111.159782 120.473854,108.060937 120.473854,108.060937 Z" id="Path" fill="#180D5B" opacity="0.3"></path>
                        <path d="M110.938221,119.380747 C110.938221,119.380747 114.344879,116.334552 116.540782,115.319154 C118.736685,114.303756 122.233585,111.603549 122.662237,109.535145 C123.090889,107.466741 126.730674,102.90121 126.730674,102.90121 L120.902507,106.263306 L112.464825,111.137218 L98.417062,119.290489 C98.417062,119.290489 99.2743666,120.275802 101.056658,119.674084 C102.838949,119.072367 106.170404,116.943791 107.727089,116.748233 C109.283774,116.560196 111.855687,116.078822 111.855687,116.078822 L110.938221,119.380747 Z" id="Path" fill="#2D2D2D" opacity="0.63"></path>
                        <path d="M112.765633,95.1841831 C112.765633,95.1841831 112.600189,96.3124034 110.652453,97.4180593 C108.712237,98.5237151 103.726334,100.975714 102.921671,101.682732 C102.117008,102.38975 98.522345,105.541245 98.417062,105.954926 C98.311779,106.368607 97.2363881,109.941304 97.2439084,110.151905 C97.2514286,110.362506 97.5973585,112.017229 97.5973585,112.017229 L96.4918868,117.289779 C96.4918868,117.289779 95.0856065,119.335618 96.6122102,119.892207 C98.138814,120.448796 99.0036388,118.869287 99.0261995,118.6286 C99.0261995,118.6286 101.334906,117.530466 103.026954,116.22173 C104.719003,114.912995 111.509757,109.444887 112.66035,109.783353 C113.810943,110.121819 112.750593,112.077401 112.201617,112.415867 C111.645121,112.754333 108.050458,116.266859 109.554501,118.711336 C111.058544,121.155814 112.043693,117.327386 113.043881,116.552675 C114.03655,115.777964 116.187332,112.716726 117.510889,112.333131 C118.826927,111.957058 121.225876,107.030496 121.541725,104.834227 C121.857574,102.637958 123.429299,101.216401 123.985795,100.501861 C124.549811,99.7873218 122.77504,94.3267357 122.77504,94.3267357 L116.051968,92.2357675 L113.69814,93.7701471 L112.765633,95.1841831 Z" id="Path" fill="#FCD1C5"></path>
                        <path d="M173.438733,58.283859 C173.438733,58.283859 173.190566,48.265263 174.897655,40.5708008 C174.431402,40.9318313 173.980189,41.3229476 173.566577,41.7516713 C171.145067,44.2788847 167.76097,47.43038 164.497197,49.1979251 C158.465984,52.4547209 140.349784,62.5184457 140.349784,62.5184457 L136.988248,65.1283952 C126.362183,73.4621823 114.495283,91.5889212 112.765633,95.1841831 C113.600377,94.0710058 115.736119,92.2508104 119.827116,94.4320363 C125.474798,97.4331022 122.782561,101.945983 122.782561,101.945983 C130.994636,96.0641949 150.539677,74.3647585 150.539677,74.3647585 C155.367655,73.3568817 169.85159,67.9489459 171.656442,67.2720137 C172.814555,64.2483834 173.498895,61.2172316 173.438733,58.283859 Z" id="Path" fill="#4846A5"></path>
                    </g>
                    <g transform="translate(70.690027, 71.453950)" id="Path">
                        <g transform="translate(0.752022, 29.333727)">
                            <path d="M0.36097035,25.7760723 L4.24140162,27.8068688 L43.1509973,5.34024259 C43.8052561,4.96416917 44.9408086,5.00929798 45.6928302,5.44554315 L112.803235,44.20367 C113.442453,43.8426395 116.375337,42.4361249 116.375337,42.4361249 L114.954016,46.1366874 C114.954016,46.1366874 114.946496,46.129166 114.946496,46.129166 C114.886334,46.2946383 114.758491,46.4450676 114.547925,46.5729326 L73.5627493,70.2354723 C72.9084906,70.6115457 71.772938,70.5664169 71.0209164,70.1301717 L2.33878706,30.4694687 C2.03045822,30.2889534 1.84245283,30.0783523 1.75973046,29.8602297 L1.75221024,29.8602297 L0.36097035,25.7760723 Z" fill="url(#linearGradient-13)"></path>
                            <path d="M0.962587601,26.4153972 L71.3518059,67.0614126 C72.1188679,67.5051793 73.2845013,67.5578295 73.9538005,67.1667132 L115.954205,42.9099775 C116.623504,42.5263826 116.540782,41.8494504 115.766199,41.4056838 L45.3769811,0.759668313 C44.6099191,0.315901675 43.4442857,0.263251395 42.7749865,0.654367754 L0.77458221,24.9111035 C0.105283019,25.2946984 0.188005391,25.9716305 0.962587601,26.4153972 Z" fill="url(#linearGradient-14)"></path>
                            <path d="M0.962587601,26.0092379 L71.3518059,66.6552533 C72.1188679,67.09902 73.2845013,67.1516702 73.9538005,66.7605539 L115.954205,42.5038182 C116.172291,42.3759532 116.300135,42.2180024 116.360296,42.0525301 C116.46558,42.3684317 116.337736,42.6918549 115.954205,42.9099775 L73.9538005,67.1667132 C73.2845013,67.5503081 72.1188679,67.5051793 71.3518059,67.0614126 L0.962587601,26.4153972 C0.443692722,26.1145384 0.248167116,25.7159006 0.368490566,25.3699131 C0.443692722,25.5955571 0.639218329,25.8212012 0.962587601,26.0092379 Z" fill="#FFFFFF"></path>
                            <g transform="translate(11.280323, 14.290790)">
                                <path d="M80.9927224,34.1324238 L22.5004852,0.353509017 C22.109434,0.127864964 21.6281402,0.127864964 21.2370889,0.353509017 L0.406091644,12.4029015 C0.105283019,12.5758952 0.105283019,13.0046189 0.406091644,13.1776127 L58.868248,46.9339631 C59.2592992,47.1596071 59.740593,47.1596071 60.124124,46.9339631 L80.9776819,34.8996136 C81.293531,34.7416627 81.293531,34.3054176 80.9927224,34.1324238 Z" fill="#ADB1F2"></path>
                                <path d="M80.9927224,34.9146565 L80.7821563,35.035 L22.5004852,1.38395019 C22.109434,1.15830614 21.6281402,1.15830614 21.2370889,1.38395019 L0.616657682,13.3129991 L0.406091644,13.1926556 C0.105283019,13.0196619 0.105283019,12.5909382 0.406091644,12.4179444 L21.2370889,0.368551954 C21.6281402,0.1429079 22.109434,0.1429079 22.5004852,0.368551954 L80.9927224,34.1474667 C81.293531,34.3054176 81.293531,34.7416627 80.9927224,34.9146565 Z" fill="#9198DB"></path>
                                <g transform="translate(3.008086, 1.504294)" fill="#24126A">
                                    <polygon points="16.6572776 1.91045298 70.5396226 33.0192465 73.2092992 31.9511979 18.9208625 0.601717475"></polygon>
                                    <polygon points="11.1223989 5.10707707 58.7780054 32.6281301 61.0340701 31.3193946 13.3784636 3.80586303"></polygon>
                                    <polygon points="7.51269542 7.19052383 63.6210243 39.5930099 65.8846092 38.2842744 9.77628032 5.88178832"></polygon>
                                    <polygon points="3.91051213 9.27397059 60.018841 41.6764566 62.2749057 40.3677211 6.16657682 7.96523508"></polygon>
                                    <polygon points="0.300808625 11.3574173 56.4091375 43.7523819 58.6727224 42.4511679 2.55687332 10.0486818"></polygon>
                                    <polygon points="70.5396226 33.0192465 72.7956873 34.327982 75.0592722 33.0192465 72.7956873 31.7180324"></polygon>
                                    <polygon points="56.0406469 31.0411003 67.2608086 37.5246061 69.5168733 36.2158705 58.2139892 29.6947574"></polygon>
                                </g>
                            </g>
                            <g transform="translate(54.897574, 15.795084)">
                                <path d="M16.5519946,17.4949356 L0.782102426,8.38643731 C0.165444744,8.0329283 0.165444744,7.45377523 0.782102426,7.10026621 L11.5660916,0.872490339 C12.1827493,0.518981322 13.182938,0.518981322 13.7995957,0.872490339 L29.5694879,9.98098862 C30.1861456,10.3344976 30.1861456,10.9136507 29.5694879,11.2671597 L18.7854987,17.4949356 C18.168841,17.8484446 17.1686523,17.8484446 16.5519946,17.4949356 Z" fill="url(#linearGradient-15)"></path>
                                <path d="M29.5694879,10.5074914 L13.7995957,1.39899313 C13.182938,1.04548411 12.1827493,1.04548411 11.5660916,1.39899313 L0.782102426,7.626769 C0.594097035,7.73959103 0.466253369,7.86745599 0.391051213,8.01036389 C0.225606469,7.70198368 0.353450135,7.34847467 0.782102426,7.10026621 L11.5660916,0.872490339 C12.1827493,0.518981322 13.182938,0.518981322 13.7995957,0.872490339 L29.5694879,9.98098862 C29.9981402,10.2291971 30.1184636,10.5751846 29.9605391,10.8910863 C29.8853369,10.7481784 29.7574933,10.612792 29.5694879,10.5074914 Z" fill="#9198DB"></path>
                            </g>
                        </g>
                        <g>
                            <path d="M1.22579515,54.0643152 L10.1222102,1.27112817 L9.40778976,0.970269429 L10.4831806,0.353509017 L10.4831806,0.361030485 C10.6937466,0.225644053 10.987035,0.233165522 11.3104043,0.421202233 L82.4215633,41.4808985 C83.0081402,41.8193645 83.4443127,42.6843334 83.3465499,43.2860509 L74.3749326,96.5004401 C74.3298113,96.7787344 74.1944474,96.9592497 73.9989218,97.0419858 L73.9989218,97.0419858 L72.9460916,97.6512248 L72.7656065,96.6659124 L72.8257682,96.6809553 L2.14326146,55.8694676 C1.56420485,55.538523 1.12051213,54.6735541 1.22579515,54.0643152 Z" fill="url(#linearGradient-16)"></path>
                            <path d="M82.0229919,42.9174989 L83.1886253,42.3985176 C83.316469,42.6993763 83.3841509,43.015278 83.3390296,43.2785294 L74.3749326,96.5004401 C74.3298113,96.7787344 74.1944474,96.9592497 73.9989218,97.0419858 L73.9989218,97.0419858 L72.9460916,97.6512248 L72.7656065,96.6659124 L72.8257682,96.6809553 L69.2461456,94.6125515 L82.0229919,42.9174989 Z" fill="url(#linearGradient-17)"></path>
                            <path d="M1.03026954,56.5163139 L72.1414286,97.5760101 C72.6904043,97.8919118 73.1641779,97.7113965 73.2544205,97.1397649 L82.2260377,43.9253757 C82.3313208,43.3236582 81.887628,42.4586894 81.3010512,42.1202233 L10.1898922,1.06052705 C9.64091644,0.744625376 9.16714286,0.925140618 9.07690027,1.49677222 L0.105283019,54.7111614 C0.00752021563,55.3128789 0.451212938,56.1778478 1.03026954,56.5163139 Z" fill="#453C9E"></path>
                        </g>
                    </g>
                </g>
                <g id="Group" transform="translate(0.000000, 173.000000)" fill="#00A3FF">
                    <g opacity="0.6" transform="translate(82.233083, 48.140671)" id="Path">
                        <polygon points="89.4529968 6.67951807 79.9320656 1.20351677 82.0142978 0.00752197981 91.5276847 5.48352328"></polygon>
                        <polygon points="97.5706847 11.3581895 92.8177634 8.62018886 94.8924512 7.42419407 99.6453726 10.1621947"></polygon>
                        <polygon points="87.3933976 11.0949202 83.342098 8.76310648 85.4167859 7.56711169 89.4680855 9.90644741"></polygon>
                        <polygon points="94.1832852 15.0063497 89.4303639 12.2683491 91.5050518 11.0723543 96.2579731 13.8103549"></polygon>
                        <polygon points="97.1708357 22.3252361 78.4760119 11.5688049 80.5506998 10.3728102 99.2455236 21.1367633"></polygon>
                        <polygon points="43.8174079 43.6274829 25.1150398 32.8635298 27.1897276 31.675057 45.8920958 42.4314881"></polygon>
                        <polygon points="51.0071444 47.7720938 46.2466788 45.0265711 48.3213667 43.8380983 53.0818323 46.576099"></polygon>
                        <polygon points="77.6612254 16.6987952 73.6099258 14.3669814 75.6846137 13.1709866 79.7359133 15.5028004"></polygon>
                        <polygon points="84.4586573 20.6102247 79.6981917 17.872224 81.7728795 16.6762292 86.5333452 19.4142299"></polygon>
                        <polygon points="79.0267472 23.084956 68.7438397 17.1651579 70.8185276 15.9691631 81.1014351 21.8889613"></polygon>
                        <polygon points="85.9071667 27.0415174 81.146701 24.3035168 83.2213889 23.107522 87.9818545 25.8530446"></polygon>
                        <polygon points="92.8177634 31.0281667 88.064842 28.2901661 90.1395299 27.0941713 94.8924512 29.8321719"></polygon>
                        <polygon points="103.983356 37.4519375 94.9829831 32.2692934 97.0576709 31.0732986 106.058044 36.2559427"></polygon>
                        <polygon points="88.8569956 39.9417128 84.09653 37.2037121 86.1712178 36.0152393 90.9316835 38.75324"></polygon>
                        <polygon points="100.015044 46.3730055 91.014671 41.1903614 93.0893589 39.9943667 102.089732 45.1770107"></polygon>
                        <polygon points="63.7721331 25.5070335 59.0116675 22.7690329 61.0863554 21.5730381 65.846821 24.3110387"></polygon>
                        <polygon points="70.6902741 29.4861609 65.9298085 26.7481602 68.0044964 25.5521654 72.764962 28.2901661"></polygon>
                        <polygon points="81.8483227 35.9099316 72.8479495 30.7272875 74.9226374 29.5388147 83.9230106 34.7214588"></polygon>
                        <polygon points="100.475248 41.0323999 95.7223264 38.2943992 97.7970143 37.0984044 102.549936 39.8364051"></polygon>
                        <polygon points="107.393389 45.0115272 102.632923 42.2735265 104.707611 41.0850537 109.468077 43.8230544"></polygon>
                        <polygon points="118.551437 51.4428199 109.551064 46.2601758 111.625752 45.064181 120.626125 50.2468251"></polygon>
                        <polygon points="58.4458435 52.0521003 53.6929222 49.3140996 55.7676101 48.1181049 60.5205314 50.8561055"></polygon>
                        <polygon points="69.6114364 58.4758711 60.6110632 53.293227 62.6857511 52.1047542 71.6861243 57.2873982"></polygon>
                        <polygon points="54.0399609 31.1109085 49.2870396 28.3653859 51.3617275 27.1769131 56.1146488 29.9149137"></polygon>
                        <polygon points="65.2055538 37.5346793 56.1976363 32.3520352 58.2723242 31.1560404 67.2802417 36.3386845"></polygon>
                        <polygon points="59.6303017 58.3329534 54.8698361 55.5949528 56.9520682 54.398958 61.7049896 57.1444806"></polygon>
                        <polygon points="70.7958946 64.7567242 61.7879771 59.5740801 63.8626649 58.3856073 72.8705825 63.5682514"></polygon>
                        <polygon points="111.399422 30.5166721 106.638957 27.7786714 108.713645 26.5826767 113.47411 29.3206773"></polygon>
                        <polygon points="104.202142 26.3720612 99.4416759 23.6340606 101.516364 22.4380658 106.276829 25.1835884"></polygon>
                        <polygon points="122.557471 36.9404429 113.557098 31.7577988 115.631786 30.561804 124.632159 35.7444481"></polygon>
                        <polygon points="68.1704714 22.4380658 63.8777536 19.9633344 65.9524415 18.7748616 70.2451593 21.242071"></polygon>
                        <polygon points="80.9052828 29.7644741 70.4714889 23.7619342 72.5461767 22.5659394 82.9799707 28.5684793"></polygon>
                        <polygon points="93.6325499 37.0908824 83.1987559 31.0883426 85.2734438 29.8923478 95.7072377 35.9024096"></polygon>
                        <polygon points="129.173839 40.7465646 124.881121 38.2793553 126.955809 37.0833605 131.248527 39.5505698"></polygon>
                        <polygon points="141.901106 48.072973 131.467312 42.0704331 133.542 40.8744383 143.975794 46.8769782"></polygon>
                        <polygon points="154.628373 55.3993813 144.194579 49.3968414 146.269267 48.2008466 156.703061 54.2109085"></polygon>
                        <polygon points="64.6774515 31.6299251 54.2436575 25.6198632 56.3183454 24.4238684 66.7521393 30.4339303"></polygon>
                        <polygon points="70.1772604 34.7966786 66.9709246 32.9462716 69.0456125 31.7577988 72.2519483 33.6006838"></polygon>
                        <polygon points="75.692158 37.9634321 72.4858222 36.1205471 74.5605101 34.9245523 77.7668459 36.7749593"></polygon>
                        <polygon points="85.8769894 43.8305764 77.9931755 39.2948225 80.0678633 38.0988277 87.9516773 42.6421035"></polygon>
                        <polygon points="88.0195761 45.064181 80.1357622 40.5284272 82.2104501 39.3324324 90.094264 43.8681863"></polygon>
                        <polygon points="109.302102 40.5133833 106.095766 38.6704982 108.170454 37.4745034 111.376789 39.3173885"></polygon>
                        <polygon points="119.494477 46.3805275 111.610663 41.8447737 113.685351 40.6487789 121.569165 45.1845327"></polygon>
                        <polygon points="121.637064 47.6141322 113.75325 43.0783784 115.827938 41.8823836 123.711752 46.4181374"></polygon>
                        <polygon points="42.5122406 54.0830348 32.2368774 48.1632367 34.3115653 46.9747639 44.5869285 52.8870401"></polygon>
                        <polygon points="49.3926601 58.0471182 44.6397387 55.3091176 46.7144266 54.1131228 51.4673479 56.8511234"></polygon>
                        <polygon points="56.3108011 62.0262455 51.5578798 59.2882449 53.6325676 58.0922501 58.385489 60.8302507"></polygon>
                        <polygon points="67.476394 68.4500163 58.4684765 63.2673722 60.5431643 62.0713774 69.5510819 67.2540215"></polygon>
                        <polygon points="74.6133203 72.5645392 69.8528547 69.8190166 71.9275425 68.6305438 76.6880082 71.3685444"></polygon>
                        <polygon points="85.7789132 78.98831 76.7709957 73.8056659 78.8456836 72.6096711 87.8536011 77.7923152"></polygon>
                        <polygon points="43.5382681 65.8699772 38.7778025 63.1319766 40.8524903 61.9359818 45.612956 64.6815044"></polygon>
                        <polygon points="54.6963167 72.3012699 45.6959435 67.1186259 47.7706314 65.9226311 56.7710046 71.1052752"></polygon>
                        <polygon points="18.6872795 51.5706936 13.9268139 48.825171 16.0015018 47.6366981 20.7619674 50.3746988"></polygon>
                        <polygon points="25.5978762 55.5498209 20.8449549 52.8118203 22.9196428 51.6158255 27.6725641 54.3538261"></polygon>
                        <polygon points="36.7634691 61.9735917 27.7555516 56.7909476 29.8302395 55.5949528 38.838157 60.7775969"></polygon>
                        <polygon points="31.6635091 53.4361446 27.3707913 50.9689352 29.4454792 49.7729404 33.738197 52.2476718"></polygon>
                        <polygon points="44.3907762 60.7625529 33.9569823 54.760013 36.0316701 53.5640182 46.4654641 59.5740801"></polygon>
                        <polygon points="57.1255876 68.0964832 46.6917937 62.0864214 48.7664815 60.8904266 59.2002755 66.9004884"></polygon>
                        <polygon points="11.1731372 52.8419082 0.739343315 46.8393683 2.81403119 45.6433735 13.2478251 51.6534354"></polygon>
                        <polygon points="16.6729462 56.0086617 13.4666104 54.1657766 15.5412983 52.9697818 18.7476341 54.8126669"></polygon>
                        <polygon points="22.1802995 59.1829372 18.981508 57.3400521 21.0561959 56.1440573 24.2625317 57.9869424"></polygon>
                        <polygon points="32.3726752 65.0500814 24.4888612 60.5143276 26.5635491 59.3183328 34.447363 63.8540866"></polygon>
                        <polygon points="34.5152619 66.2836861 26.631448 61.7479323 28.7061359 60.5519375 36.5899498 65.0876913"></polygon>
                        <polygon points="31.8747501 42.3562683 28.6684143 40.5133833 30.7431021 39.3173885 33.949438 41.1602735"></polygon>
                        <polygon points="42.0595815 48.2234126 34.1833119 43.6876587 36.2579997 42.491664 44.1418137 47.0274178"></polygon>
                        <polygon points="52.4782868 54.2184305 44.5944728 49.6751547 46.6691607 48.4866819 54.5529746 53.0224357"></polygon>
                        <polygon points="84.5944551 83.9076848 79.8415337 81.1696841 81.9162216 79.9736894 86.6691429 82.71169"></polygon>
                        <polygon points="95.760048 90.3314556 86.7521304 85.1488115 88.8268183 83.9603387 97.8347359 89.1429827"></polygon>
                        <polygon points="67.0312792 73.7981439 59.1474652 69.2548681 61.2221531 68.0663953 69.105967 72.6021491"></polygon>
                        <polygon points="77.4424401 79.7856399 69.5586262 75.249886 71.6333141 74.0538912 79.517128 78.597167"></polygon>
                        <polygon points="39.4492469 28.30521 36.2429111 26.462325 38.317599 25.2663302 41.5239348 27.1092152"></polygon>
                        <polygon points="49.6416226 34.1723543 41.7578087 29.6366005 43.8324966 28.4406057 51.7163105 32.9763595"></polygon>
                        <polygon points="60.0527836 40.1673722 52.1689697 35.6316184 54.2436575 34.4356236 62.1274715 38.9713774"></polygon>
                    </g>
                    <path d="M13.5495979,65.4261804 C12.2746079,65.4261804 11.0599725,65.1704331 10.1546541,64.6438945 L1.86344693,59.8749593 C0.935495624,59.3408987 0.422481895,58.5887007 0.422481895,57.753761 C0.422481895,56.7683816 1.14673657,55.7905243 2.39909362,55.0684142 L27.0690185,40.8669163 C29.3624917,39.5430479 32.8555116,39.4076522 34.847212,40.5585151 L43.1384192,45.3349723 C44.0663705,45.8690329 44.5793842,46.6212309 44.5793842,47.4561706 C44.5793842,48.44155 43.8626738,49.4194074 42.6027725,50.1415174 L17.9328476,64.3430153 C16.6804905,65.0576034 15.0735505,65.4261804 13.5495979,65.4261804 Z M31.4447239,40.3403777 C30.0263918,40.3403777 28.5175279,40.6863888 27.3481584,41.363367 L2.67823344,55.5648649 C1.60694006,56.1816672 0.98830586,56.9789971 0.98830586,57.753761 C0.98830586,58.3780853 1.39569912,58.9497558 2.14258675,59.3785086 L10.4337939,64.1474438 C12.2670636,65.200521 15.5035767,65.0651254 17.6386191,63.8390427 L42.308544,49.6375448 C43.3873817,49.0207424 43.9984716,48.2158906 43.9984716,47.4411267 C43.9984716,46.8168023 43.5910783,46.2451319 42.8441907,45.816379 L34.5529835,41.0399218 C33.7306527,40.5810811 32.6140934,40.3403777 31.4447239,40.3403777 Z" id="Shape"></path>
                    <path d="M58.0610832,91.0535656 C56.7860932,91.0535656 55.5714578,90.7978183 54.6661394,90.2712797 L27.0162083,74.3547704 C26.088257,73.8207099 25.5752433,73.0685119 25.5752433,72.2335721 C25.5752433,71.2481928 26.2994979,70.2703354 27.551855,69.5482253 L52.2217799,55.3467275 C54.515253,54.030381 58.008273,53.8874634 59.9999733,55.0383263 L87.6499045,70.9548356 C88.5778558,71.4888961 89.0908695,72.2410941 89.0908695,73.0760339 C89.0908695,74.0614132 88.3741592,75.0392706 87.1142578,75.7613807 L62.4443329,89.9628785 C61.1919758,90.6849886 59.5850358,91.0535656 58.0610832,91.0535656 Z M56.6050295,54.8277108 C55.1866975,54.8277108 53.6778336,55.1737219 52.508464,55.8507001 L27.8385391,70.052198 C26.7672457,70.6690003 26.1486115,71.4663302 26.1486115,72.2410941 C26.1486115,72.8654184 26.5560048,73.4370889 27.3028924,73.8658417 L54.9528236,89.782351 C56.7860932,90.8429502 60.0226063,90.7000326 62.1576487,89.4739499 L86.8275736,75.272452 C87.9064113,74.6556496 88.5175012,73.8507978 88.5175012,73.0760339 C88.5175012,72.4592315 88.110108,71.8800391 87.3632203,71.4512862 L59.7132892,55.5347769 C58.8909584,55.0608922 57.7743991,54.8277108 56.6050295,54.8277108 Z" id="Shape"></path>
                    <path d="M98.9135736,67.4646369 C97.578229,67.4646369 96.303239,67.1938457 95.3451104,66.6447411 L42.9045453,36.4590361 C41.931328,35.9024096 41.3956813,35.1126018 41.3956813,34.2400521 C41.3956813,33.2095409 42.1501133,32.1865516 43.4703692,31.4268317 L94.7792864,1.88801693 C97.1859244,0.503972647 100.852464,0.353533051 102.949785,1.5645718 L155.39035,31.7502768 C156.363567,32.3069033 156.899214,33.0967112 156.899214,33.9692608 C156.899214,34.9997721 156.144782,36.0227613 154.824526,36.7824813 L103.515608,66.321296 C102.202897,67.073494 100.512969,67.4646369 98.9135736,67.4646369 Z M95.6317946,66.1558124 C97.5706847,67.2690655 100.980717,67.1261478 103.228924,65.8323673 L154.537842,36.2935526 C155.669489,35.6391403 156.325845,34.7966786 156.325845,33.9767828 C156.325845,33.3148486 155.895819,32.7055682 155.103666,32.2542494 L102.6631,2.06854445 C100.72421,0.955291436 97.3217221,1.09820905 95.0659706,2.39198958 L43.7570534,31.9232823 C42.6178611,32.5776946 41.9690496,33.4201563 41.9690496,34.2400521 C41.9690496,34.9019863 42.3990758,35.5112667 43.1912294,35.9625855 L95.6317946,66.1558124 Z" id="Shape"></path>
                </g>
            </g>
        </g>
    </g>
</svg>