<?xml version="1.0" encoding="UTF-8"?>
<svg width="313px" height="280px" viewBox="0 0 313 280" version="1.1" xmlns="http://www.w3.org/2000/svg" xmlns:xlink="http://www.w3.org/1999/xlink">
    <!-- Generator: Sketch 53.2 (72643) - https://sketchapp.com -->
    <title>S02 E02</title>
    <desc>Created with Sketch.</desc>
    <g id="Page-1" stroke="none" stroke-width="1" fill="none" fill-rule="evenodd">
        <g id="Section_02" transform="translate(-40.000000, -15.000000)" fill="#00A3FF" fill-rule="nonzero">
            <g id="S02-E02" transform="translate(196.500000, 155.000000) scale(-1, 1) translate(-196.500000, -155.000000) translate(40.000000, 15.000000)">
                <g id="Group">
                    <path d="M312.631322,268.206971 L287.10226,253.951743 C281.376466,250.753887 276.342885,243.712601 274.574736,236.423592 L252.469111,145.292225 C249.858269,134.520107 241.168005,126.743164 235.013341,126.510456 C231.928486,126.382842 229.723942,128.07185 228.648005,131.367292 L221.989231,151.793029 C221.221779,154.157641 219.769639,155.801609 217.790817,156.559786 C215.405697,157.475603 212.403606,157.002681 209.333798,155.231099 L204.721563,152.573727 C199.304255,149.450938 194.549063,142.957641 192.615385,136.013941 C189.703582,125.587131 181.61524,118.598391 175.791635,118.102949 C172.909928,117.847721 170.712909,119.153887 169.433822,121.848794 L162.127981,137.305094 C161.23262,139.20429 159.803053,140.502949 157.98976,141.065952 C155.67988,141.786595 152.813221,141.268633 149.92399,139.602145 L144.649639,136.56193 C138.863654,133.228954 133.867692,126.060054 132.219928,118.726005 L110.129351,20.2831099 C107.706611,9.48096515 99.0539663,1.50134048 92.7939663,1.09597855 C89.7316827,0.915817694 87.4819952,2.45469169 86.3232933,5.6150134 L50.4411538,103.427346 C49.6285577,105.641823 48.1839423,107.188204 46.2502644,107.886327 C43.8801923,108.749598 40.9157212,108.261662 37.8985817,106.520107 L19.758125,96.0707775 L20.0590865,95.5453083 L38.1995433,105.994638 C41.0586779,107.638606 43.8425721,108.111528 46.0395913,107.315818 C47.7926923,106.685255 49.1169231,105.266488 49.8618029,103.224665 L85.7439423,5.41233244 C86.9854087,2.02680965 89.4909135,0.285254692 92.8240625,0.495442359 C99.2947356,0.915817694 108.233293,9.09812332 110.716226,20.155496 L132.799279,118.605898 C134.386851,125.669705 139.375288,132.846113 144.935553,136.043968 L150.209904,139.084182 C152.948654,140.66059 155.64226,141.171046 157.794135,140.495442 C159.441899,139.984987 160.743558,138.791421 161.563678,137.057373 L168.869519,121.601072 C170.246418,118.695979 172.706779,117.239678 175.829255,117.502413 C181.85601,118.012869 190.207692,125.174263 193.187212,135.8563 C195.053173,142.544772 199.808365,149.053083 205.015,152.048257 L209.627236,154.70563 C212.539038,156.379625 215.353029,156.837534 217.565096,155.989276 C219.363341,155.29866 220.695096,153.782306 221.402356,151.597855 L228.06113,131.172118 C229.212308,127.643968 231.702764,125.789812 235.028389,125.894906 C241.536683,126.142627 250.332284,133.942091 253.055986,145.142091 L275.161611,236.273458 C276.892139,243.404826 281.805337,250.288472 287.395697,253.41126 L312.92476,267.666488 L312.631322,268.206971 Z" id="Path"></path>
                    <path d="M293.264447,279.31689 L267.735385,265.061662 C262.009591,261.863807 256.968486,254.815013 255.207861,247.533512 L233.094712,156.402145 C230.48387,145.630027 221.793606,137.853083 215.638942,137.620375 C212.539038,137.507775 210.349543,139.181769 209.273606,142.477212 L202.614832,162.902949 C201.84738,165.26756 200.39524,166.911528 198.416418,167.669705 C196.031298,168.585523 193.021683,168.112601 189.951875,166.341019 L185.339639,163.691153 C180.005096,160.613405 175.137043,153.962466 173.233462,147.131367 C170.321659,136.704558 162.233317,129.715818 156.409712,129.220375 C153.528005,128.972654 151.330986,130.271314 150.051899,132.96622 L142.738534,148.42252 C141.843173,150.321716 140.413606,151.620375 138.600312,152.183378 C136.290433,152.911528 133.423774,152.386059 130.534543,150.719571 L125.260192,147.679357 C119.474207,144.346381 114.478245,137.17748 112.830481,129.843432 L90.7399038,31.4005362 C88.3171635,20.5983914 79.6569952,12.6187668 73.4045192,12.2134048 C70.3422356,12.033244 68.0925481,13.5796247 66.9338462,16.7324397 L31.0517067,114.544772 C30.2391106,116.759249 28.7944952,118.30563 26.8608173,119.003753 C24.4982692,119.859517 21.526274,119.379088 18.5091346,117.637534 L0.361153846,107.188204 L0.662115385,106.662735 L18.8100962,117.112064 C21.6692308,118.763539 24.445601,119.228954 26.6501442,118.433244 C28.4032452,117.802681 29.727476,116.383914 30.4723558,114.342091 L66.3544952,16.5297587 C67.5959615,13.1442359 70.1240385,11.3951743 73.4346154,11.6128686 C79.9052885,12.033244 88.8438462,20.2155496 91.3267788,31.2729223 L113.417356,129.715818 C115.004928,136.779625 119.993365,143.956032 125.561154,147.153887 L130.835505,150.194102 C133.574255,151.770509 136.267861,152.273458 138.419736,151.605362 C140.0675,151.094906 141.369159,149.90134 142.189279,148.167292 L149.502644,132.710992 C150.872019,129.805898 153.347428,128.357105 156.46238,128.612332 C162.489135,129.122788 170.840817,136.284182 173.820337,146.96622 C175.686298,153.654692 180.44149,160.155496 185.648125,163.158177 L190.260361,165.808043 C193.172163,167.482038 195.986154,167.939946 198.198221,167.091689 C199.996466,166.401072 201.328221,164.884718 202.035481,162.700268 L208.694255,142.274531 C209.845433,138.746381 212.350938,136.869705 215.661514,136.997319 C222.169808,137.24504 230.965409,145.044504 233.689111,156.244504 L255.80226,247.375871 C257.532788,254.507239 262.445986,261.390885 268.036346,264.513673 L293.565409,278.768901 L293.264447,279.31689 Z" id="Path"></path>
                    <polygon id="Rectangle" transform="translate(79.397437, 7.158200) rotate(-29.926095) translate(-79.397437, -7.158200) " points="68.1400162 7.14697896 90.6548584 7.16942134 90.6548584 7.16942179 68.1400162 7.14697941"></polygon>
                    <polygon id="Rectangle" transform="translate(161.921595, 124.340182) rotate(-29.938884) translate(-161.921595, -124.340182) " points="150.52115 124.328815 173.322041 124.351548 173.322041 124.351549 150.52115 124.328815"></polygon>
                    <polygon id="Path" points="211.74149 138.746381 211.433005 138.220912 232.033822 126.427882 232.334784 126.953351"></polygon>
                    <path d="M312.631322,268.206971 L287.10226,253.951743 C281.376466,250.753887 276.342885,243.712601 274.574736,236.423592 L252.469111,145.292225 C249.858269,134.520107 241.168005,126.743164 235.013341,126.510456 C231.928486,126.382842 229.723942,128.07185 228.648005,131.367292 L221.989231,151.793029 C221.221779,154.157641 219.769639,155.801609 217.790817,156.559786 C215.405697,157.475603 212.403606,157.002681 209.333798,155.231099 L204.721563,152.573727 C199.304255,149.450938 194.549063,142.957641 192.615385,136.013941 C189.703582,125.587131 181.61524,118.598391 175.791635,118.102949 C172.909928,117.847721 170.712909,119.153887 169.433822,121.848794 L162.127981,137.305094 C161.23262,139.20429 159.803053,140.502949 157.98976,141.065952 C155.67988,141.786595 152.813221,141.268633 149.92399,139.602145 L144.649639,136.56193 C138.863654,133.228954 133.867692,126.060054 132.219928,118.726005 L110.129351,20.2831099 C107.706611,9.48096515 99.0539663,1.50134048 92.7939663,1.09597855 C89.7316827,0.915817694 87.4819952,2.45469169 86.3232933,5.6150134 L50.4411538,103.427346 C49.6285577,105.641823 48.1839423,107.188204 46.2502644,107.886327 C43.8801923,108.749598 40.9157212,108.261662 37.8985817,106.520107 L19.758125,96.0707775 L20.0590865,95.5453083 L38.1995433,105.994638 C41.0586779,107.638606 43.8425721,108.111528 46.0395913,107.315818 C47.7926923,106.685255 49.1169231,105.266488 49.8618029,103.224665 L85.7439423,5.41233244 C86.9854087,2.02680965 89.4909135,0.285254692 92.8240625,0.495442359 C99.2947356,0.915817694 108.233293,9.09812332 110.716226,20.155496 L132.799279,118.605898 C134.386851,125.669705 139.375288,132.846113 144.935553,136.043968 L150.209904,139.084182 C152.948654,140.66059 155.64226,141.171046 157.794135,140.495442 C159.441899,139.984987 160.743558,138.791421 161.563678,137.057373 L168.869519,121.601072 C170.246418,118.695979 172.706779,117.239678 175.829255,117.502413 C181.85601,118.012869 190.207692,125.174263 193.187212,135.8563 C195.053173,142.544772 199.808365,149.053083 205.015,152.048257 L209.627236,154.70563 C212.539038,156.379625 215.353029,156.837534 217.565096,155.989276 C219.363341,155.29866 220.695096,153.782306 221.402356,151.597855 L228.06113,131.172118 C229.212308,127.643968 231.702764,125.789812 235.028389,125.894906 C241.536683,126.142627 250.332284,133.942091 253.055986,145.142091 L275.161611,236.273458 C276.892139,243.404826 281.805337,250.288472 287.395697,253.41126 L312.92476,267.666488 L312.631322,268.206971 Z" id="Path"></path>
                    <path d="M293.264447,279.31689 L267.735385,265.061662 C262.009591,261.863807 256.968486,254.815013 255.207861,247.533512 L233.094712,156.402145 C230.48387,145.630027 221.793606,137.853083 215.638942,137.620375 C212.539038,137.507775 210.349543,139.181769 209.273606,142.477212 L202.614832,162.902949 C201.84738,165.26756 200.39524,166.911528 198.416418,167.669705 C196.031298,168.585523 193.021683,168.112601 189.951875,166.341019 L185.339639,163.691153 C180.005096,160.613405 175.137043,153.962466 173.233462,147.131367 C170.321659,136.704558 162.233317,129.715818 156.409712,129.220375 C153.528005,128.972654 151.330986,130.271314 150.051899,132.96622 L142.738534,148.42252 C141.843173,150.321716 140.413606,151.620375 138.600312,152.183378 C136.290433,152.911528 133.423774,152.386059 130.534543,150.719571 L125.260192,147.679357 C119.474207,144.346381 114.478245,137.17748 112.830481,129.843432 L90.7399038,31.4005362 C88.3171635,20.5983914 79.6569952,12.6187668 73.4045192,12.2134048 C70.3422356,12.033244 68.0925481,13.5796247 66.9338462,16.7324397 L31.0517067,114.544772 C30.2391106,116.759249 28.7944952,118.30563 26.8608173,119.003753 C24.4982692,119.859517 21.526274,119.379088 18.5091346,117.637534 L0.361153846,107.188204 L0.662115385,106.662735 L18.8100962,117.112064 C21.6692308,118.763539 24.445601,119.228954 26.6501442,118.433244 C28.4032452,117.802681 29.727476,116.383914 30.4723558,114.342091 L66.3544952,16.5297587 C67.5959615,13.1442359 70.1240385,11.3951743 73.4346154,11.6128686 C79.9052885,12.033244 88.8438462,20.2155496 91.3267788,31.2729223 L113.417356,129.715818 C115.004928,136.779625 119.993365,143.956032 125.561154,147.153887 L130.835505,150.194102 C133.574255,151.770509 136.267861,152.273458 138.419736,151.605362 C140.0675,151.094906 141.369159,149.90134 142.189279,148.167292 L149.502644,132.710992 C150.872019,129.805898 153.347428,128.357105 156.46238,128.612332 C162.489135,129.122788 170.840817,136.284182 173.820337,146.96622 C175.686298,153.654692 180.44149,160.155496 185.648125,163.158177 L190.260361,165.808043 C193.172163,167.482038 195.986154,167.939946 198.198221,167.091689 C199.996466,166.401072 201.328221,164.884718 202.035481,162.700268 L208.694255,142.274531 C209.845433,138.746381 212.350938,136.869705 215.661514,136.997319 C222.169808,137.24504 230.965409,145.044504 233.689111,156.244504 L255.80226,247.375871 C257.532788,254.507239 262.445986,261.390885 268.036346,264.513673 L293.565409,278.768901 L293.264447,279.31689 Z" id="Path"></path>
                </g>
                <path d="M19.9086058,95.8155496 L38.0565865,106.264879 C43.5039904,109.402681 48.3645192,108.231635 50.1552404,103.337265 L86.0373798,5.52493298 C90.1379808,-5.64504021 106.878966,4.45147453 110.422788,20.230563 L132.513365,118.673458 C134.131034,125.864879 139.126995,133.041287 144.80012,136.314209 L150.074471,139.354424 C155.198341,142.304558 159.833149,141.4563 161.857115,137.192493 L169.170481,121.736193 C173.699952,112.157641 188.800697,121.19571 192.916346,135.946381 L192.916346,135.946381 C194.812404,142.75496 199.57512,149.263271 204.879567,152.318499 L209.491803,154.975871 C215.082163,158.196247 220.025457,156.86756 221.710841,151.702949 L228.369615,131.277212 C232.131635,119.746917 248.925288,129.347989 252.777596,145.224665 L274.883221,236.356032 C276.621274,243.517426 281.639808,250.5437 287.267788,253.689008 L312.796851,267.944236 L19.9086058,95.8155496 Z" id="Path" opacity="0.5"></path>
                <path d="M0.534206731,106.647721 L18.6821875,117.097051 C24.1295913,120.234853 28.9901202,119.063807 30.7808413,114.169437 L66.6629808,16.3571046 C70.7635817,5.18713137 87.5045673,15.2836461 91.0483894,31.0627346 L113.138966,129.50563 C114.756635,136.697051 119.752596,143.873458 125.425721,147.146381 L130.700072,150.186595 C135.823942,153.136729 140.45875,152.288472 142.482716,148.024665 L149.796082,132.568365 C154.325553,122.989812 169.426298,132.027882 173.541947,146.778552 L173.541947,146.778552 C175.438005,153.587131 180.200721,160.095442 185.505168,163.15067 L190.117404,165.808043 C195.707764,169.028418 200.651058,167.699732 202.336442,162.535121 L208.995216,142.109383 C212.757236,130.579088 229.550889,140.180161 233.403197,156.056836 L255.508822,247.188204 C257.246875,254.349598 262.265409,261.375871 267.893389,264.52118 L293.422452,278.776408 L0.534206731,106.647721 Z" id="Path" opacity="0.5"></path>
            </g>
        </g>
    </g>
</svg>