<?xml version="1.0" encoding="UTF-8"?>
<svg width="286px" height="211px" viewBox="0 0 286 211" version="1.1" xmlns="http://www.w3.org/2000/svg" xmlns:xlink="http://www.w3.org/1999/xlink">
    <!-- Generator: Sketch 53.2 (72643) - https://sketchapp.com -->
    <title>S03 E01</title>
    <desc>Created with Sketch.</desc>
    <g id="Page-1" stroke="none" stroke-width="1" fill="none" fill-rule="evenodd">
        <g id="Section_03" transform="translate(-153.000000, -29.000000)" fill-rule="nonzero">
            <g id="S03-E01" transform="translate(153.000000, 29.000000)">
                <path d="M162.641742,209.60869 L34.652129,135.80476 C31.3492903,133.897467 31.7552258,130.571223 35.5747097,128.369083 L110.239161,85.3121834 C114.058645,83.1100437 119.834,82.8704803 123.136839,84.7777729 L251.126452,158.581703 C254.42929,160.488996 254.023355,163.81524 250.203871,166.01738 L175.539419,209.074279 C171.719935,211.276419 165.944581,211.515983 162.641742,209.60869 Z" id="Path" fill="#24126A" opacity="0.4"></path>
                <path d="M285.105097,101.18786 L282.973935,100.911441 C282.74329,100.74559 282.494194,100.588952 282.235871,100.432314 L117.472194,5.41781659 C113.219097,2.96689956 105.783097,3.2709607 100.865742,6.10886463 L4.74206452,61.530917 C3.45967742,62.2680349 2.48174194,63.1065066 1.80825806,63.991048 L0.682709677,63.659345 L0.682709677,66.9763755 L0.691935484,66.9763755 C0.70116129,68.5243231 1.64219355,69.998559 3.56116129,71.1042358 L168.324839,166.10952 C172.577935,168.560437 180.013935,168.256376 184.93129,165.418472 L281.054968,109.996419 C283.804258,108.411616 285.178903,106.375328 285.114323,104.458821 L285.123548,104.458821 L285.123548,101.18786 L285.105097,101.18786 Z" id="Path" fill="#00E7FF"></path>
                <path d="M168.315613,162.783275 L3.54270968,67.7779913 C-0.710387097,65.3270742 -0.184516129,61.0333624 4.73283871,58.2046725 L100.856516,2.78262009 C105.773871,-0.0552838428 113.209871,-0.359344978 117.462968,2.09157205 L282.226645,97.0968559 C286.479742,99.5477729 285.953871,103.841485 281.036516,106.670175 L184.912839,162.092227 C180.00471,164.930131 172.56871,165.243406 168.315613,162.783275 Z" id="Path" fill="#00A3FF"></path>
                <polygon id="Path" fill="#24126A" points="194.895161 156.342707 14.7151613 52.4459389 33.8402581 41.4168122 214.020258 145.313581"></polygon>
            </g>
        </g>
    </g>
</svg>