<?xml version="1.0" encoding="UTF-8"?>
<svg width="557px" height="354px" viewBox="0 0 557 354" version="1.1" xmlns="http://www.w3.org/2000/svg" xmlns:xlink="http://www.w3.org/1999/xlink">
    <!-- Generator: Sketch 53.2 (72643) - https://sketchapp.com -->
    <title>S03 E02</title>
    <desc>Created with Sketch.</desc>
    <defs>
        <linearGradient x1="-0.00152441929%" y1="49.998342%" x2="100.00021%" y2="49.998342%" id="linearGradient-1">
            <stop stop-color="#BCBEFF" offset="0%"></stop>
            <stop stop-color="#A3A7F5" offset="15.1%"></stop>
            <stop stop-color="#8289E8" offset="38.66%"></stop>
            <stop stop-color="#6A73DF" offset="61.24%"></stop>
            <stop stop-color="#5C66D9" offset="82.21%"></stop>
            <stop stop-color="#5761D7" offset="100%"></stop>
        </linearGradient>
        <linearGradient x1="64.2847084%" y1="60.9585183%" x2="35.7118003%" y2="39.0418498%" id="linearGradient-2">
            <stop stop-color="#00A3FF" offset="0%"></stop>
            <stop stop-color="#00A1FD" offset="0.5604863%"></stop>
            <stop stop-color="#0478CE" offset="13.27%"></stop>
            <stop stop-color="#0755A6" offset="26.41%"></stop>
            <stop stop-color="#0A3885" offset="39.82%"></stop>
            <stop stop-color="#0C216C" offset="53.58%"></stop>
            <stop stop-color="#0E125A" offset="67.82%"></stop>
            <stop stop-color="#0F084F" offset="82.85%"></stop>
            <stop stop-color="#0F054C" offset="100%"></stop>
        </linearGradient>
        <radialGradient cx="78.134%" cy="69.46924%" fx="78.134%" fy="69.46924%" r="142.638302%" gradientTransform="translate(0.781340,0.694692),scale(0.575949,1.000000),translate(-0.781340,-0.694692)" id="radialGradient-3">
            <stop stop-color="#00A3FF" offset="0%"></stop>
            <stop stop-color="#00A1FD" offset="0.5604863%"></stop>
            <stop stop-color="#0478CE" offset="13.27%"></stop>
            <stop stop-color="#0755A6" offset="26.41%"></stop>
            <stop stop-color="#0A3885" offset="39.82%"></stop>
            <stop stop-color="#0C216C" offset="53.58%"></stop>
            <stop stop-color="#0E125A" offset="67.82%"></stop>
            <stop stop-color="#0F084F" offset="82.85%"></stop>
            <stop stop-color="#0F054C" offset="100%"></stop>
        </radialGradient>
        <radialGradient cx="44.8920685%" cy="48.4670797%" fx="44.8920685%" fy="48.4670797%" r="139.314203%" gradientTransform="translate(0.448921,0.484671),scale(0.576259,1.000000),translate(-0.448921,-0.484671)" id="radialGradient-4">
            <stop stop-color="#00A3FF" offset="0%"></stop>
            <stop stop-color="#00A1FD" offset="0.5604863%"></stop>
            <stop stop-color="#0478CE" offset="13.27%"></stop>
            <stop stop-color="#0755A6" offset="26.41%"></stop>
            <stop stop-color="#0A3885" offset="39.82%"></stop>
            <stop stop-color="#0C216C" offset="53.58%"></stop>
            <stop stop-color="#0E125A" offset="67.82%"></stop>
            <stop stop-color="#0F084F" offset="82.85%"></stop>
            <stop stop-color="#0F054C" offset="100%"></stop>
        </radialGradient>
        <linearGradient x1="9.93547693%" y1="36.0212017%" x2="89.2750833%" y2="54.2433835%" id="linearGradient-5">
            <stop stop-color="#BCBEFF" offset="0%"></stop>
            <stop stop-color="#AAADF8" offset="22.71%"></stop>
            <stop stop-color="#7C83E5" offset="68.02%"></stop>
            <stop stop-color="#5761D7" offset="100%"></stop>
        </linearGradient>
        <linearGradient x1="0.000537663315%" y1="50.0108954%" x2="99.9929028%" y2="50.0108954%" id="linearGradient-6">
            <stop stop-color="#E9E9FD" offset="0%"></stop>
            <stop stop-color="#D3D2F9" offset="36.01%"></stop>
            <stop stop-color="#C5C4F7" offset="70.62%"></stop>
            <stop stop-color="#C0BFF6" offset="100%"></stop>
        </linearGradient>
        <linearGradient x1="9.93547693%" y1="36.0229985%" x2="89.2751909%" y2="54.245223%" id="linearGradient-7">
            <stop stop-color="#BCBEFF" offset="0%"></stop>
            <stop stop-color="#AAADF8" offset="22.71%"></stop>
            <stop stop-color="#7C83E5" offset="68.02%"></stop>
            <stop stop-color="#5761D7" offset="100%"></stop>
        </linearGradient>
        <linearGradient x1="0.000537663315%" y1="50.0117318%" x2="99.9930104%" y2="50.0117318%" id="linearGradient-8">
            <stop stop-color="#E9E9FD" offset="0%"></stop>
            <stop stop-color="#D3D2F9" offset="36.01%"></stop>
            <stop stop-color="#C5C4F7" offset="70.62%"></stop>
            <stop stop-color="#C0BFF6" offset="100%"></stop>
        </linearGradient>
        <linearGradient x1="9.94235939%" y1="36.1727581%" x2="89.2819658%" y2="54.1992401%" id="linearGradient-9">
            <stop stop-color="#BCBEFF" offset="0%"></stop>
            <stop stop-color="#AAADF8" offset="22.71%"></stop>
            <stop stop-color="#7C83E5" offset="68.02%"></stop>
            <stop stop-color="#5761D7" offset="100%"></stop>
        </linearGradient>
        <linearGradient x1="-0.00333351255%" y1="50.0100559%" x2="99.9890317%" y2="50.0100559%" id="linearGradient-10">
            <stop stop-color="#E9E9FD" offset="0%"></stop>
            <stop stop-color="#D3D2F9" offset="36.01%"></stop>
            <stop stop-color="#C5C4F7" offset="70.62%"></stop>
            <stop stop-color="#C0BFF6" offset="100%"></stop>
        </linearGradient>
        <linearGradient x1="9.94235939%" y1="36.011056%" x2="89.2819658%" y2="54.2452915%" id="linearGradient-11">
            <stop stop-color="#BCBEFF" offset="0%"></stop>
            <stop stop-color="#AAADF8" offset="22.71%"></stop>
            <stop stop-color="#7C83E5" offset="68.02%"></stop>
            <stop stop-color="#5761D7" offset="100%"></stop>
        </linearGradient>
        <linearGradient x1="-0.00333351255%" y1="50.006798%" x2="99.9890317%" y2="50.006798%" id="linearGradient-12">
            <stop stop-color="#E9E9FD" offset="0%"></stop>
            <stop stop-color="#D3D2F9" offset="36.01%"></stop>
            <stop stop-color="#C5C4F7" offset="70.62%"></stop>
            <stop stop-color="#C0BFF6" offset="100%"></stop>
        </linearGradient>
    </defs>
    <g id="Page-1" stroke="none" stroke-width="1" fill="none" fill-rule="evenodd">
        <g id="Section_03" transform="translate(-9.000000, -35.000000)" fill-rule="nonzero">
            <g id="S03-E02" transform="translate(9.000000, 35.000000)">
                <path d="M224.11132,322 C219.709026,322 215.509771,321.114881 212.381096,319.307763 L58.7806892,230.712883 C55.6981599,228.933425 54,226.462468 54,223.751791 C54,220.497134 56.4364903,217.224038 60.6911191,214.771521 L353.642157,45.7967708 C361.606896,41.205216 373.706285,40.7073365 380.618904,44.6903721 L534.22854,133.285252 C537.311069,135.06471 539,137.535668 539,140.246345 C539,143.501001 536.56351,146.774097 532.308881,149.226614 L239.357843,318.210584 C235.001694,320.718421 229.408841,322 224.11132,322 Z M212.704116,318.736124 C219.432152,322.617739 231.236209,322.11986 239.016365,317.629725 L531.976632,148.664195 C536.018991,146.331538 538.335503,143.270501 538.335503,140.255565 C538.335503,137.793827 536.757321,135.51649 533.887062,133.866112 L380.277426,45.2712314 C373.558619,41.3896158 361.745333,41.8874952 353.965177,46.3776302 L61.0141386,215.34316 C56.9717798,217.675817 54.6552682,220.736854 54.6552682,223.751791 C54.6552682,226.222748 56.2334494,228.490865 59.1037088,230.141243 L212.704116,318.736124 Z" id="Shape" fill="#00A3FF"></path>
                <g id="Group" transform="translate(54.000000, 1.000000)">
                    <path d="M485.39943,98.6144201 L463.307681,102.411536 L327.005932,23.9163009 C320.168669,19.9809404 308.221939,20.4694044 300.331369,25.0222571 L39.5637262,175.183448 L0.517414449,181.892915 L0.517414449,195.698934 L0.535893536,195.698934 C0.517414449,198.214984 2.01422053,200.620439 5.13718631,202.417618 L158.910913,290.977053 C165.748175,294.912414 177.694905,294.42395 185.585475,289.871097 L478.867072,120.96395 C483.117262,118.512414 485.307034,115.397304 485.380951,112.420439 L485.39943,112.420439 L485.39943,98.6144201 Z" id="Path" fill="url(#linearGradient-1)"></path>
                    <path d="M158.901673,277.078871 L5.12794677,188.519436 C-1.70931559,184.584075 -0.850038023,177.699498 7.04053232,173.155862 L300.322129,4.24871473 C308.221939,-0.29492163 320.15943,-0.792601881 326.996692,3.14275862 L480.779658,91.7021944 C487.61692,95.6375549 486.757643,102.522132 478.867072,107.065768 L185.585475,275.972915 C177.685665,280.516552 165.738935,281.014232 158.901673,277.078871 Z" id="Path" fill="#24126A"></path>
                    <path d="M478.867072,107.065768 L185.585475,275.972915 C177.685665,280.516552 165.748175,281.014232 158.910913,277.078871 L5.13718631,188.519436 C2.39304183,186.943448 0.914714829,184.888213 0.600570342,182.70395 C0.175551331,185.542571 1.65387833,188.307461 5.13718631,190.316614 L158.910913,278.87605 C165.748175,282.811411 177.694905,282.322947 185.585475,277.770094 L478.867072,108.862947 C483.597719,106.134922 485.778251,102.577429 485.316274,99.3148589 C484.909734,102.042884 482.738441,104.835423 478.867072,107.065768 Z" id="Path" fill="#FFFFFF"></path>
                    <path d="M159.206578,273.641191 L10.9119011,188.215298 C4.29638783,184.408966 5.12794677,177.74558 12.7690494,173.349404 L300.617795,7.62188088 C308.258897,3.22570533 319.817567,2.74645768 326.43308,6.55278997 L474.727757,91.9786834 C481.34327,95.7850157 480.511711,102.448401 472.870608,106.844577 L185.021863,272.5721 C177.38076,276.977492 165.822091,277.45674 159.206578,273.641191 Z" id="Path" fill="#453C9E" opacity="0.51"></path>
                </g>
                <path d="M223.545582,274 C219.255822,274 215.150965,273.131029 212.090813,271.365355 L63.7057929,185.679303 C60.6733762,183.922873 59,181.48236 59,178.783004 C59,175.565964 61.3944997,172.33968 65.5640726,169.936144 L353.58818,3.7039093 C361.354125,-0.779609424 373.150965,-1.26031659 379.899941,2.63156255 L528.294207,88.3176142 C531.326624,90.0740442 533,92.5145575 533,95.2046688 C533,98.421709 530.6055,101.647994 526.435927,104.051529 L238.402575,270.293008 C234.15904,272.742766 228.713634,274 223.545582,274 Z M212.571562,270.542606 C219.043183,274.277331 230.423991,273.796624 237.921826,269.470259 L525.945933,103.238025 C529.810415,101.000888 532.029257,98.0796674 532.029257,95.2139131 C532.029257,92.8843323 530.531539,90.7303944 527.794968,89.1496074 L379.409947,3.46355572 C372.929081,-0.280413525 361.557519,0.200293637 354.059684,4.53590247 L66.0355764,170.768137 C62.1710942,172.99603 59.9522528,175.926495 59.9522528,178.792249 C59.9522528,181.131074 61.4592159,183.285012 64.1865418,184.856555 L212.571562,270.542606 Z" id="Shape" fill="url(#linearGradient-2)" opacity="0.8"></path>
                <g id="Group" opacity="0.3" transform="translate(59.000000, 1.000000)">
                    <g id="SVGID_3_-link" opacity="0.5" fill="url(#radialGradient-4)">
                        <path d="M153.66655,270.02098 L5.36830409,184.533243 C-1.24736842,180.724155 -0.415789474,174.055946 7.22549708,169.656588 L295.08117,3.80908784 C302.722456,-0.59027027 314.281404,-1.06986486 320.897076,2.73922297 L469.195322,88.2269595 C475.810994,92.0360473 474.979415,98.7042568 467.338129,103.103615 L179.482456,268.960338 C171.84117,273.359696 160.282222,273.839291 153.66655,270.02098 Z" id="SVGID_3_" opacity="0.3"></path>
                    </g>
                    <g transform="translate(85.005848, 85.773649)" id="Path">
                        <path d="M285.536491,100.899324 L283.402105,100.622635 C283.171111,100.456622 282.921637,100.299831 282.662924,100.143041 L117.649942,5.03574324 C113.390409,2.58243243 105.943158,2.88679054 101.018363,5.72746622 L4.74923977,61.2036486 C3.46491228,61.9414865 2.48549708,62.780777 1.81099415,63.6661824 L0.68374269,63.3341554 L0.68374269,66.6544257 L0.692982456,66.6544257 C0.702222222,68.2038851 1.64467836,69.6795608 3.56654971,70.7863176 L168.579532,165.884392 C172.839064,168.337703 180.286316,168.033345 185.211111,165.192669 L281.480234,109.716486 C284.233684,108.130135 285.610409,106.091858 285.545731,104.17348 L285.554971,104.17348 L285.554971,100.899324 L285.536491,100.899324 Z" fill="#9FFFF8"></path>
                        <path d="M168.570292,162.554899 L3.54807018,67.4568243 C-0.711461988,65.0035135 -0.184795322,60.7056081 4.74,57.8741554 L101.009123,2.39797297 C105.933918,-0.442702703 113.38117,-0.747060811 117.640702,1.70625 L282.653684,96.8043243 C286.913216,99.2576351 286.38655,103.555541 281.461754,106.386993 L185.192632,161.863176 C180.277076,164.703851 172.829825,165.017432 168.570292,162.554899 Z" fill="#00A3FF"></path>
                    </g>
                    <g transform="translate(122.888889, 143.878378)" fill="#FFFFFF" id="Path">
                        <path d="M21.8705263,17.8187838 L1.49684211,6.07793919 C-0.397309942,4.98962838 -0.157076023,3.08047297 2.02350877,1.81692568 L2.02350877,1.81692568 C4.21333333,0.553378378 7.52116959,0.415033784 9.41532164,1.51256757 L29.7890058,13.2534122 C31.6831579,14.341723 31.442924,16.2508784 29.2623392,17.5144257 L29.2623392,17.5144257 C27.0817544,18.777973 23.7646784,18.9163176 21.8705263,17.8187838 Z"></path>
                        <path d="M59.4671345,39.4835473 L39.0934503,27.7427027 C37.1992982,26.6543919 37.4395322,24.7452365 39.620117,23.4816892 L39.620117,23.4816892 C41.8099415,22.2181419 45.1177778,22.0797973 47.0119298,23.1773311 L67.385614,34.9181757 C69.2797661,36.0064865 69.0395322,37.9156419 66.8589474,39.1791892 L66.8589474,39.1791892 C64.6783626,40.4427365 61.3612865,40.5810811 59.4671345,39.4835473 Z"></path>
                        <path d="M97.0637427,61.1575338 L76.6900585,49.4166892 C74.7959064,48.3283784 75.0361404,46.419223 77.2167251,45.1556757 L77.2167251,45.1556757 C79.4065497,43.8921284 82.714386,43.7537838 84.608538,44.8513176 L104.982222,56.5921622 C106.876374,57.680473 106.63614,59.5896284 104.455556,60.8531757 L104.455556,60.8531757 C102.265731,62.1075 98.9578947,62.2458446 97.0637427,61.1575338 Z"></path>
                        <path d="M134.660351,82.8222973 L114.286667,71.0814527 C112.392515,69.9931419 112.632749,68.0839865 114.813333,66.8204392 L114.813333,66.8204392 C117.003158,65.5568919 120.310994,65.4185473 122.205146,66.5160811 L142.57883,78.2569257 C144.472982,79.3452365 144.232749,81.2543919 142.052164,82.5179392 L142.052164,82.5179392 C139.862339,83.7722635 136.554503,83.9106081 134.660351,82.8222973 Z"></path>
                    </g>
                </g>
                <path d="M496.242328,102.976849 C493.898764,104.34105 490.101236,104.34105 487.757672,102.976849 C485.414109,101.612647 485.414109,99.3873531 487.757672,98.0231513 C490.101236,96.6589496 493.898764,96.6589496 496.242328,98.0231513 C498.585891,99.3970283 498.585891,101.612647 496.242328,102.976849 Z" id="Path" fill="#24126A" opacity="0.4"></path>
                <path d="M465.557664,79.7890305 L481.670224,89.3370205 C483.636755,90.4983911 483.395576,92.5355495 481.122935,93.8873088 L481.122935,93.8873088 C478.850294,95.2295487 475.408867,95.3818596 473.442336,94.2109695 L457.329776,84.6629795 C455.363245,83.4920894 455.604424,81.4644505 457.877065,80.1126912 L457.877065,80.1126912 C460.149706,78.7704513 463.591133,78.6181404 465.557664,79.7890305 Z" id="Path" fill="#24126A" opacity="0.4"></path>
                <path d="M375.557664,26.7890305 L391.670224,36.3370205 C393.636755,37.4983911 393.395576,39.5355495 391.122935,40.8873088 L391.122935,40.8873088 C388.850294,42.2295487 385.408867,42.3818596 383.442336,41.2109695 L367.329776,31.6629795 C365.363245,30.4920894 365.604424,28.4644505 367.877065,27.1126912 L367.877065,27.1126912 C370.149706,25.7704513 373.591133,25.6181404 375.557664,26.7890305 Z" id="Path" fill="#24126A" opacity="0.4"></path>
                <path d="M496.242328,96.9768487 C493.898764,98.3410504 490.101236,98.3410504 487.757672,96.9768487 C485.414109,95.6126469 485.414109,93.3873531 487.757672,92.0231513 C490.101236,90.6589496 493.898764,90.6589496 496.242328,92.0231513 C498.585891,93.3873531 498.585891,95.6029717 496.242328,96.9768487 Z" id="Path" fill="#00A3FF"></path>
                <path d="M465.557664,73.7853504 L481.670224,83.3356504 C483.636755,84.497302 483.395576,86.5349533 481.122935,87.8870396 L481.122935,87.8870396 C478.850294,89.2296042 475.408867,89.381952 473.442336,88.2107786 L457.329776,78.6604786 C455.363245,77.498827 455.604424,75.4611757 457.877065,74.1090894 L457.877065,74.1090894 C460.149706,72.7665248 463.591133,72.6236988 465.557664,73.7853504 Z" id="Path" fill="#00A3FF"></path>
                <path d="M375.557664,20.7853504 L391.670224,30.3356504 C393.636755,31.5068238 393.395576,33.5349533 391.122935,34.8870396 L391.122935,34.8870396 C388.850294,36.2296042 385.408867,36.381952 383.442336,35.2107786 L367.329776,25.6604786 C365.363245,24.498827 365.604424,22.4611757 367.877065,21.1090894 L367.877065,21.1090894 C370.149706,19.7665248 373.591133,19.6236988 375.557664,20.7853504 Z" id="Path" fill="#00A3FF"></path>
                <g id="Group" transform="translate(0.000000, 242.000000)">
                    <g opacity="0.3" transform="translate(0.000000, 53.685950)" id="Path">
                        <path d="M86.5002128,32.6003306 L86.5002128,25.1028099 L84.4270213,23.9457851 C83.8439362,27.4816529 79.6790426,29.8142149 76.1897872,30.3047934 L52.4776596,44.1705785 L42.1302128,47.9100826 L9.09797872,30.8601653 L9.85691489,30.4158678 C7.03404255,29.1014876 5.51617021,26.0839669 3.98904255,23.3256198 L1.76776596,24.6492562 L0.444255319,25.0195041 L0.444255319,32.711405 L0.444255319,32.711405 C0.444255319,34.1831405 1.41606383,35.654876 3.35042553,36.7656198 L36.4474468,55.8796694 C40.3254255,58.1196694 46.6282979,58.1196694 50.5062766,55.8796694 L83.6032979,36.7656198 C85.5098936,35.6641322 86.4817021,34.2294215 86.5094681,32.7761983 C86.5002128,32.7299174 86.4909574,32.665124 86.5002128,32.6003306 L86.5002128,32.6003306 Z" fill="url(#linearGradient-5)"></path>
                        <path d="M76.1897872,30.3047934 L52.4776596,44.1705785 L43.472234,47.4195041 L43.472234,57.5642975 C46.0174468,57.5642975 48.5626596,57.0089256 50.4970213,55.8889256 L83.5940426,36.774876 C85.5006383,35.6733884 86.4724468,34.2386777 86.5002128,32.7854545 C86.5002128,32.7206612 86.5002128,32.6558678 86.5002128,32.5910744 L86.5094681,32.5910744 L86.5094681,25.0935537 L84.6121277,24.0383471 L84.417766,24.0383471 C83.751383,27.5279339 79.6420213,29.8234711 76.1897872,30.3047934 Z" fill="#0F054C"></path>
                        <g fill="url(#linearGradient-6)">
                            <path d="M36.4381915,48.2710744 L3.34117021,29.1570248 C-0.536808511,26.9170248 -0.536808511,23.2793388 3.34117021,21.0393388 L36.4381915,1.92528926 C40.3161702,-0.314710744 46.6190426,-0.314710744 50.4970213,1.92528926 L83.5940426,21.0393388 C87.4720213,23.2793388 87.4720213,26.9170248 83.5940426,29.1570248 L50.4970213,48.2710744 C46.6190426,50.5018182 40.3161702,50.5018182 36.4381915,48.2710744 Z"></path>
                        </g>
                        <path d="M36.4381915,48.2710744 L3.34117021,29.1570248 C-0.536808511,26.9170248 -0.536808511,23.2793388 3.34117021,21.0393388 L36.4381915,1.92528926 C40.3161702,-0.314710744 46.6190426,-0.314710744 50.4970213,1.92528926 L83.5940426,21.0393388 C87.4720213,23.2793388 87.4720213,26.9170248 83.5940426,29.1570248 L50.4970213,48.2710744 C46.6190426,50.5018182 40.3161702,50.5018182 36.4381915,48.2710744 Z" fill="#0F054C"></path>
                    </g>
                    <g>
                        <path d="M43.4629787,74.151405 C41.2046809,74.151405 38.946383,73.6515702 37.2248936,72.661157 L4.12787234,53.5471074 C2.40638298,52.5566942 1.46234043,51.2145455 1.46234043,49.7798347 C1.46234043,48.345124 2.40638298,47.0029752 4.12787234,46.012562 L37.2248936,26.8985124 C40.6678723,24.917686 46.2580851,24.917686 49.7010638,26.8985124 L82.7980851,46.012562 C84.5195745,47.0029752 85.463617,48.345124 85.463617,49.7798347 C85.463617,51.2145455 84.5195745,52.5566942 82.7980851,53.5471074 L49.7010638,72.661157 C47.9795745,73.6515702 45.7212766,74.151405 43.4629787,74.151405 Z M43.4629787,25.9821488 C41.3064894,25.9821488 39.1592553,26.4542149 37.5118085,27.3983471 L4.41478723,46.5123967 C2.88765957,47.4009917 2.03617021,48.5580165 2.03617021,49.7798347 C2.03617021,51.0016529 2.87840426,52.1679339 4.41478723,53.0472727 L37.5118085,72.1613223 C40.7881915,74.058843 46.1285106,74.058843 49.4048936,72.1613223 L82.5019149,53.0472727 C84.0290426,52.1586777 84.8805319,51.0016529 84.8805319,49.7798347 C84.8805319,48.5580165 84.0382979,47.4009917 82.5019149,46.5123967 L49.4048936,27.3983471 C47.7759574,26.4542149 45.6194681,25.9821488 43.4629787,25.9821488 Z" id="Shape" fill="#00A3FF"></path>
                        <g>
                            <path d="M86.5002128,42.4489256 L86.5002128,31.1100826 L84.4270213,29.9530579 C83.8439362,33.4889256 79.6790426,35.8214876 76.1897872,36.3120661 L52.4776596,50.1778512 L42.1302128,53.9173554 L9.09797872,36.867438 L9.85691489,36.4231405 C7.03404255,35.1087603 5.51617021,32.0912397 3.98904255,29.3328926 L1.76776596,30.6565289 L0.444255319,31.0267769 L0.444255319,42.5507438 L0.444255319,42.5507438 C0.444255319,44.0224793 1.41606383,45.4942149 3.35042553,46.6049587 L36.4474468,65.7190083 C40.3254255,67.9590083 46.6282979,67.9590083 50.5062766,65.7190083 L83.6032979,46.6049587 C85.5098936,45.5034711 86.4817021,44.0687603 86.5094681,42.6155372 C86.5002128,42.5785124 86.4909574,42.513719 86.5002128,42.4489256 L86.5002128,42.4489256 Z" id="Path" fill="#00A3FF" opacity="0.4"></path>
                            <g>
                                <path d="M86.5002128,32.3689256 L86.5002128,24.871405 L84.4270213,23.7143802 C83.8439362,27.2502479 79.6790426,29.5828099 76.1897872,30.0733884 L52.4776596,43.9391736 L42.1302128,47.6786777 L9.09797872,30.6287603 L9.85691489,30.1844628 C7.03404255,28.8700826 5.51617021,25.852562 3.98904255,23.0942149 L1.76776596,24.4178512 L0.444255319,24.7880992 L0.444255319,32.48 L0.444255319,32.48 C0.444255319,33.9517355 1.41606383,35.4234711 3.35042553,36.5342149 L36.4474468,55.6482645 C40.3254255,57.8882645 46.6282979,57.8882645 50.5062766,55.6482645 L83.6032979,36.5342149 C85.5098936,35.4327273 86.4817021,33.9980165 86.5094681,32.5447934 C86.5002128,32.4985124 86.4909574,32.433719 86.5002128,32.3689256 L86.5002128,32.3689256 Z" id="Path" fill="url(#linearGradient-7)"></path>
                                <path d="M76.1897872,30.0733884 L52.4776596,43.9391736 L43.472234,47.1880992 L43.472234,57.3328926 C46.0174468,57.3328926 48.5626596,56.7775207 50.4970213,55.6575207 L83.5940426,36.5434711 C85.5006383,35.4419835 86.4724468,34.0072727 86.5002128,32.5540496 C86.5002128,32.4892562 86.5002128,32.4244628 86.5002128,32.3596694 L86.5094681,32.3596694 L86.5094681,24.8621488 L84.6121277,23.8069421 L84.417766,23.8069421 C83.751383,27.3057851 79.6420213,29.5920661 76.1897872,30.0733884 Z" id="Path" fill="#0F054C" opacity="0.3"></path>
                                <path d="M36.4381915,48.0396694 L3.34117021,28.9256198 C-0.536808511,26.6856198 -0.536808511,23.0479339 3.34117021,20.8079339 L36.4381915,1.6938843 C40.3161702,-0.546115702 46.6190426,-0.546115702 50.4970213,1.6938843 L83.5940426,20.8079339 C87.4720213,23.0479339 87.4720213,26.6856198 83.5940426,28.9256198 L50.4970213,48.0396694 C46.6190426,50.2796694 40.3161702,50.2796694 36.4381915,48.0396694 Z" id="Path" fill="url(#linearGradient-8)"></path>
                                <path d="M43.4629787,44.568595 C41.4175532,44.568595 39.381383,44.1242975 37.8264894,43.2264463 L37.8264894,43.2264463 L11.9671277,28.2961983 C10.412234,27.3983471 9.55148936,26.1765289 9.55148936,24.871405 C9.55148936,23.566281 10.412234,22.353719 11.9671277,21.4466116 L37.8264894,6.51636364 C40.9362766,4.72066116 45.9896809,4.72066116 49.0994681,6.51636364 L74.9588298,21.4466116 C76.5137234,22.3444628 77.3744681,23.5570248 77.3744681,24.871405 C77.3744681,26.1765289 76.5137234,27.3983471 74.9588298,28.2961983 L49.0994681,43.2264463 C47.5445745,44.1242975 45.5084043,44.568595 43.4629787,44.568595 Z M43.4629787,5.74809917 C41.528617,5.74809917 39.5942553,6.1738843 38.1226596,7.02545455 L12.2632979,21.9557025 C10.8935106,22.7424793 10.1345745,23.7884298 10.1345745,24.871405 C10.1345745,25.9636364 10.8935106,27.0003306 12.2632979,27.7871074 L38.1226596,42.7173554 C41.0658511,44.4204959 45.8693617,44.4204959 48.8125532,42.7173554 L74.6719149,27.7871074 C76.0417021,27.0003306 76.8006383,25.9543802 76.8006383,24.871405 C76.8006383,23.7791736 76.0417021,22.7424793 74.6719149,21.9557025 L48.8125532,7.02545455 C47.3317021,6.1738843 45.3973404,5.74809917 43.4629787,5.74809917 Z" id="Shape" fill="#5351AF"></path>
                                <path d="M83.5940426,28.934876 L50.4970213,48.0489256 C46.6190426,50.2889256 40.3161702,50.2889256 36.4381915,48.0489256 L3.34117021,28.934876 C1.61042553,27.9352066 0.65712766,26.6578512 0.472021277,25.3434711 C0.240638298,26.9633058 1.20319149,28.6294215 3.34117021,29.8697521 L36.4381915,48.9838017 C40.3161702,51.2238017 46.6190426,51.2238017 50.4970213,48.9838017 L83.5940426,29.8697521 C85.7412766,28.6294215 86.6945745,26.9633058 86.4631915,25.3434711 C86.2780851,26.648595 85.3247872,27.9352066 83.5940426,28.934876 Z" id="Path" fill="#FFFFFF"></path>
                            </g>
                        </g>
                    </g>
                </g>
                <g id="Group" opacity="0.3" transform="translate(41.000000, 73.000000)">
                    <path d="M86.5557447,32.7469841 L86.5557447,25.2898413 L84.4825532,24.1390476 C83.8994681,27.655873 79.7345745,29.975873 76.2453191,30.4638095 L52.5331915,44.2549206 L42.1857447,47.9742857 L9.15351064,31.0161905 L9.91244681,30.5742857 C7.08957447,29.2669841 5.57170213,26.2565079 4.04457447,23.5222222 L1.82329787,24.8387302 L0.499787234,25.2069841 L0.499787234,32.8574603 L0.499787234,32.8574603 C0.499787234,34.3212698 1.47159574,35.7850794 3.40595745,36.8898413 L36.5029787,55.9009524 C40.3809574,58.1288889 46.6838298,58.1288889 50.5618085,55.9009524 L83.6588298,36.8898413 C85.5654255,35.7942857 86.537234,34.3673016 86.565,32.9219048 C86.5557447,32.875873 86.5557447,32.8114286 86.5557447,32.7469841 L86.5557447,32.7469841 Z" id="Path" fill="url(#linearGradient-9)"></path>
                    <path d="M76.2545745,30.4638095 L52.5424468,44.2549206 L43.5370213,47.4863492 L43.5370213,57.5765079 C46.082234,57.5765079 48.6274468,57.024127 50.5618085,55.9101587 L83.6588298,36.8990476 C85.5654255,35.8034921 86.537234,34.3765079 86.565,32.9311111 C86.565,32.8666667 86.565,32.8022222 86.565,32.7377778 L86.5742553,32.7377778 L86.5742553,25.2806349 L84.6769149,24.2311111 L84.4825532,24.2311111 C83.8161702,27.7019048 79.6975532,29.9850794 76.2545745,30.4638095 Z" id="Path" fill="#0F054C"></path>
                    <g fill="url(#linearGradient-10)" id="Path">
                        <path d="M36.5029787,48.3333333 L3.40595745,29.3222222 C-0.472021277,27.0942857 -0.472021277,23.4761905 3.40595745,21.248254 L36.5029787,2.23714286 C40.3809574,0.00920634921 46.6838298,0.00920634921 50.5618085,2.23714286 L83.6588298,21.248254 C87.5368085,23.4761905 87.5368085,27.0942857 83.6588298,29.3222222 L50.5618085,48.3333333 C46.6838298,50.5612698 40.3717021,50.5612698 36.5029787,48.3333333 Z"></path>
                    </g>
                    <path d="M36.5029787,48.3333333 L3.40595745,29.3222222 C-0.472021277,27.0942857 -0.472021277,23.4761905 3.40595745,21.248254 L36.5029787,2.23714286 C40.3809574,0.00920634921 46.6838298,0.00920634921 50.5618085,2.23714286 L83.6588298,21.248254 C87.5368085,23.4761905 87.5368085,27.0942857 83.6588298,29.3222222 L50.5618085,48.3333333 C46.6838298,50.5612698 40.3717021,50.5612698 36.5029787,48.3333333 Z" id="Path" fill="#0F054C"></path>
                </g>
                <g id="Group" transform="translate(41.000000, 23.000000)">
                    <path d="M43.527766,74.5092593 C41.2694681,74.5092593 39.0111702,74.0092593 37.2896809,73.0185185 L4.19265957,53.8981481 C2.47117021,52.9074074 1.52712766,51.5648148 1.52712766,50.1296296 C1.52712766,48.6944444 2.47117021,47.3518519 4.19265957,46.3611111 L37.2896809,27.2407407 C40.7326596,25.2592593 46.3228723,25.2592593 49.7658511,27.2407407 L82.8628723,46.3611111 C84.5843617,47.3518519 85.5284043,48.6944444 85.5284043,50.1296296 C85.5284043,51.5648148 84.5843617,52.9074074 82.8628723,53.8981481 L49.7658511,73.0185185 C48.0443617,74.0185185 45.7860638,74.5092593 43.527766,74.5092593 Z M43.527766,26.3333333 C41.3712766,26.3333333 39.2240426,26.8055556 37.5765957,27.75 L4.47957447,46.8703704 C2.95244681,47.7592593 2.10095745,48.9166667 2.10095745,50.1388889 C2.10095745,51.3611111 2.94319149,52.5185185 4.47957447,53.4074074 L37.5765957,72.5277778 C40.8529787,74.4259259 46.1932979,74.4259259 49.4696809,72.5277778 L82.5667021,53.4074074 C84.0938298,52.5185185 84.9453191,51.3611111 84.9453191,50.1388889 C84.9453191,48.9166667 84.1030851,47.7592593 82.5667021,46.8703704 L49.4696809,27.75 C47.8314894,26.8055556 45.6842553,26.3333333 43.527766,26.3333333 Z" id="Shape" fill="#00A3FF"></path>
                    <g>
                        <path d="M86.5557447,42.7962963 L86.5557447,31.4537037 L84.4825532,30.2962963 C83.8994681,33.8333333 79.7345745,36.1666667 76.2453191,36.6574074 L52.5331915,50.5277778 L42.1857447,54.2685185 L9.15351064,37.212963 L9.91244681,36.7685185 C7.08957447,35.4537037 5.57170213,32.4351852 4.04457447,29.6759259 L1.82329787,31 L0.499787234,31.3703704 L0.499787234,42.8981481 L0.499787234,42.8981481 C0.499787234,44.3703704 1.47159574,45.8425926 3.40595745,46.9537037 L36.5029787,66.0740741 C40.3809574,68.3148148 46.6838298,68.3148148 50.5618085,66.0740741 L83.6588298,46.9537037 C85.5654255,45.8518519 86.537234,44.4166667 86.565,42.962963 C86.5557447,42.9259259 86.5557447,42.8611111 86.5557447,42.7962963 L86.5557447,42.7962963 Z" id="Path" fill="#00A3FF" opacity="0.4"></path>
                        <g>
                            <path d="M86.5557447,32.7222222 L86.5557447,25.2222222 L84.4825532,24.0648148 C83.8994681,27.6018519 79.7345745,29.9351852 76.2453191,30.4259259 L52.5331915,44.2962963 L42.1857447,48.037037 L9.15351064,30.9814815 L9.91244681,30.537037 C7.08957447,29.2222222 5.57170213,26.1944444 4.04457447,23.4444444 L1.82329787,24.7685185 L0.499787234,25.1388889 L0.499787234,32.8333333 L0.499787234,32.8333333 C0.499787234,34.3055556 1.47159574,35.7777778 3.40595745,36.8888889 L36.5029787,56.0092593 C40.3809574,58.25 46.6838298,58.25 50.5618085,56.0092593 L83.6588298,36.8888889 C85.5654255,35.787037 86.537234,34.3518519 86.565,32.8981481 C86.5557447,32.8425926 86.5557447,32.7777778 86.5557447,32.7222222 L86.5557447,32.7222222 Z" id="Path" fill="url(#linearGradient-11)"></path>
                            <path d="M76.2545745,30.4259259 L52.5424468,44.2962963 L43.5370213,47.5462963 L43.5370213,57.6944444 C46.082234,57.6944444 48.6274468,57.1388889 50.5618085,56.0185185 L83.6588298,36.8981481 C85.5654255,35.7962963 86.537234,34.3611111 86.565,32.9074074 C86.565,32.8425926 86.565,32.7777778 86.565,32.712963 L86.5742553,32.712963 L86.5742553,25.212963 L84.6769149,24.1574074 L84.4825532,24.1574074 C83.8161702,27.6481481 79.6975532,29.9444444 76.2545745,30.4259259 Z" id="Path" fill="#0F054C" opacity="0.3"></path>
                            <path d="M36.5029787,48.3981481 L3.40595745,29.2777778 C-0.472021277,27.037037 -0.472021277,23.3981481 3.40595745,21.1574074 L36.5029787,2.03703704 C40.3809574,-0.203703704 46.6838298,-0.203703704 50.5618085,2.03703704 L83.6588298,21.1574074 C87.5368085,23.3981481 87.5368085,27.037037 83.6588298,29.2777778 L50.5618085,48.3981481 C46.6838298,50.6296296 40.3717021,50.6296296 36.5029787,48.3981481 Z" id="Path" fill="url(#linearGradient-12)"></path>
                            <path d="M43.527766,44.9166667 C41.4823404,44.9166667 39.4461702,44.4722222 37.8912766,43.5740741 L37.8912766,43.5740741 L12.0319149,28.6388889 C10.4770213,27.7407407 9.6162766,26.5185185 9.6162766,25.212963 C9.6162766,23.9074074 10.4770213,22.6944444 12.0319149,21.787037 L37.8912766,6.85185185 C41.0010638,5.06481481 46.0544681,5.06481481 49.1642553,6.85185185 L75.023617,21.787037 C76.5785106,22.6851852 77.4392553,23.8981481 77.4392553,25.212963 C77.4392553,26.5185185 76.5785106,27.7314815 75.023617,28.6388889 L49.1642553,43.5740741 C47.6093617,44.4722222 45.5639362,44.9166667 43.527766,44.9166667 Z M43.527766,6.08333333 C41.5934043,6.08333333 39.6590426,6.50925926 38.1781915,7.36111111 L12.3188298,22.2962963 C10.9490426,23.0833333 10.1901064,24.1203704 10.1901064,25.212963 C10.1901064,26.3055556 10.9490426,27.3425926 12.3188298,28.1296296 L38.1781915,43.0648148 C41.121383,44.7685185 45.9248936,44.7685185 48.8680851,43.0648148 L74.7274468,28.1296296 C76.097234,27.3425926 76.8561702,26.2962963 76.8561702,25.212963 C76.8561702,24.1203704 76.097234,23.0833333 74.7274468,22.2962963 L48.8680851,7.36111111 C47.3964894,6.50925926 45.4621277,6.08333333 43.527766,6.08333333 Z" id="Shape" fill="#5351AF"></path>
                            <path d="M83.6495745,29.2777778 L50.5525532,48.3981481 C46.6745745,50.6388889 40.3717021,50.6388889 36.4937234,48.3981481 L3.39670213,29.2777778 C1.66595745,28.2777778 0.712659574,27 0.527553191,25.6851852 C0.296170213,27.3055556 1.2587234,28.9722222 3.39670213,30.212963 L36.4937234,49.3333333 C40.3717021,51.5740741 46.6745745,51.5740741 50.5525532,49.3333333 L83.6495745,30.212963 C85.7968085,28.9722222 86.7501064,27.3055556 86.5187234,25.6851852 C86.3428723,27 85.3803191,28.2777778 83.6495745,29.2777778 Z" id="Path" fill="#FFFFFF"></path>
                        </g>
                    </g>
                </g>
                <g id="Group" transform="translate(357.000000, 227.000000)">
                    <g opacity="0.1" transform="translate(59.907834, 11.968254)">
                        <path d="M7.38248848,61.4431746 C7.38248848,42.8831746 20.4239631,20.3184127 36.516129,11.0384127 C44.5806452,6.38920635 51.8709677,5.95650794 57.1520737,9.02222222 L57.1520737,9.02222222 L62.6635945,12.2444444 L61.0599078,12.391746 C63.9631336,15.9453968 65.6589862,21.1746032 65.6589862,27.8492063 C65.6589862,46.4092063 52.6175115,68.9739683 36.5253456,78.2539683 C30.9953917,81.4393651 25.8248848,82.6453968 21.4193548,82.1022222 L21.5391705,83.5752381 L15.9447005,80.3069841 C15.9262673,80.2977778 15.8986175,80.2793651 15.8801843,80.2701587 L15.6497696,80.1412698 L15.6589862,80.1412698 C10.5437788,77.0203175 7.38248848,70.575873 7.38248848,61.4431746 Z" id="Path" fill="#9FFFF8"></path>
                        <ellipse id="Oval" fill="#00A3FF" transform="translate(42.077677, 47.896105) rotate(-59.999272) translate(-42.077677, -47.896105) " cx="42.0776774" cy="47.8961054" rx="41.1721301" ry="23.7808956"></ellipse>
                    </g>
                    <path d="M100.110599,115.871111 C74.5990783,115.871111 49.0967742,110.273651 29.6774194,99.0787302 C10.8110599,88.1968254 0.423963134,73.7152381 0.423963134,58.2946032 C0.423963134,42.8739683 10.8110599,28.392381 29.6774194,17.5104762 C68.516129,-4.88857143 131.705069,-4.87936508 170.543779,17.5104762 C189.410138,28.392381 199.797235,42.8739683 199.797235,58.2946032 C199.797235,73.7152381 189.410138,88.1968254 170.543779,99.0787302 C151.133641,110.273651 125.62212,115.871111 100.110599,115.871111 Z M100.119816,1.27047619 C74.718894,1.27047619 49.3179724,6.84952381 29.9723502,17.9984127 C11.2903226,28.7698413 1.00460829,43.0765079 1.00460829,58.2853968 C1.00460829,73.4942857 11.2903226,87.791746 29.9723502,98.572381 C68.6451613,120.879365 131.576037,120.879365 170.258065,98.572381 C188.940092,87.8009524 199.225806,73.4942857 199.225806,58.2853968 C199.225806,43.0857143 188.940092,28.7698413 170.258065,17.9984127 C150.921659,6.84952381 125.520737,1.27047619 100.119816,1.27047619 Z" id="Shape" fill="#00A3FF" opacity="0.2"></path>
                    <path d="M100.119816,94.1073016 C84.2764977,94.1073016 68.4423963,90.6273016 56.3778802,83.6765079 L56.3778802,83.6765079 C44.6451613,76.9098413 38.1751152,67.887619 38.1751152,58.2853968 C38.1751152,48.6831746 44.6359447,39.6609524 56.3778802,32.8942857 C80.4976959,18.9834921 119.741935,18.9834921 143.861751,32.8942857 C155.59447,39.6609524 162.064516,48.6831746 162.064516,58.2853968 C162.064516,67.887619 155.603687,76.9098413 143.861751,83.6765079 C131.797235,90.6365079 115.953917,94.1073016 100.119816,94.1073016 Z M100.119816,23.0342857 C84.3870968,23.0342857 68.6451613,26.4866667 56.6728111,33.4006349 C45.124424,40.0660317 38.7557604,48.904127 38.7557604,58.2946032 C38.7557604,67.6850794 45.1152074,76.5231746 56.6728111,83.1793651 L56.6728111,83.1793651 C80.6267281,96.9980952 119.612903,96.9980952 143.576037,83.1793651 C155.124424,76.5139683 161.493088,67.675873 161.493088,58.2853968 C161.493088,48.8949206 155.133641,40.0568254 143.576037,33.3914286 C131.585253,26.4866667 115.852535,23.0342857 100.119816,23.0342857 Z" id="Shape" fill="#00A3FF"></path>
                    <g transform="translate(59.907834, 11.968254)">
                        <path d="M7.38248848,61.4431746 C7.38248848,42.8831746 20.4239631,20.3184127 36.516129,11.0384127 C44.5806452,6.38920635 51.8709677,5.95650794 57.1520737,9.02222222 L57.1520737,9.02222222 L62.6635945,12.2444444 L61.0599078,12.391746 C63.9631336,15.9453968 65.6589862,21.1746032 65.6589862,27.8492063 C65.6589862,46.4092063 52.6175115,68.9739683 36.5253456,78.2539683 C30.9953917,81.4393651 25.8248848,82.6453968 21.4193548,82.1022222 L21.5391705,83.5752381 L15.9447005,80.3069841 C15.9262673,80.2977778 15.8986175,80.2793651 15.8801843,80.2701587 L15.6497696,80.1412698 L15.6589862,80.1412698 C10.5437788,77.0203175 7.38248848,70.575873 7.38248848,61.4431746 Z" id="Path" fill="#00E7FF"></path>
                        <ellipse id="Oval" fill="#00A3FF" transform="translate(42.077677, 47.896105) rotate(-59.999272) translate(-42.077677, -47.896105) " cx="42.0776774" cy="47.8961054" rx="41.1721301" ry="23.7808956"></ellipse>
                    </g>
                </g>
            </g>
        </g>
    </g>
</svg>