<?xml version="1.0" encoding="UTF-8"?>
<svg width="320px" height="190px" viewBox="0 0 320 190" version="1.1" xmlns="http://www.w3.org/2000/svg" xmlns:xlink="http://www.w3.org/1999/xlink">
    <!-- Generator: Sketch 53.2 (72643) - https://sketchapp.com -->
    <title>S04 E02</title>
    <desc>Created with Sketch.</desc>
    <g id="Page-1" stroke="none" stroke-width="1" fill="none" fill-rule="evenodd">
        <g id="Section_04" transform="translate(-128.000000, -118.000000)" fill-rule="nonzero">
            <g id="S04-E02" transform="translate(128.000000, 118.000000)">
                <g id="Group" transform="translate(218.947368, 6.440678)">
                    <path d="M44.8401003,12.4385593 C44.8320802,12.5351695 44.8240602,12.6317797 44.8080201,12.720339 C44.7919799,12.7927966 44.7759398,12.8652542 44.7518797,12.9377119 C44.7278195,13.0262712 44.7037594,13.1148305 44.6796992,13.2033898 C44.6556391,13.2758475 44.6235589,13.3402542 44.5914787,13.4127119 C44.5513784,13.5012712 44.5112782,13.5978814 44.4631579,13.6864407 C44.4310777,13.7508475 44.3909774,13.8152542 44.3508772,13.879661 C44.2867168,13.984322 44.2225564,14.0809322 44.1503759,14.1775424 C44.1102757,14.2338983 44.0621554,14.2983051 44.0140351,14.354661 C43.8937343,14.4995763 43.7654135,14.6444915 43.6210526,14.7813559 C43.5809524,14.8135593 43.5568922,14.8538136 43.516792,14.8860169 C43.4285714,14.9665254 43.3323308,15.0389831 43.2360902,15.1194915 C43.1639098,15.1758475 43.0917293,15.2402542 43.0115288,15.2966102 C42.9072682,15.3771186 42.7869674,15.4495763 42.6666667,15.5220339 C42.5784461,15.5783898 42.4982456,15.6427966 42.402005,15.6991525 L26.4661654,25.2233051 C26.1934837,25.384322 25.9047619,25.5292373 25.6080201,25.6661017 C25.5438596,25.6983051 25.4877193,25.7224576 25.4235589,25.7466102 C25.126817,25.8754237 24.8220551,25.9881356 24.5092732,26.0927966 C24.4210526,26.1169492 24.3408521,26.1411017 24.2526316,26.1733051 C24.0922306,26.2216102 23.9398496,26.2699153 23.7794486,26.3101695 C23.675188,26.334322 23.5789474,26.3584746 23.4746867,26.3826271 C23.3223058,26.4148305 23.1619048,26.4550847 23.0015038,26.4872881 C22.9052632,26.5033898 22.8090226,26.5194915 22.720802,26.5355932 C22.3919799,26.5919492 22.0711779,26.6402542 21.7343358,26.6724576 C21.7182957,26.6724576 21.7022556,26.6724576 21.6862155,26.6724576 C21.4135338,26.6966102 21.1328321,26.7207627 20.8521303,26.7288136 C20.7558897,26.7368644 20.6516291,26.7368644 20.5473684,26.7368644 C20.3709273,26.7368644 20.1944862,26.7449153 20.0180451,26.7368644 C19.9057644,26.7368644 19.7934837,26.7288136 19.681203,26.7288136 C19.520802,26.7207627 19.360401,26.7127119 19.2,26.704661 C19.0877193,26.6966102 18.9754386,26.6885593 18.8631579,26.6805085 C18.7027569,26.6644068 18.5423559,26.6483051 18.3819549,26.6241525 C18.2776942,26.6080508 18.1654135,26.6 18.0611529,26.5838983 C17.8766917,26.5597458 17.6842105,26.5194915 17.4997494,26.4872881 C17.4195489,26.4711864 17.3393484,26.4550847 17.2591479,26.4389831 C16.9784461,26.3826271 16.6977444,26.3101695 16.4250627,26.2377119 C16.3769424,26.2216102 16.3288221,26.2055085 16.2807018,26.1894068 C15.9919799,26.1008475 15.7192982,26.0122881 15.4466165,25.9076271 C15.3343358,25.8673729 15.2220551,25.8271186 15.1097744,25.7788136 L4.34686717,21.2461864 C3.96992481,21.0851695 3.61704261,20.9161017 3.2962406,20.7309322 C1.62807018,19.7648305 0.729824561,18.4525424 0.729824561,17.1241525 L0.697744361,29.5627119 C0.697744361,30.8911017 1.59598997,32.2033898 3.2641604,33.1694915 C3.58496241,33.354661 3.93784461,33.5317797 4.31478697,33.6847458 L15.0776942,38.2173729 C15.1498747,38.2495763 15.2140351,38.2737288 15.2862155,38.3059322 C15.3263158,38.3220339 15.3744361,38.3300847 15.4145363,38.3461864 C15.687218,38.4508475 15.9679198,38.5474576 16.2566416,38.6279661 C16.2887218,38.6360169 16.320802,38.6521186 16.3528822,38.6601695 C16.3689223,38.6682203 16.3849624,38.6682203 16.3929825,38.6682203 C16.6656642,38.7487288 16.9463659,38.8131356 17.2270677,38.8775424 C17.2431078,38.8775424 17.2511278,38.8855932 17.2671679,38.8855932 C17.3313283,38.9016949 17.4035088,38.9097458 17.4676692,38.9177966 C17.6521303,38.95 17.8365915,38.9902542 18.0290727,39.0144068 C18.0611529,39.0224576 18.0932331,39.0305085 18.1253133,39.0305085 C18.1974937,39.0385593 18.2696742,39.0466102 18.3498747,39.054661 C18.5102757,39.0788136 18.6706767,39.0949153 18.8310777,39.1110169 C18.879198,39.1190678 18.9273183,39.1190678 18.9754386,39.1271186 C19.039599,39.1351695 19.1037594,39.1351695 19.1679198,39.1351695 C19.3283208,39.1432203 19.4887218,39.1512712 19.6491228,39.159322 C19.7052632,39.159322 19.7694236,39.1673729 19.8255639,39.1673729 C19.8736842,39.1673729 19.9298246,39.1673729 19.9779449,39.1673729 C20.154386,39.1673729 20.3308271,39.1673729 20.5072682,39.1673729 C20.5794486,39.1673729 20.643609,39.1673729 20.7157895,39.1673729 C20.7478697,39.1673729 20.7799499,39.159322 20.80401,39.159322 C21.0847118,39.1512712 21.3654135,39.1271186 21.6380952,39.1029661 C21.6461153,39.1029661 21.6621554,39.1029661 21.6701754,39.1029661 C21.6701754,39.1029661 21.6701754,39.1029661 21.6781955,39.1029661 C22.0150376,39.0707627 22.3438596,39.0224576 22.6646617,38.9661017 C22.7047619,38.9580508 22.7448622,38.9580508 22.7849624,38.95 C22.8411028,38.9419492 22.8892231,38.9258475 22.9453634,38.9177966 C23.1057644,38.8855932 23.2581454,38.8533898 23.4185464,38.8131356 C23.522807,38.7889831 23.6190476,38.7648305 23.7233083,38.740678 C23.8837093,38.7004237 24.0441103,38.6521186 24.1964912,38.6038136 C24.2606516,38.579661 24.3328321,38.5635593 24.4050125,38.5474576 C24.4210526,38.5394068 24.4370927,38.5313559 24.4531328,38.5313559 C24.7659148,38.4266949 25.0706767,38.3139831 25.3674185,38.1851695 C25.4315789,38.1610169 25.4877193,38.1288136 25.5518797,38.104661 C25.8486216,37.9677966 26.1453634,37.8228814 26.4100251,37.6618644 L42.3378446,28.1457627 C42.3538847,28.1377119 42.3699248,28.129661 42.3859649,28.1216102 C42.4661654,28.0733051 42.5303258,28.025 42.6105263,27.9686441 C42.722807,27.8961864 42.8431078,27.815678 42.9473684,27.7432203 C43.0275689,27.6868644 43.0997494,27.6224576 43.1719298,27.5661017 C43.2681704,27.4855932 43.364411,27.4131356 43.4526316,27.3326271 C43.4606516,27.3245763 43.4766917,27.3165254 43.4847118,27.3084746 C43.5087719,27.284322 43.5328321,27.2521186 43.5568922,27.2279661 C43.7012531,27.0911017 43.837594,26.9461864 43.9498747,26.8012712 C43.9739348,26.7771186 43.997995,26.7529661 44.0220551,26.7207627 C44.0461153,26.6885593 44.0621554,26.6563559 44.0862155,26.6241525 C44.158396,26.5275424 44.2225564,26.4228814 44.2867168,26.3262712 C44.3107769,26.2860169 44.3428571,26.2457627 44.3669173,26.2055085 C44.3829574,26.1813559 44.3909774,26.1572034 44.3989975,26.125 C44.4471178,26.0364407 44.487218,25.9398305 44.5273183,25.8512712 C44.5513784,25.8029661 44.5754386,25.754661 44.5914787,25.7063559 C44.5994987,25.6822034 44.5994987,25.6661017 44.6075188,25.6419492 C44.639599,25.5533898 44.6636591,25.4648305 44.6796992,25.3762712 C44.6957393,25.3199153 44.7117794,25.2716102 44.7278195,25.2152542 C44.7278195,25.1991525 44.7278195,25.1830508 44.7358396,25.1669492 C44.7518797,25.070339 44.7598997,24.9737288 44.7679198,24.8851695 C44.7759398,24.8288136 44.7839599,24.7724576 44.7839599,24.7161017 C44.7839599,24.6919492 44.7839599,24.6677966 44.7839599,24.6436441 L44.8160401,12.2050847 C44.8561404,12.2775424 44.8481203,12.3580508 44.8401003,12.4385593 Z" id="Path" fill="#53A5F8"></path>
                    <path d="M42.2977444,8.59025424 C45.6180451,10.5144068 45.7704261,13.6944915 42.393985,15.7072034 L26.4661654,25.2233051 C23.4586466,27.0266949 18.6225564,27.2601695 15.1177945,25.7868644 L4.35488722,21.2542373 C3.97794486,21.0932203 3.62506266,20.9241525 3.30426065,20.7389831 C0.64160401,19.1932203 -0.0561403509,16.7940678 1.72431078,14.8055085 L12.2786967,3.02711864 C14.7328321,0.289830508 20.80401,-0.53940678 25.1107769,1.28008475 L41.2390977,8.08305085 C41.6240602,8.2279661 41.9769424,8.40508475 42.2977444,8.59025424 Z" id="Path" fill="#453C9E"></path>
                    <path d="M42.393985,15.7072034 L26.4661654,25.2233051 C23.4586466,27.0266949 18.6225564,27.2601695 15.1177945,25.7868644 L4.35488722,21.2542373 C3.97794486,21.0932203 3.62506266,20.9241525 3.30426065,20.7389831 C2.01303258,19.9902542 1.18696742,19.0402542 0.882205514,18.0338983 C0.384962406,19.6521186 1.26716792,21.3427966 3.30426065,22.5262712 C3.62506266,22.7114407 3.97794486,22.8885593 4.35488722,23.0415254 L15.1177945,27.5741525 C18.6225564,29.0555085 23.4586466,28.8139831 26.4661654,27.0105932 L42.393985,17.4944915 C44.4390977,16.2707627 45.1769424,14.6283898 44.7197995,13.090678 C44.4230576,14.040678 43.6531328,14.9584746 42.393985,15.7072034 Z" id="Path" fill="#FFFFFF"></path>
                    <path d="M20.9804511,23.4521186 C19.6411028,23.4521186 18.2937343,23.2105932 17.1308271,22.7194915 L9.4556391,19.4830508 C9.16691729,19.3622881 8.89423559,19.2254237 8.65363409,19.0885593 C7.49072682,18.4122881 6.76892231,17.4944915 6.6085213,16.5042373 C6.47218045,15.6588983 6.75288221,14.829661 7.40250627,14.1050847 L14.9253133,5.70805085 C16.8180451,3.59872881 21.3573935,2.95466102 24.6295739,4.33940678 L36.1303258,9.18601695 C36.4190476,9.30677966 36.6917293,9.44364407 36.9403509,9.58855932 L36.9403509,9.58855932 C38.2716792,10.3614407 39.0015038,11.4161017 39.0095238,12.559322 C39.0175439,13.6864407 38.3117794,14.7330508 37.0125313,15.5059322 L25.6641604,22.2927966 C24.3809524,23.0576271 22.6887218,23.4521186 20.9804511,23.4521186 Z M20.7879699,4.58898305 C18.7107769,4.58898305 16.6897243,5.225 15.6631579,6.36822034 L8.14035088,14.7652542 C7.69122807,15.2644068 7.49874687,15.8118644 7.58696742,16.3512712 C7.69924812,17.0436441 8.25263158,17.7118644 9.15087719,18.2351695 C9.3593985,18.3559322 9.59197995,18.4686441 9.8406015,18.5733051 L17.5077694,21.8097458 C19.8656642,22.8 23.1538847,22.6470339 25.1588972,21.4394068 L36.5152882,14.6525424 C37.4937343,14.0648305 38.0390977,13.3241525 38.0310777,12.559322 C38.0230576,11.7783898 37.4616541,11.0216102 36.4511278,10.4338983 C36.2345865,10.3131356 36.002005,10.1923729 35.7533835,10.0877119 L24.2526316,5.24110169 C23.202005,4.79830508 21.9829574,4.58898305 20.7879699,4.58898305 Z" id="Shape" fill="#FFFFFF"></path>
                </g>
                <g id="Group" transform="translate(257.443609, 32.203390)">
                    <path d="M45.6180451,15.2644068 C45.6180451,15.3127119 45.6100251,15.3690678 45.6100251,15.4173729 C45.602005,15.5300847 45.593985,15.6508475 45.5699248,15.7635593 C45.5619048,15.8118644 45.5538847,15.8521186 45.5458647,15.9004237 C45.5218045,16.0292373 45.4817043,16.15 45.441604,16.2788136 C45.433584,16.3029661 45.4255639,16.3271186 45.4175439,16.3512712 C45.3614035,16.5042373 45.2892231,16.6491525 45.2090226,16.7940678 C45.1929825,16.8262712 45.1689223,16.8665254 45.1448622,16.8987288 C45.0646617,17.0355932 44.9684211,17.1724576 44.8641604,17.309322 C44.8481203,17.3334746 44.8320802,17.3576271 44.8160401,17.3737288 C44.6716792,17.5588983 44.5112782,17.7279661 44.326817,17.9050847 C44.2947368,17.9372881 44.2706767,17.9614407 44.2385965,17.9936441 C44.0942356,18.1224576 43.9498747,18.2512712 43.7814536,18.3720339 C43.7654135,18.3881356 43.7413534,18.3961864 43.7253133,18.4122881 C43.5809524,18.5169492 43.4205514,18.6216102 43.2601504,18.7262712 C43.2120301,18.7504237 43.1719298,18.7826271 43.1238095,18.8067797 C42.8671679,18.9597458 42.6025063,19.0966102 42.3137845,19.2254237 C42.2736842,19.2415254 42.2255639,19.265678 42.1854637,19.2817797 C41.8887218,19.4105932 41.5759398,19.5313559 41.2471178,19.6440678 C41.1989975,19.6601695 41.1508772,19.6762712 41.1027569,19.6923729 C40.7899749,19.7889831 40.477193,19.8855932 40.1403509,19.9580508 L18.9112782,24.8690678 C18.5904762,24.9415254 18.2536341,24.9978814 17.924812,25.0461864 C17.764411,25.070339 17.59599,25.0944915 17.435589,25.1186441 C17.1629073,25.1508475 16.8822055,25.175 16.6015038,25.1911017 C16.5052632,25.1991525 16.4090226,25.2072034 16.312782,25.2072034 C15.9438596,25.2233051 15.5669173,25.2233051 15.197995,25.2152542 C15.1177945,25.2152542 15.037594,25.2072034 14.9654135,25.1991525 C14.6606516,25.1830508 14.3558897,25.1588983 14.0591479,25.1266949 C13.9709273,25.1186441 13.8746867,25.1105932 13.7864662,25.0944915 C13.4255639,25.0461864 13.0646617,24.9898305 12.7117794,24.9173729 C12.647619,24.9012712 12.5914787,24.8851695 12.5273183,24.8690678 C12.2385965,24.804661 11.9578947,24.7322034 11.685213,24.6516949 C11.5087719,24.6033898 11.3483709,24.5389831 11.1799499,24.4826271 C10.9794486,24.4101695 10.7709273,24.3457627 10.5784461,24.2652542 C10.5062657,24.2330508 10.4421053,24.2088983 10.3699248,24.1766949 C10.073183,24.0478814 9.78446115,23.9029661 9.51177945,23.75 C8.98245614,23.4440678 8.50927318,23.0898305 8.12431078,22.7033898 L1.45162907,16.0211864 C0.850125313,15.4173729 0.481203008,14.7733051 0.336842105,14.1211864 C0.288721805,13.9038136 0.264661654,13.6864407 0.264661654,13.4690678 L0.232581454,25.9076271 C0.232581454,26.7771186 0.61754386,27.6627119 1.41954887,28.4677966 L8.09223058,35.15 C8.48521303,35.5444915 8.95037594,35.890678 9.47969925,36.1966102 C9.75238095,36.3495763 10.0411028,36.4944915 10.3378446,36.6233051 C10.4100251,36.6555085 10.4741855,36.6877119 10.5463659,36.7118644 C10.6105263,36.7360169 10.6746867,36.7682203 10.7388471,36.7923729 C10.8671679,36.840678 11.0115288,36.8809322 11.1478697,36.9292373 C11.3162907,36.9855932 11.4766917,37.05 11.6531328,37.0983051 C11.7012531,37.1144068 11.7493734,37.1305085 11.7974937,37.1466102 C12.0220551,37.2110169 12.2626566,37.2673729 12.4952381,37.315678 C12.5593985,37.3317797 12.6155388,37.3478814 12.6877193,37.3639831 C12.7037594,37.3639831 12.7117794,37.3720339 12.7278195,37.3720339 C13.0085213,37.4283898 13.3052632,37.4847458 13.593985,37.525 C13.6501253,37.5330508 13.7062657,37.5330508 13.762406,37.5411017 C13.8506266,37.5491525 13.9388471,37.5652542 14.0350877,37.5733051 C14.1714286,37.5894068 14.3077694,37.6055085 14.4441103,37.6216102 C14.6125313,37.6377119 14.7729323,37.6377119 14.9413534,37.6457627 C15.0215539,37.6457627 15.1017544,37.6538136 15.1739348,37.6618644 C15.2140351,37.6618644 15.2541353,37.6699153 15.2942356,37.6699153 C15.5909774,37.6779661 15.8877193,37.6779661 16.1764411,37.6618644 C16.2085213,37.6618644 16.2486216,37.6538136 16.2807018,37.6538136 C16.3769424,37.6457627 16.473183,37.6377119 16.5694236,37.6377119 C16.7538847,37.629661 16.9463659,37.6216102 17.1308271,37.5974576 C17.2190476,37.5894068 17.3072682,37.5733051 17.4035088,37.5572034 C17.5719298,37.5411017 17.7323308,37.5169492 17.8927318,37.4847458 C18.0130326,37.4686441 18.1333333,37.4525424 18.245614,37.4364407 C18.4541353,37.3961864 18.6626566,37.3559322 18.8711779,37.3076271 L40.1002506,32.3966102 C40.4370927,32.3161017 40.7578947,32.2275424 41.0626566,32.1309322 C41.0947368,32.1228814 41.126817,32.1148305 41.1588972,32.1067797 C41.1749373,32.0987288 41.1909774,32.090678 41.2070175,32.090678 C41.5358396,31.9779661 41.8486216,31.8572034 42.1453634,31.7283898 C42.1854637,31.7122881 42.233584,31.6881356 42.2736842,31.6720339 C42.562406,31.5432203 42.8270677,31.3983051 43.0837093,31.245339 C43.1077694,31.2372881 43.1318296,31.2211864 43.1478697,31.2131356 C43.1719298,31.1970339 43.19599,31.1809322 43.2200501,31.1648305 C43.3804511,31.0601695 43.5408521,30.9635593 43.685213,30.8508475 C43.7012531,30.8347458 43.7253133,30.8266949 43.7413534,30.8105932 C43.9017544,30.6898305 44.0541353,30.5610169 44.1904762,30.4322034 C44.2065163,30.4161017 44.2225564,30.4080508 44.2385965,30.3919492 C44.2546366,30.3758475 44.2706767,30.3597458 44.2867168,30.3436441 C44.4631579,30.1745763 44.6315789,29.9974576 44.7759398,29.8122881 C44.7839599,29.8042373 44.7839599,29.8042373 44.7919799,29.7961864 C44.8080201,29.7800847 44.8160401,29.7639831 44.8240602,29.7478814 C44.9283208,29.6110169 45.0165414,29.4741525 45.1047619,29.3372881 C45.120802,29.3131356 45.1368421,29.2970339 45.1448622,29.2728814 C45.1528822,29.2567797 45.1609023,29.240678 45.1689223,29.2326271 C45.2491228,29.0877119 45.3213033,28.9347458 45.3774436,28.7898305 C45.3774436,28.7817797 45.3854637,28.7817797 45.3854637,28.7737288 C45.3934837,28.7576271 45.3934837,28.7334746 45.4015038,28.7173729 C45.441604,28.5966102 45.4817043,28.4677966 45.5057644,28.3389831 C45.5137845,28.3148305 45.5218045,28.2987288 45.5218045,28.2745763 C45.5298246,28.2504237 45.5298246,28.2262712 45.5298246,28.2021186 C45.5538847,28.0894068 45.5619048,27.9686441 45.5699248,27.8559322 C45.5699248,27.8317797 45.5779449,27.7995763 45.5779449,27.7754237 C45.5779449,27.7512712 45.5779449,27.7271186 45.5779449,27.7029661 L45.5779449,27.7029661 L45.6180451,15.2644068 Z" id="Path" fill="#53A5F8"></path>
                    <path d="M33.0345865,1.64237288 C33.5639098,1.94830508 34.0370927,2.30254237 34.4300752,2.6970339 L44.4310777,12.7122881 C47.1017544,15.3932203 45.0726817,18.8148305 40.1403509,19.9580508 L18.9112782,24.8690678 C15.6150376,25.6338983 11.9418546,25.1427966 9.52781955,23.7419492 C8.99849624,23.4360169 8.52531328,23.0817797 8.14035088,22.695339 L1.46766917,16.0131356 C-0.705764411,13.8313559 0.184461153,11.0618644 3.56892231,9.5 L21.4696742,1.24788136 C25.0145363,-0.378389831 29.9869674,-0.128813559 33.0345865,1.64237288 Z" id="Path" fill="#453C9E"></path>
                    <path d="M40.1403509,19.9580508 L18.9112782,24.8690678 C15.6150376,25.6338983 11.9418546,25.1427966 9.52781955,23.7419492 C8.99849624,23.4360169 8.52531328,23.0817797 8.14035088,22.695339 L1.46766917,16.0131356 C0.938345865,15.4898305 0.601503759,14.9262712 0.425062657,14.354661 C0.0721804511,15.5059322 0.392982456,16.7216102 1.46766917,17.8004237 L8.14035088,24.4826271 C8.53333333,24.8771186 8.99849624,25.2233051 9.52781955,25.5292373 C11.9418546,26.9300847 15.6230576,27.4131356 18.9112782,26.6563559 L40.1403509,21.745339 C44.1102757,20.8275424 46.1874687,18.4364407 45.4736842,16.1419492 C44.9684211,17.7923729 43.0756892,19.2737288 40.1403509,19.9580508 Z" id="Path" fill="#FFFFFF"></path>
                </g>
                <g id="Group" transform="translate(275.889724, 65.211864)">
                    <path d="M34.1814536,35.9470339 C34.0531328,35.9470339 33.9328321,35.9470339 33.8125313,35.9389831 L10.8110276,35.3915254 C10.4982456,35.3754237 10.2817043,35.3673729 10.0651629,35.3512712 L9.67218045,35.3110169 C9.51177945,35.2949153 9.3593985,35.2788136 9.20701754,35.254661 L9.02255639,35.2224576 C8.73383459,35.1741525 8.54135338,35.1419492 8.34887218,35.1016949 L8.14837093,35.0614407 C7.86766917,34.9970339 7.65914787,34.9487288 7.45062657,34.8923729 L7.21002506,34.8199153 C6.87318296,34.7152542 6.56842105,34.6186441 6.2716792,34.4978814 L6.16741855,34.4576271 C6.05513784,34.409322 5.91879699,34.3529661 5.79047619,34.2966102 L5.50977444,34.1677966 C5.28521303,34.0631356 5.06867168,33.9423729 4.86817043,33.829661 C3.2962406,32.9199153 2.29373434,31.6881356 2.05313283,30.3516949 L0.61754386,22.6792373 C0.577443609,22.4538136 0.553383459,22.2283898 0.553383459,22.0029661 L0.585463659,9.58050847 C0.585463659,9.58050847 0.585463659,9.57245763 0.585463659,9.57245763 L0.585463659,9.57245763 L0.585463659,9.57245763 L1.81253133,9.58050847 C1.81253133,9.58050847 1.81253133,9.58050847 1.81253133,9.58050847 L1.81253133,9.58855932 C1.81253133,9.73347458 1.82857143,9.87838983 1.85263158,10.0233051 L3.28822055,17.6957627 C3.46466165,18.6699153 4.25864662,19.6038136 5.50977444,20.3283898 C5.68621554,20.4330508 5.87067669,20.529661 6.06315789,20.6262712 L6.2716792,20.7228814 C6.45614035,20.8033898 6.560401,20.8516949 6.66466165,20.8919492 L6.76090226,20.9241525 C7.00952381,21.0207627 7.28220551,21.109322 7.57092732,21.1978814 L7.81152882,21.270339 C8.00401003,21.3186441 8.18847118,21.3669492 8.38095238,21.4072034 L8.62957393,21.4635593 C8.79799499,21.4957627 8.97443609,21.5279661 9.15889724,21.5521186 L9.41553885,21.5923729 C9.5518797,21.6084746 9.6962406,21.6245763 9.83258145,21.640678 L10.2175439,21.6809322 C10.4100251,21.6970339 10.6105263,21.7050847 10.8030075,21.7131356 L11.0275689,21.7292373 L33.8847118,22.2686441 C34.1734336,22.2766949 34.4621554,22.2686441 34.7508772,22.2605932 C35.0556391,22.2525424 35.352381,22.2283898 35.6491228,22.2042373 L35.8095238,22.8080508 L35.7453634,22.1961864 C36.0421053,22.1639831 36.322807,22.1237288 36.6115288,22.0754237 C36.7318296,22.0512712 36.8521303,22.0271186 36.9724311,22.0029661 C37.116792,21.9707627 37.2611529,21.9466102 37.3974937,21.9144068 L37.6862155,21.8419492 C37.8867168,21.7855932 38.0230576,21.7533898 38.1513784,21.7131356 L38.4240602,21.6245763 C38.6887218,21.5360169 38.9533835,21.4313559 39.202005,21.3266949 L39.5789474,21.8419492 L39.3223058,21.2783898 C39.5949875,21.1495763 39.8516291,21.0127119 40.1002506,20.8677966 L40.3328321,20.7228814 C40.4290727,20.6584746 40.5253133,20.5940678 40.6135338,20.529661 C40.6937343,20.4733051 40.7659148,20.4169492 40.8380952,20.3605932 C40.9182957,20.2961864 41.0065163,20.2317797 41.0786967,20.159322 L41.2471178,19.9983051 C41.3674185,19.8855932 41.4796992,19.7567797 41.5839599,19.6360169 L42.1694236,19.9016949 L41.6802005,19.5233051 C41.760401,19.4266949 41.8245614,19.3220339 41.8887218,19.2173729 L41.9448622,19.1288136 C41.9849624,19.0644068 42.0010025,19.0241525 42.0170426,18.9758475 L42.0972431,18.8067797 C42.1132832,18.7745763 42.1293233,18.734322 42.1453634,18.6940678 L42.1854637,18.5411017 C42.2175439,18.4283898 42.241604,18.3639831 42.2576441,18.2915254 L42.2817043,18.0580508 C42.2897243,17.9936441 42.2977444,17.9211864 42.2977444,17.8487288 L43.524812,17.8567797 L43.4927318,30.295339 C43.4847118,30.4724576 43.4766917,30.5610169 43.4686717,30.6415254 L42.8431078,30.7059322 L43.4526316,30.7622881 C43.4446115,30.8266949 43.4365915,30.8911017 43.4285714,30.9555085 C43.4045113,31.084322 43.3804511,31.1809322 43.3483709,31.2694915 L42.714787,31.2372881 L43.3082707,31.3902542 C43.2922306,31.4466102 43.2761905,31.5029661 43.2601504,31.5512712 C43.2280702,31.6398305 43.19599,31.7042373 43.1639098,31.7766949 L43.0997494,31.9135593 C43.0676692,31.9860169 43.035589,32.0665254 42.9954887,32.1389831 L42.9072682,32.2758475 C42.8030075,32.4368644 42.714787,32.5737288 42.6105263,32.7105932 C42.554386,32.7911017 42.5223058,32.8233051 42.4902256,32.8555085 C42.3619048,33.0165254 42.2175439,33.1694915 42.0571429,33.3224576 C42.0250627,33.354661 42.0010025,33.3868644 41.9689223,33.4110169 L41.8646617,33.4995763 C41.7443609,33.6042373 41.6481203,33.6847458 41.5438596,33.7652542 C41.4556391,33.8377119 41.3674185,33.9021186 41.2711779,33.9665254 C41.1669173,34.0389831 41.0546366,34.1194915 40.9343358,34.1919492 L40.6616541,34.3610169 C40.3809524,34.5220339 40.0842105,34.6830508 39.7714286,34.8279661 L39.675188,34.8682203 C39.3463659,35.0131356 39.0496241,35.1258475 38.7448622,35.2305085 L38.5042607,35.3110169 C38.3117794,35.3673729 38.1674185,35.4076271 38.0150376,35.4478814 C37.8385965,35.4961864 37.7263158,35.5283898 37.6140351,35.5525424 C37.4616541,35.5847458 37.3092732,35.6169492 37.1568922,35.6491525 L36.7799499,35.7216102 C36.4591479,35.7779661 36.1463659,35.8182203 35.8255639,35.8584746 C35.7293233,35.8745763 35.6972431,35.8745763 35.6571429,35.8745763 C35.4005013,35.9067797 35.0716792,35.9228814 34.7428571,35.9389831 C34.558396,35.9470339 34.3739348,35.9470339 34.1814536,35.9470339 Z M35.6010025,34.6427966 L35.7694236,35.2466102 L35.7052632,34.6347458 C36.002005,34.6025424 36.2827068,34.5622881 36.5634085,34.5139831 L36.9243108,34.4415254 C37.0686717,34.4173729 37.2050125,34.3851695 37.3413534,34.3529661 C37.445614,34.3288136 37.5418546,34.304661 37.6380952,34.2805085 C37.8305764,34.2241525 37.9669173,34.1919492 38.0952381,34.1516949 L38.3679198,34.0631356 C38.6325815,33.9745763 38.8972431,33.8699153 39.1458647,33.7652542 L39.522807,34.2805085 L39.2661654,33.7169492 C39.5388471,33.5881356 39.7954887,33.4512712 40.0441103,33.3144068 L40.2766917,33.1694915 C40.3649123,33.1131356 40.4611529,33.0487288 40.5573935,32.984322 C40.637594,32.9279661 40.7097744,32.8716102 40.7819549,32.8152542 C40.8621554,32.7508475 40.9423559,32.6864407 41.0225564,32.6139831 L41.1909774,32.4610169 C41.3112782,32.3402542 41.4235589,32.2194915 41.5278195,32.0987288 L41.6080201,32.0101695 C41.7042607,31.8813559 41.7684211,31.7766949 41.8325815,31.6720339 L41.8967419,31.5754237 C41.9288221,31.5190678 41.9448622,31.4788136 41.9609023,31.4385593 L42.1373434,30.9957627 C42.1774436,30.8669492 42.1934837,30.8186441 42.2015038,30.770339 L42.233584,30.4885593 C42.241604,30.4483051 42.2496241,30.4161017 42.2496241,30.3758475 L42.2736842,20.7067797 C42.2095238,20.7711864 42.1453634,20.8436441 42.081203,20.9080508 C42.0090226,20.9805085 41.9448622,21.0368644 41.8726817,21.1012712 C41.7764411,21.1898305 41.6802005,21.270339 41.5759398,21.3508475 C41.4877193,21.4233051 41.3994987,21.4877119 41.3032581,21.5521186 C41.1989975,21.6326271 41.0786967,21.7050847 40.966416,21.7775424 C40.8781955,21.8338983 40.7899749,21.8902542 40.7017544,21.9385593 C40.4210526,22.1076271 40.1243108,22.2605932 39.8115288,22.4055085 L39.7152882,22.4457627 C39.3864662,22.590678 39.0897243,22.7033898 38.7849624,22.8 L38.4882206,22.8966102 C38.3438596,22.9449153 38.1994987,22.9851695 38.0551378,23.0254237 C37.8706767,23.0737288 37.766416,23.1059322 37.6541353,23.1300847 C37.5017544,23.1622881 37.3493734,23.1944915 37.1969925,23.2266949 C37.0686717,23.2508475 36.9323308,23.2830508 36.80401,23.2991525 C36.4992481,23.3555085 36.1864662,23.3957627 35.8656642,23.4279661 L35.7453634,23.4440678 C35.4406015,23.4762712 35.1117794,23.5004237 34.7829574,23.5084746 C34.4781955,23.5165254 34.1654135,23.5245763 33.8446115,23.5165254 L10.8190476,22.9690678 C10.5303258,22.9529661 10.3137845,22.9449153 10.0972431,22.9288136 L9.78446115,22.8966102 C9.5358396,22.8724576 9.38345865,22.8563559 9.23107769,22.8322034 L9.04661654,22.8 C8.76591479,22.7516949 8.56541353,22.7194915 8.37293233,22.6872881 L8.19649123,22.6470339 C7.89172932,22.5745763 7.67518797,22.5262712 7.47468672,22.4699153 L7.23408521,22.3974576 C6.88922306,22.2927966 6.58446115,22.1961864 6.2877193,22.0754237 L6.1914787,22.0351695 C6.07919799,21.9949153 5.95889724,21.9385593 5.83057644,21.8822034 L5.51779449,21.745339 C5.29323308,21.6326271 5.07669173,21.5199153 4.86817043,21.4072034 C3.2962406,20.4974576 2.30175439,19.265678 2.05313283,17.9292373 L1.77243108,16.4076271 L1.75639098,22.0190678 C1.75639098,22.1639831 1.77243108,22.3088983 1.79649123,22.4618644 L3.2320802,30.134322 C3.4085213,31.1084746 4.20250627,32.0423729 5.45363409,32.7669492 C5.63007519,32.8716102 5.81453634,32.9682203 6.00701754,33.0648305 L6.21553885,33.1533898 C6.3839599,33.2338983 6.4962406,33.2822034 6.61654135,33.3305085 C6.95338346,33.459322 7.23408521,33.5478814 7.51478697,33.6364407 L7.75538847,33.7088983 C7.93984962,33.7572034 8.13233083,33.8055085 8.32481203,33.8457627 L8.57343358,33.9021186 C8.74185464,33.934322 8.92631579,33.9665254 9.11077694,33.9987288 L9.35137845,34.0389831 C9.49573935,34.0550847 9.64010025,34.0711864 9.78446115,34.0872881 L10.1373434,34.1275424 C10.3538847,34.1436441 10.554386,34.1516949 10.7548872,34.1597458 L10.883208,34.1677966 L33.8365915,34.7152542 C34.1253133,34.7233051 34.406015,34.7152542 34.6867168,34.7152542 C35.0155388,34.6911017 35.3122807,34.675 35.6010025,34.6427966 Z M42.875188,18.2029661 L43.4847118,18.2834746 L42.875188,18.2029661 Z" id="Shape" fill="#53A5F8"></path>
                    <path d="M34.2295739,23.5165254 C34.1012531,23.5165254 33.9729323,23.5165254 33.8446115,23.5084746 L10.9874687,22.9690678 C8.69373434,22.9127119 6.52030075,22.3572034 4.87619048,21.4072034 C3.30426065,20.4974576 2.30977444,19.265678 2.06115288,17.9292373 L0.62556391,10.2567797 C0.441102757,9.25042373 0.681704261,8.2279661 1.33132832,7.31016949 C2.48621554,5.69194915 4.77192982,4.51652542 7.61904762,4.09788136 L29.762406,0.805084746 C32.9062657,0.338135593 36.1704261,0.861440678 38.5042607,2.21398305 L38.5042607,2.21398305 C40.0922306,3.13177966 41.0626566,4.33135593 41.3112782,5.68389831 L43.4526316,17.1966102 C43.6691729,18.3478814 43.3323308,19.4830508 42.4822055,20.4813559 C40.8862155,22.3652542 37.7503759,23.5165254 34.2295739,23.5165254 Z M32.0080201,1.87584746 C31.3182957,1.87584746 30.6285714,1.92415254 29.9468672,2.02881356 L7.80350877,5.32161017 C5.32531328,5.69194915 3.2802005,6.69830508 2.33383459,8.03474576 C1.87669173,8.67881356 1.70827068,9.35508475 1.83659148,10.0394068 L3.27218045,17.7118644 C3.44862155,18.6860169 4.24260652,19.6199153 5.49373434,20.3444915 C6.96140351,21.1978814 8.92631579,21.6970339 11.0195489,21.745339 L33.8766917,22.2847458 C37.124812,22.3411017 40.1483709,21.3427966 41.5518797,19.684322 C42.1614035,18.9677966 42.393985,18.2029661 42.2496241,17.4220339 L40.1082707,5.90932203 C39.9318296,4.93516949 39.1458647,4.00932203 37.8947368,3.28474576 L37.8947368,3.28474576 C36.322807,2.36694915 34.1894737,1.87584746 32.0080201,1.87584746 Z" id="Shape" fill="#81DAFE"></path>
                </g>
                <g id="Group" transform="translate(230.175439, 133.644068)">
                    <path d="M22.5443609,40.3266949 C22.4320802,40.3266949 22.3278195,40.3266949 22.2155388,40.3266949 L21.8867168,40.3105932 C21.6621554,40.3025424 21.5097744,40.2944915 21.3493734,40.2783898 L20.9964912,40.2461864 C20.8200501,40.2300847 20.6516291,40.2139831 20.483208,40.1898305 L20.1383459,40.1334746 C19.9619048,40.1012712 19.7854637,40.0771186 19.6170426,40.0368644 L19.3443609,39.9805085 C19.0877193,39.9241525 18.887218,39.8758475 18.6947368,39.8194915 L18.4220551,39.7470339 C18.077193,39.6423729 17.7403509,39.5377119 17.4275689,39.4088983 C17.283208,39.3525424 17.1709273,39.3042373 17.0586466,39.2559322 L17.1388471,38.6199153 L16.8982456,39.1915254 L16.7378446,39.1190678 C16.5132832,39.0144068 16.2967419,38.9016949 16.0882206,38.7809322 C15.6471178,38.5233051 15.2380952,38.2334746 14.885213,37.9275424 L2.14135338,26.8576271 C1.03458647,25.8915254 0.449122807,24.7483051 0.449122807,23.5567797 L0.481203008,11.1182203 L0.481203008,11.1182203 L1.70827068,11.1182203 C1.70827068,11.9474576 2.14135338,12.7605932 2.9754386,13.4851695 L15.7192982,24.5550847 C16.0160401,24.8127119 16.3528822,25.0542373 16.7298246,25.2716102 C16.9142857,25.3762712 17.1067669,25.4728814 17.2992481,25.5694915 L17.4997494,25.6580508 C17.6601504,25.7305085 17.7804511,25.7868644 17.9007519,25.8351695 C18.1814536,25.9478814 18.4781955,26.0444915 18.7749373,26.1330508 L19.039599,26.2055085 C19.2160401,26.2538136 19.3924812,26.2940678 19.5689223,26.334322 L19.8736842,26.3987288 C20.0260652,26.4309322 20.1864662,26.4550847 20.3548872,26.4792373 L20.6676692,26.5275424 C20.8200501,26.5516949 20.9724311,26.5677966 21.124812,26.5758475 L21.4616541,26.6080508 C21.606015,26.6161017 21.7503759,26.6241525 21.8947368,26.6322034 L22.2636591,26.6483051 C22.5203008,26.6563559 22.7689223,26.6483051 23.0175439,26.6483051 C23.3704261,26.6402542 23.6591479,26.6161017 23.9398496,26.5919492 L24.156391,26.5677966 C24.4050125,26.5436441 24.6616541,26.5033898 24.9182957,26.4631356 L25.2150376,26.4067797 C25.3593985,26.3826271 25.4957393,26.3504237 25.6320802,26.3182203 L25.9769424,26.2377119 C26.1132832,26.2055085 26.241604,26.1652542 26.3779449,26.125 L26.6987469,26.0283898 C26.8671679,25.9720339 27.0275689,25.9076271 27.19599,25.8432203 L27.4285714,25.754661 C27.6691729,25.6580508 27.8937343,25.545339 28.1182957,25.4326271 L42.8671679,17.6957627 C43.0516291,17.5991525 43.2120301,17.4944915 43.3804511,17.3978814 C43.4766917,17.3415254 43.5568922,17.2851695 43.6370927,17.2207627 C43.7333333,17.1563559 43.8295739,17.0838983 43.9177945,17.0194915 C43.9899749,16.9631356 44.0621554,16.8987288 44.1343358,16.8423729 C44.2065163,16.7779661 44.2786967,16.7216102 44.3348371,16.6572034 C44.4551378,16.5444915 44.5593985,16.4237288 44.6556391,16.3110169 L44.7679198,16.1822034 C44.8320802,16.1016949 44.8802005,16.0211864 44.9363409,15.9326271 L45.0085213,15.8199153 C45.0726817,15.7072034 45.0967419,15.6669492 45.112782,15.6266949 L45.1849624,15.4576271 C45.2010025,15.4173729 45.2250627,15.3771186 45.2411028,15.3368644 L45.2892231,15.1597458 C45.3213033,15.0470339 45.3373434,14.990678 45.3533835,14.934322 L45.3854637,14.6605932 C45.3934837,14.6042373 45.4015038,14.5559322 45.4015038,14.4995763 L45.4015038,14.4915254 L46.6285714,14.4915254 C46.6285714,14.4915254 46.6285714,14.4915254 46.6285714,14.4915254 L46.6285714,14.4915254 C46.6285714,14.4915254 46.6285714,14.4915254 46.6285714,14.4915254 L46.5884712,27.0266949 C46.5884712,27.0911017 46.5804511,27.1635593 46.564411,27.2360169 L45.9388471,27.3084746 L46.5483709,27.3648305 C46.5403509,27.4372881 46.5323308,27.5097458 46.5243108,27.5822034 C46.5002506,27.7029661 46.4761905,27.7834746 46.4521303,27.8639831 L45.8265664,27.8237288 L46.4200501,27.9766949 C46.40401,28.0411017 46.3799499,28.1135593 46.3558897,28.1779661 C46.3238095,28.2826271 46.2917293,28.3470339 46.2516291,28.4114407 L45.6340852,28.2826271 L46.1954887,28.5322034 C46.1634085,28.6127119 46.1233083,28.6851695 46.083208,28.765678 C46.0431078,28.8461864 46.0110276,28.8944915 45.9709273,28.9427966 C45.8506266,29.1279661 45.7784461,29.240678 45.6982456,29.345339 C45.6340852,29.4338983 45.602005,29.4741525 45.5619048,29.5063559 C45.4255639,29.6673729 45.2892231,29.8122881 45.1448622,29.9572034 C45.120802,29.9894068 45.0887218,30.0216102 45.0566416,30.0538136 C45.0245614,30.0779661 44.9844612,30.1182203 44.9443609,30.1504237 C44.8080201,30.2631356 44.7197995,30.3436441 44.6235589,30.4161017 C44.5192982,30.4966102 44.4070175,30.5771186 44.2947368,30.6576271 C44.1824561,30.7300847 44.0942356,30.8025424 43.9899749,30.8588983 L43.8616541,30.9394068 C43.7092732,31.0279661 43.5488722,31.1165254 43.3884712,31.2050847 L28.639599,38.9419492 C28.3909774,39.0707627 28.1263158,39.1995763 27.8616541,39.3122881 L27.5969925,39.4169492 C27.4125313,39.4894068 27.2360902,39.5538136 27.043609,39.6182203 L26.7548872,39.0707627 L26.9473684,39.6584746 C26.8912281,39.6745763 26.8350877,39.690678 26.7709273,39.7067797 C26.5383459,39.7711864 26.393985,39.8194915 26.241604,39.8597458 C26.1132832,39.8919492 25.9929825,39.9241525 25.8646617,39.9483051 C25.7122807,39.9805085 25.5598997,40.0127119 25.4075188,40.0449153 L25.1348371,40.0932203 C24.806015,40.1495763 24.5253133,40.1898305 24.2446115,40.2220339 L24.0842105,40.2461864 C23.7152882,40.2783898 23.4025063,40.3025424 23.0897243,40.3105932 C22.9052632,40.3266949 22.720802,40.3266949 22.5443609,40.3266949 Z M23.9238095,39.0305085 L24.1323308,39.6262712 L24.0360902,39.0144068 C24.3889724,38.9741525 24.645614,38.9338983 24.9022556,38.8936441 L25.1989975,38.845339 C25.3353383,38.8211864 25.4716792,38.7889831 25.6160401,38.7567797 L25.9609023,38.6762712 C26.0972431,38.6440678 26.2255639,38.6038136 26.3619048,38.5635593 L26.5864662,38.4991525 L26.875188,39.0466102 L26.6827068,38.4588983 C26.8511278,38.4025424 27.0115288,38.3381356 27.1799499,38.2737288 L27.4205514,38.1851695 C27.6611529,38.0805085 27.8857143,37.9758475 28.1102757,37.8631356 L42.8591479,30.1262712 C43.0035088,30.0538136 43.1398496,29.9733051 43.2681704,29.8927966 L43.3804511,29.820339 C43.4606516,29.7639831 43.5488722,29.715678 43.6290727,29.659322 C43.7413534,29.5868644 43.8295739,29.5144068 43.9177945,29.45 C43.997995,29.3936441 44.0701754,29.3292373 44.1343358,29.2648305 L44.2225564,29.1923729 C44.2867168,29.1279661 44.3107769,29.1038136 44.3428571,29.079661 C44.4631579,28.9669492 44.5674185,28.8542373 44.6636591,28.7334746 L44.7518797,28.6449153 C44.8401003,28.5322034 44.8882206,28.4516949 44.9363409,28.3711864 L45.0245614,28.2423729 C45.0807018,28.1377119 45.1047619,28.0974576 45.120802,28.0572034 L45.3293233,27.5097458 C45.3373434,27.4694915 45.3533835,27.4372881 45.3614035,27.4050847 L45.4015038,27.0830508 L46.0270677,27.0266949 L45.4175439,26.9783898 L45.441604,17.3576271 C45.3774436,17.4300847 45.3132832,17.4944915 45.2491228,17.5588983 C45.1689223,17.6394068 45.0807018,17.7118644 44.9924812,17.7923729 C44.9122807,17.8648305 44.8240602,17.9372881 44.7278195,18.0097458 C44.6155388,18.0902542 44.5112782,18.1707627 44.3989975,18.2512712 C44.3027569,18.3237288 44.1984962,18.3881356 44.0862155,18.4605932 C43.9017544,18.5813559 43.7012531,18.6940678 43.4927318,18.8067797 L28.7438596,26.5436441 C28.4952381,26.6724576 28.2305764,26.7932203 27.9659148,26.9139831 L27.7894737,26.9864407 C27.516792,27.0911017 27.3323308,27.1635593 27.1478697,27.2199153 C27.0275689,27.2601695 26.9072682,27.2923729 26.7869674,27.3326271 C26.6426065,27.3809322 26.4902256,27.4211864 26.3378446,27.4614407 C26.2095238,27.4936441 26.0892231,27.5258475 25.9609023,27.55 C25.8085213,27.5822034 25.6561404,27.6144068 25.5037594,27.6466102 C25.3994987,27.6707627 25.287218,27.6868644 25.1749373,27.7029661 C24.9022556,27.7512712 24.6215539,27.7915254 24.3408521,27.8237288 L24.1082707,27.8478814 C23.8035088,27.8800847 23.4907268,27.8961864 23.1859649,27.9122881 C22.8411028,27.920339 22.5684211,27.920339 22.2957393,27.9122881 L21.9588972,27.8961864 C21.7423559,27.8881356 21.5819549,27.8800847 21.4215539,27.8639831 L21.0686717,27.8317797 C20.8922306,27.815678 20.7238095,27.7995763 20.5634085,27.7754237 L20.314787,27.7351695 C20.0421053,27.6949153 19.8736842,27.6627119 19.6972431,27.6305085 L19.4325815,27.5741525 C19.1679198,27.5177966 18.9754386,27.4694915 18.7829574,27.4131356 L18.4942356,27.3326271 C18.1573935,27.2360169 17.8285714,27.1233051 17.5077694,27.0025424 C17.3714286,26.9461864 17.2350877,26.8898305 17.0987469,26.8254237 L16.8260652,26.704661 C16.5934837,26.5919492 16.3769424,26.4792373 16.1684211,26.3584746 C15.7273183,26.1008475 15.3263158,25.8190678 14.9734336,25.5050847 L2.22957393,14.4351695 C2.06115288,14.2902542 1.90877193,14.1372881 1.76441103,13.984322 L1.74035088,23.5728814 C1.74035088,24.3940678 2.17343358,25.2152542 3.0075188,25.9398305 L15.7513784,37.0097458 C16.0481203,37.2673729 16.3849624,37.5088983 16.7619048,37.7262712 C16.9463659,37.8309322 17.1308271,37.9275424 17.3313283,38.0241525 L17.5398496,38.1127119 C17.7243108,38.1932203 17.8205514,38.2415254 17.916792,38.2817797 C18.2215539,38.4025424 18.5182957,38.4991525 18.8150376,38.5877119 L19.0796992,38.6601695 C19.2561404,38.7084746 19.4406015,38.7487288 19.6170426,38.7889831 L19.7213033,38.8131356 L19.6651629,39.4330508 L19.833584,38.8372881 C20.0741855,38.8855932 20.2345865,38.9097458 20.3949875,38.9338983 L20.5233083,38.9580508 L20.5313283,39.5860169 L20.643609,38.9741525 C20.8601504,38.9983051 21.0125313,39.0144068 21.1649123,39.0305085 L21.4295739,39.0627119 C21.6380952,39.0788136 21.7824561,39.0868644 21.926817,39.0868644 L22.247619,39.1029661 C22.5443609,39.1110169 22.7929825,39.1029661 23.041604,39.1029661 C23.354386,39.0788136 23.6431078,39.054661 23.9238095,39.0305085 Z" id="Shape" fill="#53A5F8"></path>
                    <path d="M22.5924812,27.8881356 C20.2506266,27.8881356 17.9087719,27.3648305 16.1283208,26.334322 C15.687218,26.0766949 15.2862155,25.7949153 14.9333333,25.4809322 L2.18947368,14.4110169 C0.962406015,13.3402542 0.368922306,12.0279661 0.521303258,10.7076271 C0.697744361,9.1779661 1.82055138,7.80127119 3.68922306,6.8190678 L13.5218045,1.65847458 C16.9142857,-0.120762712 21.9428571,-0.185169492 25.4716792,1.51355932 L43.1238095,10.0072034 C43.356391,10.1199153 43.5729323,10.2326271 43.7814536,10.3533898 L43.7814536,10.3533898 C45.6581454,11.4402542 46.6766917,12.9377119 46.6446115,14.5478814 C46.6125313,16.2063559 45.4736842,17.7038136 43.4526316,18.7745763 L28.7037594,26.5114407 C26.9634085,27.4372881 24.7739348,27.8881356 22.5924812,27.8881356 Z M19.6330827,1.52966102 C17.6360902,1.52966102 15.6471178,1.94025424 14.0912281,2.75338983 L4.25864662,7.91398305 C2.76691729,8.7029661 1.86867168,9.74152542 1.74035088,10.8444915 C1.63609023,11.7622881 2.06917293,12.6720339 2.9914787,13.4771186 L15.7353383,24.5470339 C16.0320802,24.804661 16.3689223,25.0461864 16.7458647,25.2635593 C19.8656642,27.0669492 24.8621554,27.1394068 28.1343358,25.4245763 L42.883208,17.6877119 C44.4711779,16.8504237 45.3934837,15.7072034 45.4175439,14.5317797 C45.441604,13.3805085 44.639599,12.2855932 43.1719298,11.4241525 L43.1719298,11.4241525 C42.9874687,11.3194915 42.7949875,11.2148305 42.5944862,11.1182203 L24.9423559,2.62457627 C23.4025063,1.9 21.5177945,1.52966102 19.6330827,1.52966102 Z" id="Shape" fill="#6BD2FE"></path>
                </g>
                <g id="Group" transform="translate(182.857143, 151.355932)">
                    <path d="M40.958396,17.1805085 C40.958396,17.2368644 40.9503759,17.2932203 40.9503759,17.3495763 C40.9423559,17.4622881 40.9343358,17.575 40.9102757,17.679661 C40.9022556,17.7279661 40.8942356,17.784322 40.8781955,17.8326271 C40.8541353,17.9372881 40.8220551,18.05 40.7899749,18.154661 C40.7739348,18.2029661 40.7578947,18.2432203 40.7418546,18.2915254 C40.6857143,18.4444915 40.6135338,18.5894068 40.5333333,18.7423729 C40.5253133,18.7584746 40.5092732,18.7745763 40.5012531,18.790678 C40.4130326,18.9355932 40.316792,19.0805085 40.2125313,19.2173729 C40.1804511,19.2576271 40.156391,19.2898305 40.1243108,19.3300847 C39.9799499,19.5072034 39.8275689,19.6762712 39.6511278,19.8372881 C39.6190476,19.8694915 39.5789474,19.9016949 39.5388471,19.9338983 C39.4265664,20.0305085 39.3062657,20.1351695 39.1859649,20.2317797 C39.1378446,20.2720339 39.0897243,20.3042373 39.033584,20.3444915 C38.881203,20.4572034 38.712782,20.5699153 38.5443609,20.6745763 C38.5283208,20.6826271 38.5122807,20.6987288 38.4962406,20.7067797 C38.2315789,20.8677966 37.9428571,21.0127119 37.6461153,21.1495763 C37.606015,21.165678 37.5739348,21.1817797 37.5338346,21.1978814 C37.2370927,21.3266949 36.9243108,21.4474576 36.6035088,21.5521186 C36.5393484,21.5762712 36.475188,21.5923729 36.4110276,21.6165254 C36.2506266,21.6648305 36.0902256,21.7131356 35.9298246,21.7533898 C35.8576441,21.7775424 35.7774436,21.7936441 35.7052632,21.8177966 C35.4646617,21.8822034 35.2160401,21.9385593 34.9593985,21.9868644 L16.0561404,25.5614407 C15.687218,25.6338983 15.3102757,25.6822034 14.9413534,25.7224576 C14.9012531,25.7305085 14.8691729,25.7385593 14.8290727,25.7385593 C14.4521303,25.7788136 14.083208,25.7949153 13.7142857,25.8029661 C13.6180451,25.8029661 13.5218045,25.8029661 13.4255639,25.8029661 C13.1448622,25.8029661 12.8641604,25.7949153 12.5914787,25.7868644 C12.4952381,25.7788136 12.4070175,25.7788136 12.3107769,25.7707627 C11.9578947,25.7466102 11.6130326,25.7144068 11.2681704,25.6580508 C11.2120301,25.65 11.1639098,25.6419492 11.1077694,25.6338983 C10.8190476,25.5855932 10.5383459,25.5372881 10.2576441,25.4728814 C10.1293233,25.440678 10.0010025,25.4084746 9.8726817,25.3762712 C9.6802005,25.3279661 9.4877193,25.2716102 9.2952381,25.2152542 C9.10275689,25.1588983 8.91829574,25.0944915 8.73383459,25.0220339 C8.54937343,24.9576271 8.37293233,24.8932203 8.19649123,24.8127119 C8.12431078,24.7805085 8.04411028,24.7483051 7.97192982,24.7161017 C7.69924812,24.5872881 7.42656642,24.4584746 7.17794486,24.3135593 C5.95087719,23.6050847 5.06867168,22.6631356 4.73984962,21.584322 L0.826065163,8.47754237 C0.737844612,8.17966102 0.697744361,7.88983051 0.697744361,7.6 L0.66566416,20.0385593 C0.66566416,20.3283898 0.705764411,20.6262712 0.793984962,20.9161017 L4.70776942,34.0228814 C5.02857143,35.1016949 5.91077694,36.0436441 7.14586466,36.7521186 C7.39448622,36.8970339 7.65914787,37.0258475 7.93984962,37.154661 C8.01203008,37.1868644 8.09223058,37.2190678 8.16441103,37.2512712 C8.24461153,37.2834746 8.32481203,37.3237288 8.41303258,37.3559322 C8.50927318,37.3961864 8.60551378,37.420339 8.70175439,37.4525424 C8.88621554,37.5169492 9.07067669,37.5813559 9.26315789,37.6457627 C9.33533835,37.6699153 9.4075188,37.6940678 9.47969925,37.7182203 C9.6,37.7504237 9.72030075,37.7745763 9.8406015,37.8067797 C9.96892231,37.8389831 10.0892231,37.8711864 10.2175439,37.9033898 C10.2817043,37.9194915 10.3378446,37.9355932 10.393985,37.9436441 C10.6105263,37.9919492 10.8350877,38.0241525 11.0596491,38.0563559 C11.1157895,38.0644068 11.1639098,38.0724576 11.2200501,38.0805085 C11.2360902,38.0805085 11.2441103,38.0885593 11.2601504,38.0885593 C11.5328321,38.1288136 11.8135338,38.1610169 12.1022556,38.1851695 C12.158396,38.1932203 12.2145363,38.1932203 12.2626566,38.1932203 C12.3508772,38.2012712 12.4471178,38.2012712 12.5353383,38.209322 C12.6716792,38.2173729 12.8080201,38.2254237 12.9443609,38.2334746 C13.0887218,38.2334746 13.2330827,38.2334746 13.3774436,38.2334746 C13.4736842,38.2334746 13.5699248,38.2334746 13.6661654,38.2334746 C13.7142857,38.2334746 13.7704261,38.2334746 13.8185464,38.2334746 C14.1393484,38.2254237 14.4521303,38.2012712 14.7729323,38.1690678 C14.7729323,38.1690678 14.7809524,38.1690678 14.7809524,38.1690678 C14.8130326,38.1690678 14.8531328,38.1610169 14.885213,38.1529661 C15.2220551,38.1127119 15.5669173,38.0724576 15.9037594,38.0080508 C15.9438596,38 15.9759398,37.9919492 16.0160401,37.9919492 L34.9192982,34.4173729 C35.1759398,34.3690678 35.4245614,34.3127119 35.6651629,34.2483051 C35.7453634,34.2322034 35.8175439,34.2080508 35.8977444,34.1838983 C36.0581454,34.1436441 36.2185464,34.095339 36.3789474,34.0470339 C36.4110276,34.0389831 36.4511278,34.0309322 36.483208,34.0148305 C36.5152882,34.0067797 36.5393484,33.990678 36.5714286,33.9826271 C36.9002506,33.8699153 37.2130326,33.7572034 37.5017544,33.6283898 C37.5418546,33.6122881 37.5739348,33.5961864 37.6140351,33.5800847 C37.918797,33.4432203 38.1994987,33.2983051 38.4641604,33.1372881 C38.4641604,33.1372881 38.4721805,33.1372881 38.4721805,33.1372881 C38.4882206,33.1292373 38.4962406,33.1211864 38.5122807,33.1131356 C38.6807018,33.0084746 38.8491228,32.8957627 39.0015038,32.7830508 C39.0496241,32.7427966 39.0977444,32.7105932 39.1458647,32.670339 C39.2741855,32.5737288 39.3864662,32.4771186 39.4987469,32.3724576 C39.522807,32.3483051 39.5548872,32.3241525 39.5789474,32.3 C39.5869674,32.2919492 39.5949875,32.2838983 39.6030075,32.2677966 C39.7794486,32.1067797 39.9318296,31.929661 40.0761905,31.7605932 C40.0922306,31.7444915 40.1082707,31.7283898 40.1162907,31.7122881 C40.1323308,31.6881356 40.1403509,31.6720339 40.156391,31.6478814 C40.2606516,31.5110169 40.3568922,31.3661017 40.4451128,31.2211864 C40.4531328,31.2050847 40.4611529,31.1970339 40.4691729,31.1809322 C40.4691729,31.1809322 40.4691729,31.1728814 40.477193,31.1728814 C40.5573935,31.0279661 40.6295739,30.875 40.6857143,30.7220339 C40.6937343,30.7059322 40.7017544,30.6978814 40.7017544,30.6817797 C40.7097744,30.6495763 40.7177945,30.6173729 40.7258145,30.5932203 C40.7659148,30.4885593 40.7899749,30.3838983 40.8140351,30.2711864 C40.8220551,30.2470339 40.8300752,30.2148305 40.8380952,30.190678 C40.8461153,30.1665254 40.8461153,30.1423729 40.8461153,30.1182203 C40.8621554,30.0055085 40.8781955,29.9008475 40.8862155,29.7881356 C40.8862155,29.7559322 40.8942356,29.7237288 40.8942356,29.6915254 C40.8942356,29.6673729 40.8942356,29.6432203 40.8942356,29.6190678 L40.8942356,29.6190678 L40.958396,17.1805085 Z" id="Path" fill="#53A5F8"></path>
                    <path d="M28.1744361,1.65847458 C28.8320802,2.03686441 29.3934837,2.48771186 29.8265664,2.99491525 L40.0360902,14.9182203 C42.4100251,17.6877119 40.00401,21.0288136 34.9513784,21.9868644 L16.0481203,25.5614407 C12.7919799,26.1813559 9.4075188,25.6177966 7.17794486,24.3216102 C5.95087719,23.6050847 5.06867168,22.6711864 4.73984962,21.5923729 L0.826065163,8.48559322 C0.0882205514,6.0059322 2.58245614,3.59067797 6.6887218,2.80974576 L19.2962406,0.426694915 C22.4962406,-0.185169492 25.9047619,0.338135593 28.1744361,1.65847458 Z" id="Path" fill="#453C9E"></path>
                    <path d="M34.9593985,21.9788136 L16.0561404,25.5533898 C12.8,26.1733051 9.41553885,25.6097458 7.18596491,24.3135593 C5.95889724,23.5970339 5.07669173,22.6631356 4.74786967,21.584322 L0.842105263,8.50974576 C0.66566416,9.07330508 0.65764411,9.6690678 0.834085213,10.2648305 L4.74786967,23.3716102 C5.06867168,24.4504237 5.95087719,25.3923729 7.18596491,26.1008475 C9.4235589,27.3970339 12.8,27.9605932 16.0561404,27.340678 L34.9593985,23.7661017 C39.1859649,22.9690678 41.5518797,20.4894068 40.8140351,18.0822034 C40.2606516,19.8292373 38.1353383,21.375 34.9593985,21.9788136 Z" id="Path" fill="#FFFFFF"></path>
                </g>
                <g id="Group" transform="translate(71.378446, 0.000000)">
                    <path d="M42.6907268,17.9855932 C42.6907268,18.0338983 42.6827068,18.0822034 42.6827068,18.1305085 C42.6746867,18.2512712 42.6666667,18.3720339 42.6426065,18.4927966 C42.6345865,18.5330508 42.6265664,18.5652542 42.6185464,18.6055085 C42.5864662,18.7504237 42.5463659,18.895339 42.4982456,19.0402542 C42.4902256,19.0644068 42.4822055,19.0805085 42.4741855,19.104661 C42.4260652,19.2334746 42.3619048,19.3622881 42.2897243,19.4911017 C42.2736842,19.5233051 42.2576441,19.5555085 42.233584,19.5877119 C42.1453634,19.740678 42.0411028,19.8936441 41.9288221,20.0466102 C41.912782,20.0707627 41.8887218,20.0949153 41.8726817,20.1190678 C41.7283208,20.2961864 41.5679198,20.4733051 41.3834586,20.6504237 C41.3593985,20.6745763 41.3273183,20.6987288 41.3032581,20.7228814 C41.1829574,20.8355932 41.0546366,20.9402542 40.9182957,21.0449153 C40.8862155,21.0690678 40.8541353,21.0932203 40.8220551,21.1173729 C40.6616541,21.2381356 40.485213,21.3508475 40.3087719,21.4635593 C40.2766917,21.479661 40.2446115,21.4957627 40.2125313,21.5199153 C39.9478697,21.6728814 39.675188,21.8177966 39.3704261,21.954661 C39.3383459,21.9707627 39.2982456,21.9868644 39.2661654,22.0029661 C38.9694236,22.1317797 38.6486216,22.2525424 38.3197995,22.3652542 C38.1994987,22.4055085 38.087218,22.4457627 37.9669173,22.4779661 L26.1694236,25.9800847 C25.7363409,26.1088983 25.287218,26.2135593 24.8300752,26.2940678 C24.4210526,26.3665254 24.00401,26.4228814 23.5869674,26.4631356 C23.5067669,26.4711864 23.4185464,26.4711864 23.3383459,26.4792373 C23.0015038,26.5033898 22.6646617,26.5194915 22.3278195,26.5194915 C22.2315789,26.5194915 22.1433584,26.5194915 22.0471178,26.5194915 C21.6541353,26.5114407 21.2691729,26.495339 20.8761905,26.4631356 C20.8120301,26.4550847 20.7398496,26.4470339 20.6756892,26.4389831 C20.3388471,26.4067797 20.002005,26.3584746 19.673183,26.2940678 C19.5849624,26.2779661 19.5047619,26.2699153 19.4165414,26.2457627 C19.0315789,26.1733051 18.6626566,26.0847458 18.3017544,25.9800847 C18.1894737,25.9478814 18.085213,25.9076271 17.9809524,25.8673729 C17.7002506,25.7788136 17.4275689,25.6902542 17.1629073,25.5775424 C17.1067669,25.5533898 17.0506266,25.5292373 16.9944862,25.5050847 C16.6656642,25.3601695 16.3368421,25.2072034 16.0401003,25.0381356 C15.6952381,24.8368644 15.3744361,24.6194915 15.0857143,24.3779661 L1.79649123,13.5254237 C0.970426065,12.8491525 0.465162907,12.1004237 0.272681704,11.3355932 C0.208521303,11.0860169 0.176441103,10.8283898 0.176441103,10.5707627 L0.144360902,23.009322 C0.144360902,24.0237288 0.66566416,25.0542373 1.76441103,25.9559322 L15.0536341,36.8084746 C15.3423559,37.0419492 15.6631579,37.2673729 16.0080201,37.4686441 C16.3047619,37.6457627 16.6255639,37.7987288 16.962406,37.9436441 C17.0185464,37.9677966 17.0746867,37.9919492 17.1308271,38.0161017 C17.1789474,38.0322034 17.2190476,38.0563559 17.2591479,38.0724576 C17.4756892,38.1610169 17.7082707,38.2334746 17.9408521,38.3059322 C18.0531328,38.3381356 18.1493734,38.3864407 18.2616541,38.4186441 C18.2776942,38.4266949 18.2937343,38.4266949 18.3097744,38.4347458 C18.6065163,38.5233051 18.9192982,38.5957627 19.2320802,38.6601695 C19.2802005,38.6682203 19.3363409,38.6762712 19.3844612,38.684322 C19.4646617,38.7004237 19.5528822,38.7165254 19.6411028,38.7245763 C19.7934837,38.7487288 19.9458647,38.7809322 20.1062657,38.8050847 C20.2827068,38.8292373 20.4671679,38.845339 20.6516291,38.8694915 C20.7157895,38.8775424 20.7879699,38.8855932 20.8521303,38.8936441 C20.8842105,38.8936441 20.9243108,38.9016949 20.956391,38.9016949 C21.2370927,38.9258475 21.5258145,38.9419492 21.8065163,38.95 C21.8786967,38.95 21.9428571,38.95 22.0150376,38.95 C22.1112782,38.95 22.1994987,38.95 22.2957393,38.95 C22.4320802,38.95 22.560401,38.95 22.6967419,38.95 C22.8972431,38.9419492 23.1057644,38.9258475 23.3062657,38.9097458 C23.3864662,38.9016949 23.4746867,38.9016949 23.5548872,38.8936441 C23.5869674,38.8936441 23.6190476,38.8936441 23.6591479,38.8855932 C24.0360902,38.845339 24.4050125,38.7970339 24.7739348,38.7326271 C24.7819549,38.7326271 24.7899749,38.7245763 24.806015,38.7245763 C25.2631579,38.6440678 25.7042607,38.5394068 26.1453634,38.4105932 L37.9428571,34.9084746 C38.0390977,34.8762712 38.1433584,34.8521186 38.239599,34.8199153 C38.2636591,34.8118644 38.2796992,34.8038136 38.2957393,34.7957627 C38.6245614,34.6830508 38.9453634,34.5622881 39.2421053,34.4334746 C39.2822055,34.4173729 39.3142857,34.4012712 39.3463659,34.3851695 C39.6431078,34.2483051 39.9238095,34.1033898 40.1804511,33.9504237 C40.1964912,33.9423729 40.2205514,33.934322 40.2365915,33.9262712 C40.2526316,33.9182203 40.2606516,33.9101695 40.2766917,33.9021186 C40.4611529,33.7894068 40.6295739,33.6766949 40.7899749,33.5559322 C40.8220551,33.5317797 40.8541353,33.5076271 40.8862155,33.4834746 C41.0225564,33.3788136 41.1508772,33.2741525 41.2711779,33.1614407 C41.287218,33.145339 41.3112782,33.1292373 41.3353383,33.1131356 C41.3433584,33.1050847 41.3513784,33.0970339 41.3593985,33.0889831 C41.5438596,32.9199153 41.7042607,32.7427966 41.8486216,32.5576271 C41.8566416,32.5415254 41.8726817,32.5334746 41.8887218,32.5173729 C41.8967419,32.509322 41.9047619,32.4932203 41.912782,32.4851695 C42.0250627,32.3322034 42.1293233,32.1792373 42.2175439,32.0262712 C42.2255639,32.0101695 42.233584,32.0021186 42.241604,31.9860169 C42.2496241,31.9699153 42.2576441,31.9457627 42.2736842,31.9216102 C42.3458647,31.7927966 42.402005,31.6639831 42.4581454,31.5351695 C42.4661654,31.5190678 42.4741855,31.5029661 42.4822055,31.4868644 C42.4822055,31.4788136 42.4822055,31.4788136 42.4902256,31.4707627 C42.5463659,31.3258475 42.5864662,31.1809322 42.6105263,31.0360169 C42.6105263,31.0199153 42.6185464,31.0038136 42.6265664,30.9957627 C42.6345865,30.9716102 42.6265664,30.9474576 42.6345865,30.9233051 C42.6586466,30.8025424 42.6666667,30.6817797 42.6746867,30.5610169 C42.6746867,30.5368644 42.6827068,30.5127119 42.6827068,30.4966102 C42.6827068,30.4724576 42.6827068,30.4483051 42.6827068,30.4241525 L42.6827068,30.4241525 L42.6907268,17.9855932 Z" id="Path" fill="#53A5F8"></path>
                    <path d="M32.7298246,1.77923729 C33.6441103,2.31059322 34.3739348,2.97076271 34.8310777,3.74364407 L42.2255639,16.3432203 C43.6210526,18.7262712 41.8085213,21.3347458 37.9588972,22.4779661 L26.1614035,25.9800847 C22.7609023,26.9944915 18.6786967,26.5758475 16.0401003,25.0542373 C15.6952381,24.8529661 15.3744361,24.6355932 15.0857143,24.3940678 L1.79649123,13.5415254 C-1.29122807,11.0216102 0.176441103,7.49533898 4.90827068,6.09449153 L22.6085213,0.845338983 C26.081203,-0.193220339 30.1473684,0.281779661 32.7298246,1.77923729 Z" id="Path" fill="#453C9E"></path>
                    <path d="M37.9588972,22.4779661 L26.1614035,25.9800847 C22.7609023,26.9944915 18.6786967,26.5838983 16.0401003,25.0542373 C15.6952381,24.8529661 15.3744361,24.6355932 15.0857143,24.3940678 L1.79649123,13.5415254 C1.02656642,12.9135593 0.537343358,12.2211864 0.312781955,11.5127119 C-0.0721804511,12.7927966 0.368922306,14.1694915 1.79649123,15.3288136 L15.0857143,26.1813559 C15.3744361,26.4148305 15.6952381,26.6402542 16.0401003,26.8415254 C18.6786967,28.3711864 22.7609023,28.7817797 26.1614035,27.7673729 L37.9588972,24.2652542 C41.4075188,23.2427966 43.2200501,21.0368644 42.5463659,18.8711864 C42.073183,20.3766949 40.4451128,21.7372881 37.9588972,22.4779661 Z" id="Path" fill="#FFFFFF"></path>
                </g>
                <g id="Group" transform="translate(24.060150, 20.127119)">
                    <path d="M29.6501253,40.3186441 C29.5859649,40.3186441 29.5218045,40.3186441 29.4576441,40.3186441 L29.273183,40.3186441 L29.1689223,40.3105932 C28.952381,40.3025424 28.7839599,40.2944915 28.6235589,40.2783898 L28.2706767,40.2542373 C28.1022556,40.2381356 27.9418546,40.2220339 27.7734336,40.1978814 L27.524812,40.1737288 C27.2360902,40.1254237 27.035589,40.0932203 26.8350877,40.0529661 L26.6265664,40.0207627 C26.2977444,39.9483051 26.0010025,39.8758475 25.7122807,39.795339 C25.447619,39.7228814 25.2310777,39.6584746 25.0225564,39.5860169 L5.30927318,32.7991525 C5.14085213,32.7427966 4.97243108,32.6783898 4.81203008,32.6139831 C4.73984962,32.5817797 4.65964912,32.5495763 4.58746867,32.5173729 L4.24260652,32.3644068 C3.96992481,32.2355932 3.70526316,32.1067797 3.46466165,31.9618644 C1.63609023,30.9072034 0.593483709,29.3936441 0.601503759,27.815678 L0.63358396,15.3771186 L0.63358396,15.3771186 L1.86065163,15.3771186 C1.86065163,16.4961864 2.67869674,17.6152542 4.11428571,18.4525424 C4.32280702,18.5733051 4.55538847,18.6860169 4.79598997,18.7987288 L4.94837093,18.8631356 C5.25313283,18.9919492 5.48571429,19.0885593 5.74235589,19.1771186 L25.4556391,25.9639831 C25.6561404,26.0364407 25.8646617,26.0927966 26.073183,26.1572034 C26.3298246,26.229661 26.5944862,26.2940678 26.8671679,26.3504237 L27.0917293,26.390678 C27.2681704,26.4228814 27.4526316,26.4550847 27.6370927,26.4872881 L27.8616541,26.5194915 C28.0942356,26.5516949 28.2466165,26.5677966 28.3989975,26.5838983 L28.7197995,26.6080508 C28.8721805,26.6161017 29.0245614,26.6241525 29.1769424,26.6322034 L29.4977444,26.6402542 C29.6661654,26.6402542 29.8345865,26.6402542 30.0030075,26.6402542 L30.2997494,26.6322034 C30.5323308,26.6241525 30.7568922,26.6080508 30.9894737,26.5838983 L31.206015,27.1877119 L31.1418546,26.5758475 C31.4626566,26.5436441 31.7754386,26.495339 32.0882206,26.4470339 L32.3528822,26.3987288 C32.5132832,26.3665254 32.6736842,26.334322 32.8260652,26.2940678 L33.1067669,26.2216102 C33.2591479,26.1813559 33.4195489,26.1330508 33.5719298,26.0927966 L33.8125313,26.020339 C34.1092732,25.9237288 34.397995,25.8110169 34.6786967,25.6902542 L34.7909774,25.6419492 C35.1278195,25.4889831 35.3924812,25.3521186 35.6491228,25.1991525 C35.8095238,25.1025424 35.9699248,24.9978814 36.1142857,24.8932203 L44.4310777,18.895339 C44.6075188,18.7665254 44.7679198,18.629661 44.9203008,18.5008475 L44.9924812,18.4283898 C45.1689223,18.259322 45.3052632,18.1144068 45.4175439,17.9775424 C45.5619048,17.7923729 45.6501253,17.6635593 45.7303258,17.5266949 L45.7864662,17.4139831 C45.8345865,17.3254237 45.8746867,17.2368644 45.9067669,17.1483051 L45.9548872,17.0114407 C45.9789474,16.9309322 46.0030075,16.8504237 46.0270677,16.7699153 L46.0591479,16.625 C46.075188,16.5444915 46.083208,16.4559322 46.083208,16.3754237 L46.0992481,16.3754237 L46.0992481,16.2224576 L47.2701754,16.2305085 L47.3263158,16.2224576 L47.2942356,28.6610169 C47.2942356,28.7978814 47.2862155,28.8381356 47.2781955,28.8864407 C47.2701754,29.0233051 47.2541353,29.1521186 47.2300752,29.2809322 C47.2140351,29.4016949 47.197995,29.4419492 47.1899749,29.4902542 C47.1659148,29.6029661 47.1258145,29.7237288 47.0937343,29.8364407 C47.0857143,29.8766949 47.0776942,29.9088983 47.0616541,29.9491525 L47.0135338,30.0618644 C46.9734336,30.1665254 46.9092732,30.2872881 46.8531328,30.4080508 C46.8290727,30.4563559 46.8130326,30.4966102 46.7889724,30.5368644 C46.6526316,30.7622881 46.5323308,30.9474576 46.39599,31.1245763 L46.3238095,31.2131356 C46.1954887,31.3741525 46.0270677,31.5512712 45.8506266,31.720339 L45.7784461,31.8008475 C45.762406,31.8169492 45.7303258,31.8411017 45.7062657,31.8652542 C45.5298246,32.0182203 45.3373434,32.1792373 45.1288221,32.3402542 L36.8120301,38.3381356 C36.635589,38.4588983 36.4591479,38.579661 36.2746867,38.6923729 C35.9699248,38.8694915 35.6651629,39.0305085 35.3443609,39.1754237 L35.1438596,39.2639831 C34.8310777,39.4008475 34.5102757,39.529661 34.1734336,39.634322 L33.9889724,39.690678 C33.7403509,39.7631356 33.5719298,39.8114407 33.3954887,39.8597458 L33.1709273,39.9161017 C32.9142857,39.9805085 32.7378446,40.0127119 32.5694236,40.0449153 L32.2807018,40.1012712 C31.9358396,40.1576271 31.5909774,40.2139831 31.2461153,40.2461864 L31.1177945,40.2542373 C30.8370927,40.2783898 30.5884712,40.2944915 30.3398496,40.3025424 L30.0992481,40.3105932 C29.914787,40.3105932 29.7784461,40.3186441 29.6501253,40.3186441 Z M28.5112782,39.0385593 L28.7037594,39.0466102 C28.8561404,39.054661 29.0085213,39.0627119 29.1609023,39.0707627 L29.3052632,39.6987288 L29.3132832,39.0788136 L29.4817043,39.0788136 C29.6421053,39.0788136 29.8105263,39.0788136 29.9789474,39.0788136 L30.0912281,39.0788136 L30.1874687,39.6987288 L30.1954887,39.0788136 C30.5002506,39.0627119 30.7328321,39.0466102 30.9573935,39.0305085 L31.1498747,39.634322 L31.0696742,39.0224576 C31.4305764,38.9822034 31.7433584,38.9419492 32.0561404,38.8855932 L32.320802,38.8372881 C32.481203,38.8050847 32.633584,38.7728814 32.7859649,38.740678 L33.0666667,38.6682203 C33.2190476,38.6279661 33.3794486,38.579661 33.5318296,38.5394068 L33.7403509,38.475 C34.0611529,38.370339 34.3498747,38.2576271 34.6305764,38.1368644 L34.8070175,38.0563559 C35.0877193,37.9275424 35.352381,37.790678 35.6010025,37.6457627 C35.7774436,37.5411017 35.9218045,37.4444915 36.0741855,37.3398305 L44.3909774,31.3419492 C44.5674185,31.2131356 44.7278195,31.084322 44.8721805,30.9474576 L44.9844612,30.8427966 C45.1288221,30.7059322 45.2571429,30.5690678 45.3694236,30.4241525 L45.433584,30.3597458 C45.5458647,30.1987288 45.6260652,30.0860169 45.6902256,29.9733051 L45.7463659,29.8605932 C45.7944862,29.7720339 45.8345865,29.6834746 45.8666667,29.5949153 L45.9067669,29.5063559 C45.9388471,29.3775424 45.9629073,29.3050847 45.9789474,29.2245763 L46.0110276,29.1199153 C46.0270677,28.9991525 46.0350877,28.9105932 46.0431078,28.8300847 L46.0511278,28.7254237 L46.075188,19.0805085 C46.0030075,19.1529661 45.9388471,19.2254237 45.8666667,19.2978814 L45.7223058,19.4347458 C45.5378446,19.5957627 45.3533835,19.7567797 45.1368421,19.9097458 L36.8200501,25.9076271 C36.643609,26.0364407 36.4591479,26.1572034 36.2666667,26.2699153 C35.9779449,26.4470339 35.673183,26.6 35.352381,26.7449153 L35.1598997,26.8334746 C34.8390977,26.970339 34.5182957,27.0991525 34.1814536,27.2118644 L33.9889724,27.2682203 C33.7483709,27.340678 33.5719298,27.3889831 33.4035088,27.4372881 L33.0907268,27.5097458 C32.9223058,27.55 32.7458647,27.5902542 32.5774436,27.6224576 L32.2887218,27.6788136 C31.9438596,27.7351695 31.6070175,27.7915254 31.2621554,27.8237288 L31.1578947,27.8317797 C30.8451128,27.8559322 30.5964912,27.8800847 30.3478697,27.8881356 L30.0270677,27.8961864 C29.8426065,27.9042373 29.6661654,27.9042373 29.4817043,27.8961864 L29.1368421,27.8881356 C28.9684211,27.8800847 28.8,27.8720339 28.639599,27.8639831 L28.2947368,27.8398305 C28.1263158,27.8237288 27.9578947,27.8076271 27.7894737,27.7834746 L27.4606516,27.7432203 C27.2601504,27.7110169 27.0596491,27.6788136 26.8591479,27.6385593 L26.6185464,27.5983051 C26.3137845,27.5338983 26.0250627,27.4614407 25.7363409,27.3809322 C25.5037594,27.3165254 25.279198,27.2440678 25.0546366,27.1716102 L5.34135338,20.3847458 C5.05263158,20.2881356 4.78796992,20.1754237 4.53132832,20.0627119 L4.28270677,19.95 C4.01002506,19.8292373 3.74536341,19.6923729 3.5047619,19.5555085 C2.85513784,19.1771186 2.30175439,18.7423729 1.86065163,18.2673729 L1.83659148,27.8478814 C1.83659148,28.9669492 2.65463659,30.0860169 4.09022556,30.9152542 C4.30676692,31.0360169 4.53132832,31.1567797 4.77192982,31.2614407 L5.26917293,31.4788136 C5.41353383,31.5351695 5.56591479,31.5915254 5.71829574,31.6398305 L25.439599,38.4266949 C25.6320802,38.4911017 25.8245614,38.5555085 26.0170426,38.6038136 C26.3218045,38.684322 26.5864662,38.7567797 26.8511278,38.8131356 L27.0756892,38.8533898 C27.2601504,38.8855932 27.4446115,38.9258475 27.6290727,38.95 L27.9338346,38.9902542 C28.0862155,39.0144068 28.2385965,39.0305085 28.3909774,39.0385593 L28.4631579,39.6665254 L28.5112782,39.0385593 Z" id="Shape" fill="#53A5F8"></path>
                    <path d="M29.7223058,27.8881356 C28.1343358,27.8881356 26.5303258,27.6466102 25.0626566,27.1394068 L5.34937343,20.3525424 C4.67568922,20.1190678 4.05814536,19.845339 3.5047619,19.5233051 C1.73233083,18.4927966 0.713784461,17.0919492 0.64160401,15.5622881 C0.569423559,14.145339 1.34736842,12.7766949 2.81503759,11.7139831 L15.2862155,2.72923729 C18.7508772,0.233474576 24.9744361,0.0322033898 28.8882206,2.29449153 C28.9764411,2.34279661 29.0646617,2.39915254 29.1528822,2.45550847 L44.7117794,12.2372881 C46.3558897,13.2677966 47.2781955,14.6444915 47.3263158,16.1016949 C47.3744361,17.5025424 46.5964912,18.8470339 45.1448622,19.8855932 L36.8280702,25.8834746 C35.0235589,27.1957627 32.3929825,27.8881356 29.7223058,27.8881356 Z M22.4160401,1.96440678 C20.0180451,1.96440678 17.6360902,2.56016949 16.0080201,3.73559322 L3.53684211,12.720339 C2.39799499,13.5415254 1.82055138,14.5076271 1.86867168,15.5059322 C1.92481203,16.6008475 2.71879699,17.6474576 4.12230576,18.4525424 C4.60350877,18.734322 5.14887218,18.9758475 5.75037594,19.1851695 L25.4636591,25.9720339 C28.9924812,27.1877119 33.5719298,26.7207627 36.1142857,24.8851695 L44.4310777,18.8872881 C45.5378446,18.0902542 46.1313283,17.1161017 46.0992481,16.1419492 C46.0671679,15.1033898 45.3373434,14.0889831 44.0621554,13.2838983 L28.5032581,3.50211864 C28.4310777,3.45381356 28.3508772,3.41355932 28.2786967,3.36525424 L28.2786967,3.36525424 C26.6506266,2.43135593 24.5253133,1.96440678 22.4160401,1.96440678 Z" id="Shape" fill="#00A3FF"></path>
                </g>
                <g id="Group" transform="translate(0.000000, 52.330508)">
                    <g opacity="0.2" transform="translate(0.000000, 37.838983)" fill="#53A5F8" id="Path">
                        <path d="M41.5598997,6.85127119 C43.7172932,8.09915254 44.6636591,9.95889831 43.845614,11.7461864 L40.4531328,19.2012712 C39.3463659,21.6326271 35.3443609,23.2105932 31.037594,22.9207627 L8.30877193,21.375 C6.2716792,21.2381356 4.49122807,20.7067797 3.15989975,19.9258475 C1.04260652,18.6940678 0.0320802005,16.8584746 0.866165414,15.0228814 L5.95087719,3.84830508 C7.31428571,0.861440678 12.9122807,-0.716525424 17.8045113,0.50720339 L38.8411028,5.77245763 C39.8837093,6.04618644 40.797995,6.40847458 41.5598997,6.85127119 Z"></path>
                    </g>
                    <g opacity="0.7" transform="translate(0.000000, 24.152542)" fill="#53A5F8" id="Path">
                        <path d="M41.5598997,7.16525424 C43.7172932,8.41313559 44.6636591,10.2728814 43.845614,12.0601695 L40.4531328,19.5152542 C39.3463659,21.9466102 35.3443609,23.5245763 31.037594,23.2347458 L8.30877193,21.6889831 C6.2716792,21.5521186 4.49122807,21.0207627 3.15989975,20.2398305 C1.04260652,19.0080508 0.0320802005,17.1724576 0.866165414,15.3368644 L5.95087719,4.16228814 C7.31428571,1.17542373 12.9122807,-0.402542373 17.8045113,0.821186441 L38.8411028,6.08644068 C39.8837093,6.36016949 40.797995,6.72245763 41.5598997,7.16525424 Z"></path>
                    </g>
                    <path d="M44.1343358,11.0699153 C44.1343358,11.2711864 44.1102757,11.4805085 44.0621554,11.6817797 C44.0541353,11.7220339 44.0380952,11.770339 44.0220551,11.8105932 C43.9739348,11.9957627 43.9177945,12.1728814 43.837594,12.3580508 L40.4451128,19.8131356 C40.3889724,19.9338983 40.324812,20.0466102 40.2526316,20.1673729 C40.1804511,20.2881356 40.1002506,20.4008475 40.0200501,20.5216102 C39.9879699,20.5618644 39.9639098,20.6101695 39.9238095,20.6504237 C39.7794486,20.8275424 39.6190476,20.9966102 39.4506266,21.165678 C39.3944862,21.2139831 39.3383459,21.2622881 39.2822055,21.3186441 C39.1859649,21.3991525 39.0897243,21.479661 38.9934837,21.5601695 C38.9293233,21.6084746 38.8571429,21.6648305 38.7849624,21.7131356 C38.6807018,21.7855932 38.5684211,21.8661017 38.4561404,21.9305085 C38.3919799,21.9707627 38.3278195,22.0110169 38.2556391,22.0512712 C37.9909774,22.2042373 37.7102757,22.3572034 37.4215539,22.4860169 C37.3654135,22.5101695 37.3172932,22.534322 37.2611529,22.5584746 C36.9483709,22.695339 36.6275689,22.8241525 36.2827068,22.9368644 C36.2666667,22.9449153 36.2506266,22.9449153 36.2265664,22.9529661 C36.002005,23.0254237 35.7694236,23.0898305 35.5288221,23.1542373 C35.4406015,23.1783898 35.360401,23.1944915 35.2721805,23.2105932 C35.0957393,23.2508475 34.9273183,23.2911017 34.7428571,23.3233051 C34.6546366,23.3394068 34.5744361,23.3555085 34.4862155,23.3716102 C34.2055138,23.4199153 33.924812,23.4601695 33.6360902,23.4923729 C33.5799499,23.5004237 33.5157895,23.5084746 33.4596491,23.5165254 C33.1709273,23.540678 32.8822055,23.5648305 32.5854637,23.5728814 C32.5132832,23.5728814 32.4330827,23.5728814 32.3609023,23.5728814 C32.152381,23.5809322 31.9518797,23.5809322 31.7433584,23.5728814 C31.5027569,23.5648305 31.2701754,23.5567797 31.0295739,23.540678 L8.30075188,21.9949153 C8.15639098,21.9868644 8.01203008,21.9707627 7.86766917,21.954661 C7.69924812,21.9385593 7.53082707,21.9224576 7.36240602,21.8983051 C7.25814536,21.8822034 7.16190476,21.8661017 7.05764411,21.8580508 C6.88120301,21.8338983 6.7047619,21.8016949 6.53634085,21.7694915 C6.4481203,21.7533898 6.35989975,21.7372881 6.2716792,21.7131356 C5.99097744,21.6567797 5.71829574,21.584322 5.46165414,21.5118644 C5.46165414,21.5118644 5.45363409,21.5118644 5.45363409,21.5118644 C5.12481203,21.4152542 4.81203008,21.3105932 4.51528822,21.1898305 C4.45914787,21.165678 4.39498747,21.1415254 4.33884712,21.1173729 C4.19448622,21.0610169 4.05814536,20.9966102 3.92180451,20.9322034 C3.85764411,20.9 3.78546366,20.8758475 3.72932331,20.8436441 C3.53684211,20.7470339 3.3443609,20.6504237 3.15989975,20.5457627 C1.53984962,19.6038136 0.569423559,18.315678 0.577443609,16.9389831 L0.545363409,29.3775424 C0.545363409,30.7542373 1.50776942,32.0504237 3.12781955,32.984322 C3.30426065,33.0889831 3.49674185,33.1855932 3.69724311,33.2822034 C3.76140351,33.3144068 3.82556391,33.3385593 3.89774436,33.3707627 C4.03408521,33.4351695 4.17042607,33.4915254 4.31478697,33.5559322 C4.33884712,33.5639831 4.36290727,33.5800847 4.39498747,33.5881356 C4.42706767,33.6042373 4.45914787,33.6122881 4.49924812,33.620339 C4.80401003,33.7330508 5.11679198,33.8457627 5.44561404,33.9423729 C5.44561404,33.9423729 5.44561404,33.9423729 5.44561404,33.9423729 L5.44561404,33.9423729 C5.71027569,34.0148305 5.98295739,34.0792373 6.26365915,34.1436441 C6.29573935,34.1516949 6.32781955,34.1597458 6.35989975,34.1677966 C6.4160401,34.1758475 6.4802005,34.1838983 6.53634085,34.2 C6.71278195,34.2322034 6.88120301,34.2644068 7.05764411,34.2885593 C7.11378446,34.2966102 7.16190476,34.3127119 7.21804511,34.3207627 C7.26616541,34.3288136 7.31428571,34.3288136 7.36240602,34.3368644 C7.53082707,34.3610169 7.69924812,34.3771186 7.86766917,34.3932203 C7.93984962,34.4012712 8.00401003,34.409322 8.07619048,34.4173729 C8.14837093,34.4254237 8.22055138,34.4254237 8.29273183,34.4334746 L31.0215539,35.9792373 C31.2380952,35.995339 31.4466165,36.0033898 31.6631579,36.0114407 C31.687218,36.0114407 31.7112782,36.0114407 31.7353383,36.0114407 C31.9438596,36.0194915 32.152381,36.0114407 32.3609023,36.0114407 C32.4250627,36.0114407 32.4892231,36.0114407 32.5533835,36.0114407 C32.5614035,36.0114407 32.5694236,36.0114407 32.5774436,36.0114407 C32.8741855,36.0033898 33.1629073,35.9792373 33.4516291,35.9550847 C33.4676692,35.9550847 33.4837093,35.9550847 33.4997494,35.9550847 C33.5398496,35.9470339 33.5799499,35.9389831 33.6200501,35.9389831 C33.9087719,35.9067797 34.1974937,35.8665254 34.4701754,35.8182203 C34.5182957,35.8101695 34.566416,35.8101695 34.6145363,35.8021186 C34.6546366,35.7940678 34.6867168,35.7860169 34.726817,35.7779661 C34.9032581,35.7457627 35.0796992,35.7055085 35.2561404,35.6652542 C35.3443609,35.6491525 35.4325815,35.625 35.512782,35.6088983 C35.7533835,35.5444915 35.9779449,35.4800847 36.2105263,35.4076271 C36.2265664,35.3995763 36.2426065,35.3995763 36.2586466,35.3915254 C36.2586466,35.3915254 36.2586466,35.3915254 36.2586466,35.3915254 C36.6035088,35.2788136 36.9243108,35.15 37.2370927,35.0131356 C37.2932331,34.9889831 37.3413534,34.9648305 37.3974937,34.940678 C37.6942356,34.8038136 37.9749373,34.6588983 38.2315789,34.5059322 C38.2556391,34.4898305 38.2796992,34.4817797 38.3037594,34.465678 C38.3518797,34.4415254 38.3839599,34.409322 38.4320802,34.3771186 C38.5443609,34.304661 38.6566416,34.2322034 38.7609023,34.1597458 C38.8330827,34.1114407 38.8972431,34.0550847 38.9694236,34.0067797 C39.0736842,33.9262712 39.1699248,33.8457627 39.2581454,33.7652542 C39.2982456,33.7330508 39.3463659,33.7008475 39.3864662,33.6605932 C39.4025063,33.6444915 39.4105263,33.6283898 39.4265664,33.6122881 C39.6030075,33.4512712 39.7634085,33.2741525 39.8997494,33.0970339 C39.9077694,33.0889831 39.9157895,33.0809322 39.9238095,33.0728814 C39.9478697,33.040678 39.9719298,33.0004237 39.99599,32.9682203 C40.0842105,32.8555085 40.164411,32.7347458 40.2285714,32.6139831 C40.2446115,32.5898305 40.2606516,32.565678 40.2766917,32.5415254 C40.324812,32.4529661 40.3729323,32.3563559 40.4210526,32.2597458 L43.8135338,24.804661 C43.845614,24.7322034 43.8776942,24.6597458 43.9017544,24.5872881 C43.9418546,24.4826271 43.9659148,24.3699153 43.997995,24.2652542 C44.006015,24.225 44.0220551,24.1766949 44.0380952,24.1364407 C44.0380952,24.120339 44.0461153,24.1122881 44.0461153,24.0961864 C44.0781955,23.9271186 44.0942356,23.7661017 44.1022556,23.5970339 C44.1022556,23.5728814 44.1022556,23.5487288 44.1022556,23.5245763 L44.1022556,23.5245763 L44.1343358,11.0699153 Z" id="Path" fill="#53A5F8"></path>
                    <path d="M41.5598997,7.45508475 C43.7172932,8.7029661 44.6636591,10.5627119 43.845614,12.35 L40.4531328,19.8050847 C39.3463659,22.2364407 35.3443609,23.8144068 31.037594,23.5245763 L8.30877193,21.9788136 C6.2716792,21.8419492 4.49122807,21.3105932 3.15989975,20.529661 C1.04260652,19.2978814 0.0320802005,17.4622881 0.866165414,15.6266949 L5.95087719,4.45211864 C7.31428571,1.46525424 12.9122807,-0.112711864 17.8045113,1.11101695 L38.8411028,6.37627119 C39.8837093,6.65 40.797995,7.01228814 41.5598997,7.45508475 Z" id="Path" fill="#453C9E"></path>
                    <path d="M43.845614,12.3580508 L40.4531328,19.8131356 C39.3463659,22.2444915 35.3443609,23.8224576 31.037594,23.5326271 L8.30877193,21.9868644 C6.2716792,21.85 4.49122807,21.3186441 3.15989975,20.5377119 C1.90075188,19.8131356 1.05062657,18.8631356 0.729824561,17.840678 C0.216541353,19.5313559 1.19498747,21.1898305 3.15989975,22.325 C4.49122807,23.0978814 6.2716792,23.6292373 8.30877193,23.7741525 L31.037594,25.3199153 C35.3363409,25.6097458 39.3463659,24.0317797 40.4531328,21.6004237 L43.845614,14.145339 C44.1824561,13.404661 44.2065163,12.6639831 43.9819549,11.9474576 C43.9418546,12.084322 43.9097744,12.2211864 43.845614,12.3580508 Z" id="Path" fill="#FFFFFF"></path>
                </g>
            </g>
        </g>
    </g>
</svg>