<?xml version="1.0" encoding="utf-8"?>
<!-- Generator: Adobe Illustrator 23.0.1, SVG Export Plug-In . SVG Version: 6.00 Build 0)  -->
<svg version="1.1" id="Layer_1" xmlns="http://www.w3.org/2000/svg" xmlns:xlink="http://www.w3.org/1999/xlink" x="0px" y="0px"
	 viewBox="0 0 200 80" style="enable-background:new 0 0 200 80;" xml:space="preserve">
<style type="text/css">
	.st0{display:none;}
	.st1{display:inline;}
	.st2{clip-path:url(#SVGID_2_);}
	.st3{clip-path:url(#SVGID_4_);fill:#0F68B2;}
	.st4{clip-path:url(#SVGID_6_);}
	.st5{clip-path:url(#SVGID_8_);fill:#0F68B2;}
	.st6{clip-path:url(#SVGID_10_);}
	.st7{clip-path:url(#SVGID_12_);fill:#FFFFFF;}
	.st8{clip-path:url(#SVGID_14_);}
	.st9{clip-path:url(#SVGID_16_);fill:#FFFFFF;}
	.st10{clip-path:url(#SVGID_18_);}
	.st11{clip-path:url(#SVGID_20_);fill:#FFFFFF;}
	.st12{clip-path:url(#SVGID_22_);}
	.st13{clip-path:url(#SVGID_24_);fill:#202021;}
	.st14{clip-path:url(#SVGID_26_);}
	.st15{clip-path:url(#SVGID_28_);fill:#202021;}
	.st16{clip-path:url(#SVGID_30_);}
	.st17{clip-path:url(#SVGID_32_);fill:#FFFFFF;}
	.st18{fill-rule:evenodd;clip-rule:evenodd;fill:#0F68B2;}
	.st19{clip-path:url(#SVGID_34_);}
	.st20{clip-path:url(#SVGID_36_);fill:#0F68B2;}
</style>
<g class="st0">
	<g class="st1">
		<g>
			<defs>
				<path id="SVGID_1_" d="M170.3,48.8c1.2,0,2.1-0.3,3-1s1.4-1.5,1.6-2.6v-2.7c-0.3-1-0.8-1.8-1.7-2.4s-1.9-0.9-3-0.9
					c-0.8,0-1.6,0.2-2.3,0.6c-0.7,0.4-1.3,1-1.7,1.7c-0.4,0.7-0.6,1.5-0.6,2.5c0,0.9,0.2,1.7,0.6,2.4c0.4,0.7,1,1.3,1.7,1.8
					C168.6,48.6,169.4,48.8,170.3,48.8z M178,37.2V51h-3.2v-2.3c-0.5,0.7-1.2,1.2-2.2,1.8s-2,0.8-3.2,0.8c-1.3,0-2.6-0.3-3.6-0.8
					s-1.9-1.4-2.6-2.5c-0.6-1.1-0.9-2.4-0.9-3.9c0-1.5,0.3-2.8,1-4c0.6-1.1,1.5-2,2.6-2.6c1.1-0.6,2.3-0.9,3.7-0.9
					c1.2,0,2.2,0.3,3.1,0.8c0.9,0.5,1.6,1.2,2.1,2l0.2-2.2L178,37.2L178,37.2z M151.4,48.5h7.9V51h-13.1l8-11.3h-4.9h-2.5l2.5-2.5h1
					h9L151.4,48.5z M136.9,39.1c-1.3,0-2.4,0.5-3.2,1.3s-1.3,2-1.3,3.4c0,0.3,0,0.6,0,0.8l8.2-3c-0.3-0.8-0.8-1.4-1.4-1.8
					C138.6,39.3,137.8,39.1,136.9,39.1z M137.1,48.7c1.2,0,2.3-0.4,3.4-1.2l1.5,2.3c-0.8,0.5-1.6,0.9-2.4,1.2
					c-0.9,0.3-1.7,0.4-2.5,0.4c-1.6,0-2.9-0.3-4.1-1s-2.1-1.5-2.7-2.6s-0.9-2.4-0.9-3.8c0-1.4,0.4-2.6,1-3.7c0.7-1.1,1.6-2,2.9-2.7
					c1.2-0.7,2.5-1,3.9-1c1.8,0,3.4,0.5,4.6,1.6c1.2,1.1,2.1,2.5,2.5,4.4l-11.2,3.8c0.4,0.7,1,1.2,1.6,1.6
					C135.4,48.5,136.2,48.7,137.1,48.7z M121.6,40.5c0.4-0.8,0.9-1.4,1.6-2c0.7-0.6,1.4-1,2.1-1.3c0.8-0.3,1.4-0.5,2-0.5l-0.1,3.1
					c-1,0-1.9,0.2-2.8,0.6c-0.8,0.5-1.5,1.1-1.9,1.9c-0.5,0.8-0.7,1.6-0.7,2.5V51h-3.2V37.2h2.8L121.6,40.5z M105.5,48.8
					c1.2,0,2.2-0.3,3-1s1.4-1.5,1.6-2.6v-2.7c-0.3-1-0.8-1.8-1.7-2.4s-1.8-0.9-3-0.9c-0.8,0-1.6,0.2-2.3,0.6c-0.7,0.4-1.3,1-1.7,1.7
					c-0.4,0.7-0.6,1.5-0.6,2.5c0,0.9,0.2,1.7,0.7,2.4c0.4,0.7,1,1.3,1.7,1.8C103.9,48.6,104.7,48.8,105.5,48.8z M113.3,37.2V51h-3.2
					v-2.3c-0.5,0.7-1.2,1.2-2.2,1.8s-2,0.8-3.2,0.8c-1.3,0-2.6-0.3-3.6-0.8c-1.1-0.6-1.9-1.4-2.6-2.5c-0.6-1.1-0.9-2.4-0.9-3.9
					c0-1.5,0.3-2.8,1-4c0.7-1.1,1.5-2,2.6-2.6c1.1-0.6,2.3-0.9,3.7-0.9c1.2,0,2.2,0.3,3.1,0.8c0.9,0.5,1.6,1.2,2.2,2l0.2-2.2
					L113.3,37.2L113.3,37.2z M86.5,39c1.2,0,2.1-0.2,2.9-0.7s1.3-1.1,1.6-1.8c0.3-0.7,0.5-1.4,0.5-2.1c0-1.2-0.4-2.2-1.2-3.1
					c-0.8-0.9-2-1.4-3.6-1.4h-3.8v9L86.5,39L86.5,39z M86.1,26.9c2.7,0,4.8,0.7,6.3,2s2.3,3.1,2.3,5.5c0,1.4-0.3,2.6-0.8,3.8
					c-0.6,1.2-1.4,2.1-2.7,2.9c-1.2,0.7-2.8,1.1-4.7,1.1h-3.7V51h-3.3V26.9H86.1z"/>
			</defs>
			<clipPath id="SVGID_2_">
				<use xlink:href="#SVGID_1_"  style="overflow:visible;"/>
			</clipPath>
			<g class="st2">
				<g>
					<defs>
						<rect id="SVGID_3_" x="22" y="19" width="156" height="42"/>
					</defs>
					<clipPath id="SVGID_4_">
						<use xlink:href="#SVGID_3_"  style="overflow:visible;"/>
					</clipPath>
					<rect x="74.5" y="21.9" class="st3" width="108.5" height="34.5"/>
				</g>
			</g>
		</g>
	</g>
	<g class="st1">
		<g>
			<defs>
				<path id="SVGID_5_" d="M33.4,19.9c5.3-0.9,13.7-0.9,19,0s9.7,5.2,10.5,10.6s0.9,13.7,0,19.1s-5.4,9.7-10.5,10.6
					c-5.1,0.9-13.7,0.9-19,0s-9.7-5.4-10.5-10.6c-0.9-5.2-0.9-13.7,0-19.1S28.1,20.8,33.4,19.9z"/>
			</defs>
			<clipPath id="SVGID_6_">
				<use xlink:href="#SVGID_5_"  style="overflow:visible;"/>
			</clipPath>
			<g class="st4">
				<g>
					<defs>
						<rect id="SVGID_7_" x="22" y="19" width="156" height="42"/>
					</defs>
					<clipPath id="SVGID_8_">
						<use xlink:href="#SVGID_7_"  style="overflow:visible;"/>
					</clipPath>
					<rect x="17.2" y="14.2" class="st5" width="51.4" height="51.6"/>
				</g>
			</g>
		</g>
	</g>
	<g class="st1">
		<g>
			<defs>
				<path id="SVGID_9_" d="M37.3,26.8c-0.9,0-1.8,0.6-2,1.5l-0.5,2c0,0.1,0,0.1,0.1,0.1h10.8c0.1,0,0.1,0,0.1,0
					c2.8,0.7,4.8,3.1,4.8,6s-2.1,5.3-4.8,6c0,0-0.1,0-0.1,0h-7.8c-1.4,0-1.7,0.6-2.1,2.1l-0.3,1.5c0,0.1,0,0.2,0.1,0.2h10.1h0.1
					c4.9-0.7,8.6-4.8,8.6-9.8s-3.7-9-8.6-9.8C45.8,26.7,43,26.7,37.3,26.8z"/>
			</defs>
			<clipPath id="SVGID_10_">
				<use xlink:href="#SVGID_9_"  style="overflow:visible;"/>
			</clipPath>
			<g class="st6">
				<g>
					<defs>
						<rect id="SVGID_11_" x="22" y="19" width="156" height="42"/>
					</defs>
					<clipPath id="SVGID_12_">
						<use xlink:href="#SVGID_11_"  style="overflow:visible;"/>
					</clipPath>
					<rect x="29.8" y="21.7" class="st7" width="29.6" height="29.6"/>
				</g>
			</g>
		</g>
	</g>
	<g class="st1">
		<g>
			<defs>
				<polygon id="SVGID_13_" points="37.9,54.1 33.9,54.1 35.5,47.9 39.4,47.9 				"/>
			</defs>
			<clipPath id="SVGID_14_">
				<use xlink:href="#SVGID_13_"  style="overflow:visible;"/>
			</clipPath>
			<g class="st8">
				<g>
					<defs>
						<rect id="SVGID_15_" x="22" y="19" width="156" height="42"/>
					</defs>
					<clipPath id="SVGID_16_">
						<use xlink:href="#SVGID_15_"  style="overflow:visible;"/>
					</clipPath>
					<rect x="28.9" y="42.9" class="st9" width="15.5" height="16.3"/>
				</g>
			</g>
		</g>
	</g>
</g>
<g class="st0">
	<g class="st1">
		<g>
			<defs>
				<path id="SVGID_17_" d="M32.8,20.5c5.2-0.8,13.2-0.8,18.4,0s9.4,5.1,10.2,10.2s0.8,13.2,0,18.4s-5.2,9.4-10.2,10.2
					s-13.2,0.8-18.4,0s-9.4-5.2-10.2-10.2s-0.8-13.2,0-18.4C23.5,25.6,27.7,21.4,32.8,20.5z"/>
			</defs>
			<clipPath id="SVGID_18_">
				<use xlink:href="#SVGID_17_"  style="overflow:visible;"/>
			</clipPath>
			<g class="st10">
				<g>
					<defs>
						<rect id="SVGID_19_" x="-104.5" y="-212.6" width="1002.8" height="708.6"/>
					</defs>
					<clipPath id="SVGID_20_">
						<use xlink:href="#SVGID_19_"  style="overflow:visible;"/>
					</clipPath>
					<rect x="16" y="13.9" class="st11" width="52" height="52"/>
				</g>
			</g>
		</g>
	</g>
	<g class="st1">
		<g>
			<defs>
				<path id="SVGID_21_" d="M36.6,27.1c-0.9,0-1.7,0.6-1.9,1.5l-0.5,2c0,0.1,0,0.1,0.1,0.1h10.4c0.1,0,0.1,0,0.1,0
					c2.7,0.6,4.7,3,4.7,5.8s-2,5.2-4.7,5.8c0,0-0.1,0-0.1,0h-7.5c-1.4,0-1.6,0.5-2,2l-0.3,1.4c0,0.1,0,0.2,0.1,0.2h9.8h0.1
					c4.7-0.7,8.3-4.7,8.3-9.4s-3.6-8.7-8.3-9.4C44.9,27.1,42.1,27.1,36.6,27.1z"/>
			</defs>
			<clipPath id="SVGID_22_">
				<use xlink:href="#SVGID_21_"  style="overflow:visible;"/>
			</clipPath>
			<g class="st12">
				<g>
					<defs>
						<rect id="SVGID_23_" x="-104.5" y="-212.6" width="1002.8" height="708.6"/>
					</defs>
					<clipPath id="SVGID_24_">
						<use xlink:href="#SVGID_23_"  style="overflow:visible;"/>
					</clipPath>
					<rect x="28.3" y="21.2" class="st13" width="30.9" height="30.8"/>
				</g>
			</g>
		</g>
	</g>
	<g class="st1">
		<g>
			<defs>
				<polygon id="SVGID_25_" points="37.2,53.5 33.3,53.5 34.8,47.5 38.7,47.5 				"/>
			</defs>
			<clipPath id="SVGID_26_">
				<use xlink:href="#SVGID_25_"  style="overflow:visible;"/>
			</clipPath>
			<g class="st14">
				<g>
					<defs>
						<rect id="SVGID_27_" x="-104.5" y="-212.6" width="1002.8" height="708.6"/>
					</defs>
					<clipPath id="SVGID_28_">
						<use xlink:href="#SVGID_27_"  style="overflow:visible;"/>
					</clipPath>
					<rect x="27.4" y="41.5" class="st15" width="17.3" height="18"/>
				</g>
			</g>
		</g>
	</g>
	<g class="st1">
		<g>
			<defs>
				<path id="SVGID_29_" d="M171.2,48.6c1.2,0,2.2-0.3,3-1c0.8-0.6,1.4-1.5,1.6-2.6v-2.8c-0.3-1-0.9-1.8-1.7-2.4s-1.9-0.9-3-0.9
					c-0.9,0-1.6,0.2-2.4,0.6s-1.3,1-1.7,1.7s-0.6,1.6-0.6,2.5c0,0.9,0.2,1.7,0.6,2.5c0.4,0.7,1,1.3,1.8,1.8
					C169.5,48.3,170.3,48.6,171.2,48.6z M179,36.8v14h-3.2v-2.3c-0.5,0.7-1.2,1.2-2.2,1.8c-1,0.5-2.1,0.8-3.3,0.8
					c-1.4,0-2.6-0.3-3.7-0.9s-1.9-1.4-2.6-2.5c-0.6-1.1-0.9-2.4-0.9-4c0-1.5,0.3-2.9,1-4s1.5-2,2.6-2.6c1.1-0.6,2.4-0.9,3.7-0.9
					c1.2,0,2.3,0.3,3.2,0.8s1.6,1.2,2.2,2l0.2-2.2L179,36.8L179,36.8z M152.1,48.2h8v2.6h-13.2l8.1-11.4H150h-2.6l2.6-2.6h1h9.1
					L152.1,48.2z M137.4,38.8c-1.3,0-2.4,0.5-3.2,1.3c-0.9,0.9-1.3,2-1.3,3.4c0,0.3,0,0.6,0,0.8l8.3-3c-0.3-0.8-0.8-1.4-1.5-1.9
					C139.2,39,138.4,38.8,137.4,38.8z M137.7,48.5c1.2,0,2.4-0.4,3.5-1.2l1.5,2.3c-0.8,0.5-1.6,0.9-2.5,1.2s-1.7,0.4-2.6,0.4
					c-1.6,0-3-0.3-4.1-1s-2.1-1.5-2.7-2.7s-1-2.4-1-3.8c0-1.4,0.4-2.6,1.1-3.8c0.7-1.1,1.7-2,2.9-2.7s2.6-1,4-1
					c1.9,0,3.4,0.5,4.7,1.6s2.1,2.6,2.6,4.5l-11.3,3.9c0.4,0.7,1,1.2,1.7,1.6C136,48.3,136.8,48.5,137.7,48.5z M122,40.2
					c0.4-0.8,0.9-1.4,1.6-2s1.4-1,2.2-1.3c0.8-0.3,1.4-0.5,2-0.5l-0.1,3.1c-1,0-2,0.2-2.8,0.6s-1.5,1.1-2,1.9s-0.7,1.7-0.7,2.5v6.4
					h-3.2v-14h2.9L122,40.2z M105.8,48.6c1.2,0,2.2-0.3,3-1c0.8-0.6,1.4-1.5,1.6-2.6v-2.8c-0.3-1-0.8-1.8-1.7-2.4s-1.9-0.9-3-0.9
					c-0.8,0-1.6,0.2-2.4,0.6s-1.3,1-1.7,1.7s-0.6,1.6-0.6,2.5c0,0.9,0.2,1.7,0.7,2.5c0.4,0.7,1,1.3,1.8,1.8
					C104.1,48.3,104.9,48.6,105.8,48.6z M113.6,36.8v14h-3.2v-2.3c-0.5,0.7-1.2,1.2-2.2,1.8c-1,0.5-2.1,0.8-3.3,0.8
					c-1.3,0-2.6-0.3-3.7-0.9s-1.9-1.4-2.6-2.5c-0.6-1.1-0.9-2.4-0.9-4c0-1.5,0.3-2.9,1-4s1.5-2,2.7-2.6c1.1-0.6,2.3-0.9,3.7-0.9
					c1.2,0,2.3,0.3,3.2,0.8s1.6,1.2,2.2,2l0.2-2.2L113.6,36.8L113.6,36.8z M86.5,38.7c1.2,0,2.2-0.2,2.9-0.7
					c0.8-0.5,1.3-1.1,1.6-1.8c0.3-0.7,0.5-1.4,0.5-2.1c0-1.2-0.4-2.2-1.2-3.1s-2-1.4-3.7-1.4h-3.9v9.1
					C82.8,38.7,86.5,38.7,86.5,38.7z M86.2,26.4c2.7,0,4.8,0.7,6.3,2c1.5,1.3,2.3,3.2,2.3,5.6c0,1.4-0.3,2.7-0.8,3.8
					s-1.5,2.2-2.7,2.9s-2.8,1.1-4.7,1.1h-3.7v9h-3.3V26.4H86.2z"/>
			</defs>
			<clipPath id="SVGID_30_">
				<use xlink:href="#SVGID_29_"  style="overflow:visible;"/>
			</clipPath>
			<g class="st16">
				<g>
					<defs>
						<rect id="SVGID_31_" x="-104.5" y="-212.6" width="1002.8" height="708.6"/>
					</defs>
					<clipPath id="SVGID_32_">
						<use xlink:href="#SVGID_31_"  style="overflow:visible;"/>
					</clipPath>
					<rect x="73.5" y="20.5" class="st17" width="111.4" height="36.7"/>
				</g>
			</g>
		</g>
	</g>
</g>
<path class="st18" d="M62.3,30.9c-0.8-5.1-5-9.3-10.1-10.1C47.1,20,39,20,33.9,20.8s-9.3,5-10.1,10.1C23,36,23,44.2,23.8,49.2
	c0.8,4.9,5,9.3,10.1,10.1c5.1,0.8,13.3,0.8,18.2,0c4.9-0.8,9.3-5,10.1-10.1C63.2,44.1,63.2,36,62.3,30.9z M38.2,53.6h-3.8l1.5-6h3.8
	L38.2,53.6z M45.9,46.1h-0.1H36C36,46.1,36,46,36,45.9l0.3-1.4c0.4-1.4,0.6-2,2-2h7.5c0.1,0,0.1,0,0.1,0c2.7-0.7,4.6-3,4.6-5.8
	s-2-5.1-4.6-5.8c0,0,0,0-0.1,0H35.4c-0.1,0-0.1-0.1-0.1-0.1l0.5-2c0.2-0.9,1-1.5,1.9-1.5c5.5,0,8.2,0,8.2,0c4.7,0.7,8.3,4.6,8.3,9.3
	C54.1,41.5,50.5,45.4,45.9,46.1z"/>
<g>
	<g>
		<defs>
			<path id="SVGID_33_" d="M171.2,48.7c1.2,0,2.2-0.3,3-1s1.4-1.5,1.6-2.6v-2.8c-0.3-1-0.8-1.8-1.7-2.4c-0.9-0.6-1.9-0.9-3-0.9
				c-0.8,0-1.6,0.2-2.3,0.6c-0.7,0.4-1.3,1-1.7,1.7c-0.4,0.7-0.6,1.5-0.6,2.5c0,0.9,0.2,1.7,0.6,2.5s1,1.3,1.7,1.8
				C169.6,48.4,170.4,48.7,171.2,48.7z M179,37v13.9h-3.2v-2.3c-0.5,0.7-1.2,1.2-2.2,1.8c-1,0.5-2,0.8-3.2,0.8
				c-1.3,0-2.6-0.3-3.6-0.8s-1.9-1.4-2.6-2.5c-0.6-1.1-0.9-2.4-0.9-3.9c0-1.5,0.3-2.8,1-4s1.5-2,2.6-2.6c1.1-0.6,2.3-0.9,3.7-0.9
				c1.2,0,2.3,0.3,3.1,0.8c0.9,0.5,1.6,1.2,2.1,2L176,37C176,37,179,37,179,37z M152.3,48.3h7.9v2.6h-13.1l8-11.3h-4.9h-2.5l2.5-2.5
				h1h9.1L152.3,48.3z M137.7,38.9c-1.3,0-2.4,0.5-3.2,1.3c-0.8,0.9-1.3,2-1.3,3.4c0,0.3,0,0.6,0,0.8l8.2-3
				c-0.3-0.8-0.8-1.4-1.4-1.8C139.5,39.2,138.7,38.9,137.7,38.9z M138,48.5c1.2,0,2.3-0.4,3.4-1.2l1.5,2.3c-0.8,0.5-1.6,0.9-2.4,1.2
				c-0.9,0.3-1.7,0.4-2.6,0.4c-1.6,0-2.9-0.3-4.1-1c-1.2-0.6-2.1-1.5-2.7-2.6c-0.6-1.1-1-2.4-1-3.8c0-1.4,0.4-2.6,1-3.7
				c0.7-1.1,1.6-2,2.9-2.7c1.2-0.7,2.5-1,4-1c1.9,0,3.4,0.5,4.6,1.6s2.1,2.5,2.6,4.4l-11.2,3.8c0.4,0.7,1,1.2,1.7,1.6
				C136.3,48.3,137.1,48.5,138,48.5z M122.4,40.3c0.4-0.8,0.9-1.4,1.6-2c0.7-0.6,1.4-1,2.1-1.3c0.8-0.3,1.4-0.5,2-0.5l-0.1,3.1
				c-1,0-1.9,0.2-2.8,0.6c-0.8,0.5-1.5,1.1-1.9,1.9c-0.5,0.8-0.7,1.6-0.7,2.5v6.3h-3.2V37h2.8L122.4,40.3z M106.3,48.7
				c1.2,0,2.2-0.3,3-1c0.8-0.6,1.4-1.5,1.6-2.6v-2.8c-0.3-1-0.8-1.8-1.7-2.4c-0.9-0.6-1.9-0.9-3-0.9c-0.8,0-1.6,0.2-2.3,0.6
				c-0.7,0.4-1.3,1-1.7,1.7c-0.4,0.7-0.6,1.5-0.6,2.5c0,0.9,0.2,1.7,0.7,2.5s1,1.3,1.7,1.8C104.6,48.4,105.4,48.7,106.3,48.7z
				 M114.1,37v13.9h-3.2v-2.3c-0.5,0.7-1.2,1.2-2.2,1.8c-1,0.5-2,0.8-3.2,0.8c-1.3,0-2.6-0.3-3.6-0.8s-1.9-1.4-2.6-2.5
				c-0.6-1.1-0.9-2.4-0.9-3.9c0-1.5,0.3-2.8,1-4s1.5-2,2.6-2.6c1.1-0.6,2.3-0.9,3.7-0.9c1.2,0,2.3,0.3,3.2,0.8
				c0.9,0.5,1.6,1.2,2.2,2l0.2-2.2C111.1,37,114.1,37,114.1,37z M87.2,38.8c1.2,0,2.2-0.2,2.9-0.7s1.3-1.1,1.6-1.8s0.5-1.4,0.5-2.1
				c0-1.2-0.4-2.2-1.2-3.1c-0.8-0.9-2-1.4-3.6-1.4h-3.8v9.1C83.5,38.8,87.2,38.8,87.2,38.8z M86.8,26.7c2.7,0,4.8,0.7,6.3,2
				s2.3,3.2,2.3,5.5c0,1.4-0.3,2.6-0.8,3.8s-1.5,2.1-2.7,2.9S89.1,42,87.2,42h-3.7v8.9h-3.3V26.7H86.8z"/>
		</defs>
		<use xlink:href="#SVGID_33_"  style="overflow:visible;fill:#0F68B2;"/>
		<clipPath id="SVGID_34_">
			<use xlink:href="#SVGID_33_"  style="overflow:visible;"/>
		</clipPath>
		<g class="st19">
			<g>
				<defs>
					<rect id="SVGID_35_" x="-370.7" y="-211.7" width="995.3" height="703.3"/>
				</defs>
				<use xlink:href="#SVGID_35_"  style="overflow:visible;fill:#0F68B2;"/>
				<clipPath id="SVGID_36_">
					<use xlink:href="#SVGID_35_"  style="overflow:visible;"/>
				</clipPath>
				<rect x="74.3" y="20.8" class="st20" width="110.6" height="36.4"/>
			</g>
		</g>
	</g>
</g>
</svg>
